SplineFontDB: 3.2
FontName: ATM275-Regular
FullName: ATM275-Regular
FamilyName: ATM 275
Weight: Book
Copyright: AzhaguThamizh
Version: 1.001
ItalicAngle: -11
UnderlinePosition: -271
UnderlineWidth: 102
Ascent: 1600
Descent: 400
InvalidEm: 0
sfntRevision: 0x00010042
LayerCount: 2
Layer: 0 1 "Back" 1
Layer: 1 1 "Fore" 0
XUID: [1021 192 2086997156 21365]
StyleMap: 0x0040
FSType: 8
OS2Version: 3
OS2_WeightWidthSlopeOnly: 0
OS2_UseTypoMetrics: 0
CreationTime: 1536974599
ModificationTime: 1538977032
PfmFamily: 17
TTFWeight: 400
TTFWidth: 5
LineGap: 0
VLineGap: 0
Panose: 2 11 6 4 2 2 2 2 2 4
OS2TypoAscent: 2000
OS2TypoAOffset: 0
OS2TypoDescent: -1320
OS2TypoDOffset: 0
OS2TypoLinegap: 0
OS2WinAscent: 2000
OS2WinAOffset: 0
OS2WinDescent: 744
OS2WinDOffset: 0
HheadAscent: 2000
HheadAOffset: 0
HheadDescent: -1320
HheadDOffset: 0
OS2SubXSize: 1400
OS2SubYSize: 1300
OS2SubXOff: 0
OS2SubYOff: 0
OS2SupXSize: 1400
OS2SupYSize: 1300
OS2SupXOff: 0
OS2SupYOff: 0
OS2StrikeYSize: 100
OS2StrikeYPos: 518
OS2CapHeight: 1586
OS2XHeight: -200
OS2Vendor: '    '
OS2CodePages: 00000001.00000000
OS2UnicodeRanges: 00100003.00000000.00000000.00000000
Lookup: 4 0 0 "'akhn' Akhand in Tamil2 lookup 0" { "'akhn' Akhand in Tamil2 lookup 0 subtable"  } ['akhn' ('tml2' <'dflt' > ) ]
Lookup: 4 0 0 "'akhn' Akhand in Tamil lookup 1" { "'akhn' Akhand in Tamil lookup 1 subtable"  } ['akhn' ('taml' <'dflt' > ) ]
Lookup: 4 0 0 "'half' Half Forms in Tamil lookup 2" { "'half' Half Forms in Tamil lookup 2 subtable"  } ['half' ('taml' <'dflt' > ) ]
Lookup: 4 0 0 "'haln' Halant Forms in Tamil2 lookup 3" { "'haln' Halant Forms in Tamil2 lookup 3 subtable"  } ['haln' ('tml2' <'dflt' > ) ]
Lookup: 4 0 0 "'haln' Halant Forms in Tamil lookup 4" { "'haln' Halant Forms in Tamil lookup 4 subtable"  } ['haln' ('taml' <'dflt' > ) ]
Lookup: 4 0 0 "'abvs' Above Base Substitutions lookup 5" { "'abvs' Above Base Substitutions lookup 5 subtable"  } ['abvs' ('taml' <'dflt' > 'tml2' <'dflt' > ) ]

StartChar: .notdef
Encoding: 65536 -1 0
Width: 1600
Flags: W
LayerCount: 2
Fore
SplineSet
100 0 m 1,0,-1
 100 1600 l 1,1,-1
 1500 1600 l 1,2,-1
 1500 0 l 1,3,-1
 100 0 l 1,0,-1
1400 100 m 1,4,-1
 1400 1500 l 1,5,-1
 200 1500 l 1,6,-1
 200 100 l 1,7,-1
 1400 100 l 1,4,-1
EndSplineSet
EndChar

StartChar: exclam
Encoding: 33 33 4
Width: 612
GlyphClass: 2
Flags: W
LayerCount: 2
Fore
SplineSet
306 -16 m 0,0,1
 250 -16 250 -16 190 69 c 128,-1,2
 130 154 130 154 130 240 c 0,3,4
 130 272 130 272 156 296 c 128,-1,5
 182 320 182 320 218 320 c 2,6,-1
 386 320 l 2,7,8
 426 320 426 320 454 294 c 128,-1,9
 482 268 482 268 482 232 c 0,10,11
 482 162 482 162 420 73 c 128,-1,12
 358 -16 358 -16 306 -16 c 0,0,1
210 384 m 1,13,-1
 210 1136 l 1,14,-1
 434 1136 l 1,15,-1
 434 480 l 1,16,-1
 210 384 l 1,13,-1
EndSplineSet
EndChar

StartChar: quotedbl
Encoding: 34 34 5
Width: 710
GlyphClass: 2
Flags: W
LayerCount: 2
Fore
SplineSet
140 924 m 1,0,-1
 92 1198 l 1,1,-1
 92 1432 l 1,2,-1
 292 1432 l 1,3,-1
 292 1198 l 1,4,-1
 248 924 l 1,5,-1
 140 924 l 1,0,-1
464 924 m 1,6,-1
 416 1198 l 1,7,-1
 416 1432 l 1,8,-1
 616 1432 l 1,9,-1
 616 1198 l 1,10,-1
 570 924 l 1,11,-1
 464 924 l 1,6,-1
EndSplineSet
EndChar

StartChar: numbersign
Encoding: 35 35 6
Width: 1112
GlyphClass: 2
Flags: W
LayerCount: 2
Fore
SplineSet
100 -24 m 1,0,-1
 186 392 l 1,1,-1
 20 392 l 1,2,-1
 20 538 l 1,3,-1
 214 538 l 1,4,-1
 288 892 l 1,5,-1
 20 892 l 1,6,-1
 20 1038 l 1,7,-1
 316 1038 l 1,8,-1
 402 1456 l 1,9,-1
 548 1456 l 1,10,-1
 462 1038 l 1,11,-1
 770 1038 l 1,12,-1
 856 1456 l 1,13,-1
 1002 1456 l 1,14,-1
 918 1038 l 1,15,-1
 1086 1038 l 1,16,-1
 1086 892 l 1,17,-1
 888 892 l 1,18,-1
 816 538 l 1,19,-1
 1086 538 l 1,20,-1
 1086 392 l 1,21,-1
 786 392 l 1,22,-1
 702 -24 l 1,23,-1
 554 -24 l 1,24,-1
 638 392 l 1,25,-1
 332 392 l 1,26,-1
 248 -24 l 1,27,-1
 100 -24 l 1,0,-1
362 538 m 1,28,-1
 668 538 l 1,29,-1
 742 892 l 1,30,-1
 434 892 l 1,31,-1
 362 538 l 1,28,-1
EndSplineSet
EndChar

StartChar: dollar
Encoding: 36 36 7
Width: 1112
GlyphClass: 2
Flags: W
LayerCount: 2
Fore
SplineSet
498 -206 m 1,0,-1
 498 -30 l 1,1,2
 370 -18 370 -18 289 24 c 128,-1,3
 208 66 208 66 140 166 c 0,4,5
 86 252 86 252 72 398 c 1,6,-1
 248 430 l 1,7,8
 266 298 266 298 320 222 c 1,9,10
 392 132 392 132 498 118 c 1,11,-1
 498 678 l 1,12,13
 446 684 446 684 391 706 c 128,-1,14
 336 728 336 728 276 762 c 0,15,16
 202 804 202 804 146 892 c 1,17,-1
 114 980 l 1,18,19
 102 1028 102 1028 102 1080 c 0,20,21
 102 1260 102 1260 234 1384 c 1,22,23
 318 1456 318 1456 498 1480 c 1,24,-1
 498 1564 l 1,25,-1
 602 1564 l 1,26,-1
 602 1480 l 1,27,28
 674 1480 674 1480 732 1458 c 128,-1,29
 790 1436 790 1436 844 1390 c 0,30,31
 954 1296 954 1296 984 1126 c 1,32,-1
 802 1100 l 1,33,34
 790 1200 790 1200 736 1256 c 1,35,36
 692 1308 692 1308 602 1332 c 1,37,-1
 602 824 l 1,38,39
 748 790 748 790 778 772 c 1,40,41
 856 742 856 742 908 689 c 128,-1,42
 960 636 960 636 989 561 c 128,-1,43
 1018 486 1018 486 1018 408 c 0,44,45
 1018 224 1018 224 902 102 c 0,46,47
 848 42 848 42 768 7 c 128,-1,48
 688 -28 688 -28 602 -28 c 1,49,-1
 602 -206 l 1,50,-1
 498 -206 l 1,0,-1
498 1334 m 1,51,52
 396 1322 396 1322 336 1250 c 1,53,54
 278 1188 278 1188 278 1094 c 0,55,56
 278 1008 278 1008 326 942 c 1,57,58
 374 884 374 884 498 846 c 1,59,-1
 498 1334 l 1,51,52
602 118 m 1,60,61
 704 130 704 130 771 207 c 128,-1,62
 838 284 838 284 838 396 c 0,63,64
 838 486 838 486 793 543 c 128,-1,65
 748 600 748 600 602 654 c 1,66,-1
 602 118 l 1,60,61
EndSplineSet
EndChar

StartChar: percent
Encoding: 37 37 8
Width: 1778
GlyphClass: 2
Flags: W
LayerCount: 2
Fore
SplineSet
116 1088 m 0,0,1
 116 1240 116 1240 193 1348 c 128,-1,2
 270 1456 270 1456 416 1456 c 0,3,4
 548 1456 548 1456 638 1359 c 128,-1,5
 728 1262 728 1262 728 1078 c 0,6,7
 728 900 728 900 639 800 c 128,-1,8
 550 700 550 700 418 700 c 0,9,10
 292 700 292 700 202 796 c 0,11,12
 164 840 164 840 138 916 c 0,13,14
 128 950 128 950 122 993 c 128,-1,15
 116 1036 116 1036 116 1088 c 0,0,1
422 1334 m 0,16,17
 356 1334 356 1334 313 1279 c 128,-1,18
 270 1224 270 1224 270 1070 c 0,19,20
 270 936 270 936 312 876 c 0,21,22
 356 820 356 820 422 820 c 256,23,24
 488 820 488 820 532 880 c 128,-1,25
 576 940 576 940 576 1084 c 0,26,27
 576 1218 576 1218 533 1276 c 128,-1,28
 490 1334 490 1334 422 1334 c 0,16,17
422 -52 m 1,29,-1
 1206 1456 l 1,30,-1
 1348 1456 l 1,31,-1
 568 -52 l 1,32,-1
 422 -52 l 1,29,-1
1042 336 m 0,33,34
 1042 490 1042 490 1119 597 c 128,-1,35
 1196 704 1196 704 1344 704 c 0,36,37
 1476 704 1476 704 1566 608 c 128,-1,38
 1656 512 1656 512 1656 326 c 0,39,40
 1656 148 1656 148 1565 48 c 128,-1,41
 1474 -52 1474 -52 1344 -52 c 0,42,43
 1218 -52 1218 -52 1128 44 c 0,44,45
 1090 88 1090 88 1064 164 c 0,46,47
 1054 198 1054 198 1048 241 c 128,-1,48
 1042 284 1042 284 1042 336 c 0,33,34
1348 584 m 0,49,50
 1284 584 1284 584 1240 528 c 128,-1,51
 1196 472 1196 472 1196 318 c 0,52,53
 1196 188 1196 188 1238 124 c 1,54,55
 1282 68 1282 68 1348 68 c 256,56,57
 1414 68 1414 68 1458 124 c 128,-1,58
 1502 180 1502 180 1502 332 c 0,59,60
 1502 472 1502 472 1456 526 c 1,61,62
 1414 584 1414 584 1348 584 c 0,49,50
EndSplineSet
EndChar

StartChar: ampersand
Encoding: 38 38 9
Width: 1334
GlyphClass: 2
Flags: W
LayerCount: 2
Fore
SplineSet
950 168 m 1,0,1
 864 70 864 70 761 23 c 128,-1,2
 658 -24 658 -24 540 -24 c 0,3,4
 318 -24 318 -24 190 124 c 0,5,6
 86 246 86 246 86 394 c 0,7,8
 86 526 86 526 170 634 c 128,-1,9
 254 742 254 742 426 822 c 1,10,11
 338 926 338 926 298 998 c 1,12,13
 266 1074 266 1074 266 1136 c 0,14,15
 266 1266 266 1266 367 1361 c 128,-1,16
 468 1456 468 1456 622 1456 c 0,17,18
 762 1456 762 1456 858 1366 c 128,-1,19
 954 1276 954 1276 954 1150 c 0,20,21
 954 946 954 946 684 802 c 1,22,-1
 940 474 l 1,23,24
 978 552 978 552 1008 674 c 1,25,-1
 1192 634 l 1,26,27
 1144 448 1144 448 1064 326 c 1,28,29
 1160 200 1160 200 1288 106 c 1,30,-1
 1170 -34 l 1,31,32
 1068 32 1068 32 950 168 c 1,0,1
592 916 m 1,33,34
 702 978 702 978 738 1031 c 128,-1,35
 774 1084 774 1084 774 1146 c 0,36,37
 774 1218 774 1218 728 1265 c 128,-1,38
 682 1312 682 1312 612 1312 c 0,39,40
 544 1312 544 1312 495 1266 c 128,-1,41
 446 1220 446 1220 446 1154 c 1,42,-1
 448 1122 l 1,43,-1
 460 1090 l 1,44,-1
 482 1048 l 1,45,-1
 514 1006 l 1,46,-1
 592 916 l 1,33,34
840 308 m 1,47,-1
 518 708 l 1,48,49
 374 622 374 622 326 548 c 0,50,51
 304 514 304 514 290 477 c 128,-1,52
 276 440 276 440 276 406 c 0,53,54
 276 318 276 318 345 224 c 128,-1,55
 414 130 414 130 542 130 c 0,56,57
 620 130 620 130 703 178 c 128,-1,58
 786 226 786 226 840 308 c 1,47,-1
EndSplineSet
EndChar

StartChar: quotesingle
Encoding: 39 39 10
Width: 382
GlyphClass: 2
Flags: W
LayerCount: 2
Fore
SplineSet
132 924 m 1,0,-1
 88 1192 l 1,1,-1
 88 1432 l 1,2,-1
 288 1432 l 1,3,-1
 288 1192 l 1,4,-1
 242 924 l 1,5,-1
 132 924 l 1,0,-1
EndSplineSet
EndChar

StartChar: parenleft
Encoding: 40 40 11
Width: 676
GlyphClass: 2
Flags: W
LayerCount: 2
Fore
SplineSet
546 -224 m 1,0,-1
 306 -224 l 2,1,2
 226 -224 226 -224 178 -168 c 128,-1,3
 130 -112 130 -112 130 -24 c 2,4,-1
 130 1056 l 2,5,6
 130 1122 130 1122 175 1169 c 128,-1,7
 220 1216 220 1216 282 1216 c 2,8,-1
 546 1216 l 1,9,-1
 546 1056 l 1,10,-1
 418 1056 l 2,11,12
 390 1056 390 1056 372 1036 c 128,-1,13
 354 1016 354 1016 354 984 c 2,14,-1
 354 24 l 2,15,16
 354 -14 354 -14 375 -39 c 128,-1,17
 396 -64 396 -64 426 -64 c 2,18,-1
 546 -64 l 1,19,-1
 546 -224 l 1,0,-1
EndSplineSet
EndChar

StartChar: parenright
Encoding: 41 41 12
Width: 676
GlyphClass: 2
Flags: W
LayerCount: 2
Fore
SplineSet
130 -224 m 1,0,-1
 130 -64 l 1,1,-1
 250 -64 l 2,2,3
 278 -64 278 -64 300 -35 c 128,-1,4
 322 -6 322 -6 322 32 c 2,5,-1
 322 968 l 2,6,7
 322 1000 322 1000 303 1027 c 128,-1,8
 284 1054 284 1054 258 1056 c 2,9,-1
 130 1056 l 1,10,-1
 130 1216 l 1,11,-1
 394 1216 l 2,12,13
 458 1216 458 1216 502 1170 c 128,-1,14
 546 1124 546 1124 546 1056 c 2,15,-1
 546 -24 l 2,16,17
 546 -112 546 -112 500 -168 c 128,-1,18
 454 -224 454 -224 370 -224 c 2,19,-1
 130 -224 l 1,0,-1
EndSplineSet
EndChar

StartChar: asterisk
Encoding: 42 42 13
Width: 778
GlyphClass: 2
Flags: W
LayerCount: 2
Fore
SplineSet
62 1168 m 1,0,-1
 108 1308 l 1,1,2
 254 1258 254 1258 334 1212 c 1,3,-1
 314 1456 l 1,4,-1
 456 1456 l 1,5,-1
 456 1388 l 1,6,-1
 448 1342 l 1,7,-1
 432 1214 l 1,8,-1
 534 1260 l 1,9,-1
 664 1308 l 1,10,-1
 708 1168 l 1,11,12
 586 1132 586 1132 464 1114 c 1,13,14
 530 1058 530 1058 632 930 c 1,15,-1
 516 846 l 1,16,17
 466 912 466 912 382 1056 c 1,18,19
 308 916 308 916 254 846 c 1,20,-1
 140 930 l 1,21,22
 200 1004 200 1004 232 1040 c 128,-1,23
 264 1076 264 1076 302 1114 c 1,24,25
 176 1138 176 1138 62 1168 c 1,0,-1
EndSplineSet
EndChar

StartChar: plus
Encoding: 43 43 14
Width: 1168
GlyphClass: 2
Flags: W
LayerCount: 2
Fore
SplineSet
500 232 m 1,0,-1
 500 624 l 1,1,-1
 112 624 l 1,2,-1
 112 788 l 1,3,-1
 500 788 l 1,4,-1
 500 1178 l 1,5,-1
 666 1178 l 1,6,-1
 666 788 l 1,7,-1
 1056 788 l 1,8,-1
 1056 624 l 1,9,-1
 666 624 l 1,10,-1
 666 232 l 1,11,-1
 500 232 l 1,0,-1
EndSplineSet
EndChar

StartChar: comma
Encoding: 44 44 15
Width: 660
GlyphClass: 2
Flags: W
LayerCount: 2
Fore
SplineSet
306 -280 m 1,0,-1
 138 -200 l 1,1,-1
 322 0 l 1,2,-1
 226 0 l 2,3,4
 210 2 210 2 190 30 c 0,5,6
 180 44 180 44 166 70 c 0,7,8
 130 140 130 140 130 192 c 0,9,10
 130 226 130 226 153 249 c 128,-1,11
 176 272 176 272 210 272 c 2,12,-1
 466 272 l 2,13,14
 494 272 494 272 512 252 c 128,-1,15
 530 232 530 232 530 200 c 2,16,-1
 530 48 l 2,17,18
 530 -36 530 -36 466 -112 c 1,19,-1
 306 -280 l 1,0,-1
EndSplineSet
EndChar

StartChar: hyphen
Encoding: 45 45 16
Width: 666
GlyphClass: 2
Flags: W
LayerCount: 2
Fore
SplineSet
64 430 m 1,0,-1
 64 606 l 1,1,-1
 604 606 l 1,2,-1
 604 430 l 1,3,-1
 64 430 l 1,0,-1
EndSplineSet
EndChar

StartChar: period
Encoding: 46 46 17
Width: 676
GlyphClass: 2
Flags: W
LayerCount: 2
Fore
SplineSet
338 -16 m 0,0,1
 270 -16 270 -16 200 80 c 128,-1,2
 130 176 130 176 130 256 c 0,3,4
 130 296 130 296 160 324 c 128,-1,5
 190 352 190 352 234 352 c 2,6,-1
 434 352 l 2,7,8
 482 352 482 352 514 322 c 128,-1,9
 546 292 546 292 546 248 c 0,10,11
 546 174 546 174 473 79 c 128,-1,12
 400 -16 400 -16 338 -16 c 0,0,1
EndSplineSet
EndChar

StartChar: slash
Encoding: 47 47 18
Width: 1196
GlyphClass: 2
Flags: W
LayerCount: 2
Fore
SplineSet
266 -258 m 1,0,-1
 130 -194 l 1,1,-1
 938 1182 l 1,2,-1
 1066 1120 l 1,3,-1
 266 -258 l 1,0,-1
EndSplineSet
EndChar

StartChar: zero
Encoding: 48 48 19
Width: 993
GlyphClass: 2
Flags: W
LayerCount: 2
Fore
SplineSet
395 0 m 2,0,1
 363 0 363 0 328 47 c 128,-1,2
 293 94 293 94 273 166 c 2,3,-1
 157 556 l 2,4,5
 132 648 132 648 119 707 c 128,-1,6
 106 766 106 766 106 794 c 0,7,8
 106 872 106 872 161.5 927 c 128,-1,9
 217 982 217 982 294 982 c 2,10,-1
 728 982 l 2,11,12
 792 982 792 982 839 931.5 c 128,-1,13
 886 881 886 881 886 808 c 0,14,15
 886 766 886 766 828 549 c 2,16,-1
 712 144 l 2,17,18
 694 78 694 78 667 39 c 128,-1,19
 640 0 640 0 612 0 c 2,20,-1
 395 0 l 2,0,1
489 217 m 2,21,-1
 518 217 l 2,22,23
 532 217 532 217 543 244 c 128,-1,24
 554 271 554 271 568 325 c 2,25,-1
 634 570 l 2,26,27
 655 650 655 650 655 708 c 0,28,29
 655 746 655 746 636 770 c 128,-1,30
 617 794 617 794 590 794 c 2,31,-1
 424 794 l 2,32,33
 385 794 385 794 358 769 c 128,-1,34
 331 744 331 744 331 708 c 0,35,36
 331 674 331 674 367 534 c 1,37,-1
 431 311 l 2,38,39
 455 217 455 217 489 217 c 2,21,-1
EndSplineSet
EndChar

StartChar: one
Encoding: 49 49 20
Width: 993
GlyphClass: 2
Flags: W
LayerCount: 2
Fore
SplineSet
554 0 m 1,0,-1
 554 693 l 1,1,-1
 409 505 l 1,2,-1
 237 606 l 1,3,-1
 554 1011 l 1,4,-1
 756 1011 l 1,5,-1
 756 0 l 1,6,-1
 554 0 l 1,0,-1
EndSplineSet
EndChar

StartChar: two
Encoding: 50 50 21
Width: 993
GlyphClass: 2
Flags: W
LayerCount: 2
Fore
SplineSet
114 0 m 1,0,-1
 114 204 l 1,1,-1
 576 662 l 2,2,3
 617 704 617 704 639.5 746 c 128,-1,4
 662 788 662 788 662 830 c 0,5,6
 662 866 662 866 626 866 c 2,7,-1
 395 866 l 2,8,9
 359 866 359 866 359 830 c 0,10,11
 361 820 361 820 383 793.5 c 128,-1,12
 405 767 405 767 424 744 c 1,13,-1
 273 614 l 1,14,-1
 171 750 l 1,15,16
 121 838 121 838 121 895 c 0,17,18
 121 942 121 942 159 976.5 c 128,-1,19
 197 1011 197 1011 251 1011 c 2,20,-1
 706 1011 l 2,21,22
 778 1011 778 1011 828.5 960.5 c 128,-1,23
 879 910 879 910 879 838 c 0,24,25
 879 734 879 734 728 578 c 2,26,-1
 309 144 l 1,27,-1
 864 144 l 1,28,-1
 864 0 l 1,29,-1
 114 0 l 1,0,-1
EndSplineSet
EndChar

StartChar: three
Encoding: 51 51 22
Width: 993
GlyphClass: 2
Flags: W
LayerCount: 2
Fore
SplineSet
269 0 m 2,0,1
 222 0 222 0 187.5 40 c 128,-1,2
 153 80 153 80 153 137 c 2,3,-1
 153 405 l 1,4,-1
 341 405 l 1,5,-1
 341 202 l 2,6,7
 341 177 341 177 364 160.5 c 128,-1,8
 387 144 387 144 421 144 c 2,9,-1
 572 144 l 2,10,11
 601 144 601 144 622.5 167.5 c 128,-1,12
 644 191 644 191 644 224 c 2,13,-1
 644 361 l 2,14,15
 644 419 644 419 601 419 c 2,16,-1
 442 419 l 1,17,-1
 442 563 l 1,18,-1
 572 563 l 2,19,20
 603 563 603 563 623.5 582 c 128,-1,21
 644 601 644 601 644 628 c 2,22,-1
 644 794 l 2,23,24
 644 825 644 825 625 845.5 c 128,-1,25
 606 866 606 866 579 866 c 2,26,-1
 413 866 l 2,27,28
 355 866 355 866 355 823 c 0,29,30
 355 794 355 794 457 693 c 1,31,-1
 297 621 l 1,32,-1
 225 708 l 2,33,34
 146 802 146 802 146 874 c 0,35,36
 146 931 146 931 187.5 971 c 128,-1,37
 229 1011 229 1011 291 1011 c 2,38,-1
 688 1011 l 2,39,40
 752 1011 752 1011 799 971 c 128,-1,41
 846 931 846 931 846 874 c 2,42,-1
 846 650 l 2,43,44
 846 594 846 594 806.5 552.5 c 128,-1,45
 767 511 767 511 710 505 c 1,46,47
 769 491 769 491 807.5 448.5 c 128,-1,48
 846 406 846 406 846 353 c 2,49,-1
 846 137 l 2,50,51
 846 80 846 80 808 40 c 128,-1,52
 770 0 770 0 716 0 c 2,53,-1
 269 0 l 2,0,1
EndSplineSet
EndChar

StartChar: four
Encoding: 52 52 23
Width: 993
GlyphClass: 2
Flags: W
LayerCount: 2
Fore
SplineSet
554 -130 m 1,0,-1
 554 245 l 1,1,-1
 193 245 l 2,2,3
 137 245 137 245 100 274 c 128,-1,4
 63 303 63 303 63 347 c 2,5,-1
 63 527 l 2,6,7
 63 590 63 590 157 700 c 2,8,-1
 451 1051 l 1,9,-1
 598 935 l 1,10,-1
 327 616 l 2,11,12
 265 540 265 540 265 441 c 0,13,14
 265 419 265 419 279.5 404 c 128,-1,15
 294 389 294 389 315 389 c 2,16,-1
 554 389 l 1,17,-1
 554 606 l 1,18,-1
 756 606 l 1,19,-1
 756 389 l 1,20,-1
 929 389 l 1,21,-1
 929 245 l 1,22,-1
 756 245 l 1,23,-1
 756 -44 l 1,24,-1
 554 -130 l 1,0,-1
EndSplineSet
EndChar

StartChar: five
Encoding: 53 53 24
Width: 993
GlyphClass: 2
Flags: W
LayerCount: 2
Fore
SplineSet
121 0 m 1,0,-1
 121 144 l 1,1,-1
 574 144 l 1,2,3
 604 148 604 148 640 240 c 128,-1,4
 676 332 676 332 676 419 c 0,5,6
 676 449 676 449 652 470 c 128,-1,7
 628 491 628 491 594 491 c 2,8,-1
 179 491 l 2,9,10
 153 491 153 491 137 509 c 128,-1,11
 121 527 121 527 121 556 c 0,12,13
 121 603 121 603 150 708 c 2,14,-1
 193 866 l 2,15,16
 209 931 209 931 245 971 c 128,-1,17
 281 1011 281 1011 323 1011 c 2,18,-1
 800 1011 l 1,19,-1
 872 866 l 1,20,-1
 411 866 l 2,21,22
 381 866 381 866 355 770 c 0,23,24
 341 714 341 714 319 636 c 1,25,-1
 720 636 l 2,26,27
 780 636 780 636 822 597 c 128,-1,28
 864 558 864 558 864 505 c 0,29,30
 864 323 864 323 802 161.5 c 128,-1,31
 740 0 740 0 670 0 c 2,32,-1
 121 0 l 1,0,-1
EndSplineSet
EndChar

StartChar: six
Encoding: 54 54 25
Width: 993
GlyphClass: 2
Flags: W
LayerCount: 2
Fore
SplineSet
367 0 m 2,0,1
 314 0 314 0 271.5 54 c 128,-1,2
 229 108 229 108 213 195 c 2,3,-1
 126 693 l 2,4,5
 112 780 112 780 112 881 c 0,6,7
 112 940 112 940 154.5 982.5 c 128,-1,8
 197 1025 197 1025 258 1025 c 2,9,-1
 890 1025 l 1,10,-1
 796 881 l 1,11,-1
 399 881 l 2,12,13
 359 881 359 881 332 857.5 c 128,-1,14
 305 834 305 834 305 802 c 0,15,16
 305 749 305 749 333 592 c 2,17,-1
 391 245 l 2,18,19
 401 200 401 200 418 172 c 128,-1,20
 435 144 435 144 457 144 c 2,21,-1
 543 144 l 2,22,23
 606 144 606 144 624 200 c 2,24,-1
 680 409 l 2,25,26
 684 424 684 424 684 429 c 0,27,28
 684 455 684 455 666 473 c 128,-1,29
 648 491 648 491 622 491 c 2,30,-1
 427 491 l 1,31,-1
 427 621 l 1,32,-1
 782 621 l 2,33,34
 826 621 826 621 858 589.5 c 128,-1,35
 890 558 890 558 890 513 c 0,36,37
 890 480 890 480 861 375 c 2,38,-1
 788 130 l 2,39,40
 774 72 774 72 743 36 c 128,-1,41
 712 0 712 0 680 0 c 2,42,-1
 367 0 l 2,0,1
EndSplineSet
EndChar

StartChar: seven
Encoding: 55 55 26
Width: 993
GlyphClass: 2
Flags: W
LayerCount: 2
Fore
SplineSet
255 -130 m 1,0,-1
 255 159 l 2,1,2
 255 260 255 260 327 347 c 1,3,-1
 601 744 l 2,4,5
 644 807 644 807 644 845 c 0,6,7
 644 881 644 881 608 881 c 2,8,-1
 370 881 l 2,9,10
 341 881 341 881 341 852 c 0,11,12
 345 821 345 821 391 736 c 1,13,-1
 218 621 l 1,14,15
 103 821 103 821 103 910 c 0,16,17
 103 965 103 965 138 1002 c 128,-1,18
 173 1039 173 1039 225 1039 c 2,19,-1
 746 1039 l 2,20,21
 805 1039 805 1039 847.5 997 c 128,-1,22
 890 955 890 955 890 895 c 0,23,24
 890 839 890 839 818 736 c 2,25,-1
 529 303 l 2,26,27
 457 200 457 200 457 144 c 2,28,-1
 457 -14 l 1,29,-1
 255 -130 l 1,0,-1
EndSplineSet
EndChar

StartChar: eight
Encoding: 56 56 27
Width: 993
GlyphClass: 2
Flags: W
LayerCount: 2
Fore
SplineSet
229 0 m 2,0,1
 184 0 184 0 152.5 35 c 128,-1,2
 121 70 121 70 121 123 c 2,3,-1
 121 260 l 2,4,5
 121 377 121 377 251 469 c 1,6,-1
 561 744 l 2,7,8
 626 800 626 800 626 830 c 0,9,10
 622 866 622 866 583 866 c 2,11,-1
 431 866 l 2,12,13
 409 866 409 866 395 855.5 c 128,-1,14
 381 845 381 845 381 830 c 0,15,16
 379 807 379 807 424 730 c 1,17,-1
 251 592 l 1,18,-1
 179 730 l 1,19,20
 128 839 128 839 128 902 c 0,21,22
 128 953 128 953 166 989 c 128,-1,23
 204 1025 204 1025 258 1025 c 2,24,-1
 728 1025 l 2,25,26
 787 1025 787 1025 829.5 984.5 c 128,-1,27
 872 944 872 944 872 888 c 0,28,29
 872 778 872 778 742 672 c 1,30,-1
 367 332 l 2,31,32
 309 279 309 279 309 245 c 2,33,-1
 309 195 l 1,34,35
 313 159 313 159 351 159 c 2,36,-1
 568 159 l 2,37,38
 594 159 594 159 610 173.5 c 128,-1,39
 626 188 626 188 626 209 c 2,40,-1
 626 296 l 2,41,42
 626 343 626 343 540 405 c 1,43,-1
 684 534 l 1,44,45
 828 413 828 413 828 347 c 2,46,-1
 828 130 l 2,47,48
 828 76 828 76 794 38 c 128,-1,49
 760 0 760 0 712 0 c 2,50,-1
 229 0 l 2,0,1
EndSplineSet
EndChar

StartChar: nine
Encoding: 57 57 28
Width: 993
GlyphClass: 2
Flags: W
LayerCount: 2
Fore
SplineSet
99 0 m 1,0,-1
 193 144 l 1,1,-1
 518 144 l 2,2,3
 541 144 541 144 564.5 176.5 c 128,-1,4
 588 209 588 209 598 260 c 2,5,-1
 692 794 l 2,6,7
 694 808 694 808 694 816 c 0,8,9
 694 841 694 841 676 861 c 128,-1,10
 658 881 658 881 634 881 c 2,11,-1
 359 881 l 2,12,13
 332 881 332 881 313 862 c 128,-1,14
 294 843 294 843 294 816 c 0,15,16
 296 800 296 800 297.5 787 c 128,-1,17
 299 774 299 774 309 736 c 2,18,-1
 337 599 l 2,19,20
 351 534 351 534 381 534 c 2,21,-1
 561 534 l 1,22,-1
 561 405 l 1,23,-1
 293 405 l 2,24,25
 247 405 247 405 210 440 c 128,-1,26
 173 475 173 475 162 527 c 2,27,-1
 114 816 l 1,28,29
 106 836 106 836 106 910 c 0,30,31
 106 957 106 957 140.5 991 c 128,-1,32
 175 1025 175 1025 222 1025 c 2,33,-1
 756 1025 l 2,34,35
 814 1025 814 1025 853.5 983.5 c 128,-1,36
 893 942 893 942 893 881 c 0,37,38
 893 852 893 852 879 766 c 2,39,-1
 778 238 l 2,40,41
 758 135 758 135 714 67.5 c 128,-1,42
 670 0 670 0 619 0 c 2,43,-1
 99 0 l 1,0,-1
EndSplineSet
EndChar

StartChar: colon
Encoding: 58 58 29
Width: 644
GlyphClass: 2
Flags: W
LayerCount: 2
Fore
SplineSet
322 -16 m 0,0,1
 294 -16 294 -16 261 9 c 128,-1,2
 228 34 228 34 196 78 c 0,3,4
 130 176 130 176 130 256 c 0,5,6
 130 284 130 284 155 302 c 128,-1,7
 180 320 180 320 218 320 c 2,8,-1
 418 320 l 2,9,10
 460 320 460 320 487 299 c 128,-1,11
 514 278 514 278 514 248 c 0,12,13
 514 170 514 170 446 77 c 128,-1,14
 378 -16 378 -16 322 -16 c 0,0,1
322 544 m 0,15,16
 294 544 294 544 261 569 c 128,-1,17
 228 594 228 594 196 638 c 0,18,19
 130 736 130 736 130 816 c 0,20,21
 130 844 130 844 155 862 c 128,-1,22
 180 880 180 880 218 880 c 2,23,-1
 418 880 l 2,24,25
 460 880 460 880 487 859 c 128,-1,26
 514 838 514 838 514 808 c 0,27,28
 514 730 514 730 446 637 c 128,-1,29
 378 544 378 544 322 544 c 0,15,16
EndSplineSet
EndChar

StartChar: semicolon
Encoding: 59 59 30
Width: 692
GlyphClass: 2
Flags: W
LayerCount: 2
Fore
SplineSet
306 -280 m 1,0,-1
 138 -200 l 1,1,-1
 322 0 l 1,2,-1
 226 0 l 2,3,4
 210 2 210 2 190 30 c 0,5,6
 180 44 180 44 166 70 c 0,7,8
 130 140 130 140 130 192 c 0,9,10
 130 226 130 226 153 249 c 128,-1,11
 176 272 176 272 210 272 c 2,12,-1
 466 272 l 2,13,14
 494 272 494 272 512 252 c 128,-1,15
 530 232 530 232 530 200 c 2,16,-1
 530 48 l 2,17,18
 530 -36 530 -36 466 -112 c 1,19,-1
 306 -280 l 1,0,-1
354 384 m 0,20,21
 286 384 286 384 216 480 c 128,-1,22
 146 576 146 576 146 656 c 0,23,24
 146 696 146 696 176 724 c 128,-1,25
 206 752 206 752 250 752 c 2,26,-1
 450 752 l 2,27,28
 498 752 498 752 530 722 c 128,-1,29
 562 692 562 692 562 648 c 0,30,31
 562 574 562 574 489 479 c 128,-1,32
 416 384 416 384 354 384 c 0,20,21
EndSplineSet
EndChar

StartChar: less
Encoding: 60 60 31
Width: 1168
GlyphClass: 2
Flags: W
LayerCount: 2
Fore
SplineSet
110 626 m 1,0,-1
 110 790 l 1,1,-1
 1058 1190 l 1,2,-1
 1058 1016 l 1,3,-1
 306 708 l 1,4,-1
 1058 396 l 1,5,-1
 1058 220 l 1,6,-1
 110 626 l 1,0,-1
EndSplineSet
EndChar

StartChar: equal
Encoding: 61 61 32
Width: 740
GlyphClass: 2
Flags: W
LayerCount: 2
Fore
SplineSet
130 232 m 1,0,-1
 130 376 l 1,1,-1
 610 376 l 1,2,-1
 610 232 l 1,3,-1
 130 232 l 1,0,-1
130 512 m 1,4,-1
 130 656 l 1,5,-1
 610 656 l 1,6,-1
 610 512 l 1,7,-1
 130 512 l 1,4,-1
EndSplineSet
EndChar

StartChar: greater
Encoding: 62 62 33
Width: 1168
GlyphClass: 2
Flags: W
LayerCount: 2
Fore
SplineSet
1058 626 m 1,0,-1
 110 220 l 1,1,-1
 110 396 l 1,2,-1
 860 708 l 1,3,-1
 110 1016 l 1,4,-1
 110 1190 l 1,5,-1
 1058 790 l 1,6,-1
 1058 626 l 1,0,-1
EndSplineSet
EndChar

StartChar: question
Encoding: 63 63 34
Width: 1100
GlyphClass: 2
Flags: W
LayerCount: 2
Fore
SplineSet
378 320 m 1,0,-1
 378 592 l 1,1,-1
 634 808 l 2,2,3
 730 892 730 892 730 952 c 0,4,5
 730 1000 730 1000 690 1000 c 2,6,-1
 434 1000 l 2,7,8
 394 1000 394 1000 394 960 c 0,9,10
 394 936 394 936 474 840 c 1,11,-1
 266 760 l 1,12,-1
 186 880 l 1,13,14
 130 980 130 980 130 1032 c 256,15,16
 130 1084 130 1084 172 1122 c 128,-1,17
 214 1160 214 1160 274 1160 c 2,18,-1
 778 1160 l 2,19,20
 858 1160 858 1160 914 1100 c 128,-1,21
 970 1040 970 1040 970 952 c 0,22,23
 970 806 970 806 818 680 c 1,24,-1
 618 504 l 1,25,-1
 618 416 l 1,26,-1
 378 320 l 1,0,-1
498 -56 m 0,27,28
 438 -56 438 -56 368 24 c 128,-1,29
 298 104 298 104 298 176 c 0,30,31
 298 212 298 212 326 238 c 128,-1,32
 354 264 354 264 394 264 c 2,33,-1
 578 264 l 2,34,35
 622 264 622 264 652 238 c 128,-1,36
 682 212 682 212 682 176 c 0,37,38
 682 110 682 110 617 27 c 128,-1,39
 552 -56 552 -56 498 -56 c 0,27,28
EndSplineSet
EndChar

StartChar: at
Encoding: 64 64 35
Width: 2030
GlyphClass: 2
Flags: W
LayerCount: 2
Fore
SplineSet
1134 160 m 1,0,1
 1082 96 1082 96 999 47 c 128,-1,2
 916 -2 916 -2 834 -2 c 0,3,4
 746 -2 746 -2 666 47 c 128,-1,5
 586 96 586 96 533 206 c 128,-1,6
 480 316 480 316 480 436 c 0,7,8
 480 586 480 586 558 744 c 128,-1,9
 636 902 636 902 756 980 c 128,-1,10
 876 1058 876 1058 988 1058 c 0,11,12
 1078 1058 1078 1058 1150 1012 c 1,13,14
 1226 970 1226 970 1282 878 c 1,15,-1
 1316 1030 l 1,16,-1
 1490 1030 l 1,17,-1
 1350 376 l 1,18,-1
 1320 224 l 1,19,20
 1320 200 1320 200 1340 178 c 1,21,22
 1362 160 1362 160 1388 160 c 0,23,24
 1442 160 1442 160 1524 218 c 0,25,26
 1630 292 1630 292 1698 426 c 128,-1,27
 1766 560 1766 560 1766 700 c 0,28,29
 1766 858 1766 858 1682 1001 c 128,-1,30
 1598 1144 1598 1144 1432 1230 c 0,31,32
 1350 1272 1350 1272 1261 1294 c 128,-1,33
 1172 1316 1172 1316 1068 1316 c 0,34,35
 838 1316 838 1316 650 1210 c 128,-1,36
 462 1104 462 1104 357 898 c 128,-1,37
 252 692 252 692 252 474 c 0,38,39
 252 240 252 240 354 66 c 128,-1,40
 456 -108 456 -108 655 -192 c 128,-1,41
 854 -276 854 -276 1094 -276 c 0,42,43
 1346 -276 1346 -276 1517 -193 c 128,-1,44
 1688 -110 1688 -110 1782 18 c 1,45,-1
 1958 18 l 1,46,47
 1908 -88 1908 -88 1791 -190 c 128,-1,48
 1674 -292 1674 -292 1500 -358 c 0,49,50
 1426 -384 1426 -384 1316 -404 c 0,51,52
 1268 -412 1268 -412 1217 -416 c 128,-1,53
 1166 -420 1166 -420 1096 -420 c 0,54,55
 878 -420 878 -420 698 -365 c 128,-1,56
 518 -310 518 -310 390 -202 c 128,-1,57
 262 -94 262 -94 190 60 c 1,58,59
 108 248 108 248 108 458 c 0,60,61
 108 698 108 698 206 912 c 0,62,63
 326 1170 326 1170 543 1314 c 128,-1,64
 760 1458 760 1458 1076 1458 c 0,65,66
 1198 1458 1198 1458 1304 1434 c 128,-1,67
 1410 1410 1410 1410 1510 1358 c 0,68,69
 1702 1262 1702 1262 1816 1064 c 0,70,71
 1910 894 1910 894 1910 696 c 0,72,73
 1910 414 1910 414 1710 194 c 0,74,75
 1532 -4 1532 -4 1322 -4 c 2,76,-1
 1296 -4 l 1,77,-1
 1258 0 l 2,78,79
 1232 4 1232 4 1212 16 c 0,80,81
 1176 38 1176 38 1152 76 c 0,82,83
 1140 98 1140 98 1134 160 c 1,0,1
662 424 m 0,84,85
 662 292 662 292 724 217 c 128,-1,86
 786 142 786 142 870 142 c 0,87,88
 924 142 924 142 986 175 c 128,-1,89
 1048 208 1048 208 1100 272 c 1,90,91
 1154 332 1154 332 1190 434 c 128,-1,92
 1226 536 1226 536 1226 634 c 0,93,94
 1226 762 1226 762 1161 838 c 128,-1,95
 1096 914 1096 914 1000 914 c 0,96,97
 938 914 938 914 882 880 c 0,98,99
 826 850 826 850 779 782 c 128,-1,100
 732 714 732 714 692 606 c 1,101,102
 662 510 662 510 662 424 c 0,84,85
EndSplineSet
EndChar

StartChar: bracketleft
Encoding: 91 91 36
Width: 556
GlyphClass: 2
Flags: W
LayerCount: 2
Fore
SplineSet
136 -398 m 1,0,-1
 136 1432 l 1,1,-1
 524 1432 l 1,2,-1
 524 1286 l 1,3,-1
 312 1286 l 1,4,-1
 312 -252 l 1,5,-1
 524 -252 l 1,6,-1
 524 -398 l 1,7,-1
 136 -398 l 1,0,-1
EndSplineSet
EndChar

StartChar: backslash
Encoding: 92 92 37
Width: 556
GlyphClass: 2
Flags: W
LayerCount: 2
Fore
SplineSet
416 -24 m 1,0,-1
 0 1456 l 1,1,-1
 142 1456 l 1,2,-1
 556 -24 l 1,3,-1
 416 -24 l 1,0,-1
EndSplineSet
EndChar

StartChar: bracketright
Encoding: 93 93 38
Width: 556
GlyphClass: 2
Flags: W
LayerCount: 2
Fore
SplineSet
426 -398 m 1,0,-1
 38 -398 l 1,1,-1
 38 -252 l 1,2,-1
 250 -252 l 1,3,-1
 250 1286 l 1,4,-1
 38 1286 l 1,5,-1
 38 1432 l 1,6,-1
 426 1432 l 1,7,-1
 426 -398 l 1,0,-1
EndSplineSet
EndChar

StartChar: asciicircum
Encoding: 94 94 39
Width: 938
GlyphClass: 2
Flags: W
LayerCount: 2
Fore
SplineSet
234 674 m 1,0,-1
 52 674 l 1,1,-1
 398 1456 l 1,2,-1
 540 1456 l 1,3,-1
 886 674 l 1,4,-1
 708 674 l 1,5,-1
 468 1256 l 1,6,-1
 234 674 l 1,0,-1
EndSplineSet
EndChar

StartChar: underscore
Encoding: 95 95 40
Width: 1112
GlyphClass: 2
Flags: W
LayerCount: 2
Fore
SplineSet
-30 -398 m 1,0,-1
 -30 -270 l 1,1,-1
 1134 -270 l 1,2,-1
 1134 -398 l 1,3,-1
 -30 -398 l 1,0,-1
EndSplineSet
EndChar

StartChar: grave
Encoding: 96 96 41
Width: 384
GlyphClass: 2
Flags: W
LayerCount: 2
Fore
SplineSet
72 1092 m 1,0,1
 78 1118 78 1118 88 1132 c 128,-1,2
 98 1146 98 1146 118 1160 c 0,3,4
 126 1164 126 1164 135 1167 c 128,-1,5
 144 1170 144 1170 176 1176 c 1,6,-1
 254 1176 l 1,7,-1
 286 1170 l 1,8,-1
 312 1152 l 1,9,-1
 328 1126 l 2,10,11
 334 1114 334 1114 334 1098 c 0,12,13
 334 1074 334 1074 327 1053 c 128,-1,14
 320 1032 320 1032 298 1022 c 2,15,-1
 276 1010 l 1,16,-1
 256 1008 l 1,17,-1
 174 1008 l 1,18,-1
 164 1010 l 1,19,-1
 148 1014 l 1,20,-1
 134 1018 l 1,21,-1
 214 1018 l 1,22,-1
 218 1000 l 1,23,-1
 220 982 l 2,24,25
 220 970 220 970 230 954 c 2,26,-1
 248 922 l 1,27,-1
 268 894 l 1,28,-1
 294 870 l 1,29,-1
 320 846 l 1,30,-1
 348 822 l 1,31,-1
 314 784 l 1,32,-1
 234 784 l 1,33,-1
 176 834 l 1,34,-1
 124 890 l 2,35,36
 102 918 102 918 80 964 c 1,37,-1
 68 998 l 1,38,-1
 64 1038 l 2,39,40
 60 1070 60 1070 72 1092 c 1,0,1
EndSplineSet
EndChar

StartChar: braceleft
Encoding: 123 123 42
Width: 668
GlyphClass: 2
Flags: W
LayerCount: 2
Fore
SplineSet
56 598 m 1,0,1
 130 598 130 598 177 638 c 128,-1,2
 224 678 224 678 242 744 c 1,3,-1
 252 854 l 1,4,-1
 258 974 l 1,5,6
 258 1140 258 1140 264 1204 c 128,-1,7
 270 1268 270 1268 295 1318 c 128,-1,8
 320 1368 320 1368 352 1397 c 128,-1,9
 384 1426 384 1426 446 1446 c 1,10,11
 492 1456 492 1456 566 1456 c 2,12,-1
 622 1456 l 1,13,-1
 622 1302 l 1,14,-1
 590 1302 l 2,15,16
 492 1302 492 1302 454 1264 c 1,17,18
 422 1226 422 1226 422 1102 c 2,19,-1
 422 1042 l 1,20,-1
 422 994 l 1,21,-1
 422 956 l 1,22,-1
 422 924 l 1,23,-1
 422 898 l 1,24,-1
 420 824 l 2,25,26
 420 796 420 796 412 780 c 1,27,28
 394 680 394 680 352 624 c 128,-1,29
 310 568 310 568 218 518 c 1,30,31
 326 476 326 476 374 385 c 128,-1,32
 422 294 422 294 422 78 c 2,33,-1
 426 -148 l 1,34,35
 432 -214 432 -214 466 -242 c 1,36,-1
 506 -258 l 2,37,38
 540 -268 540 -268 590 -268 c 2,39,-1
 622 -268 l 1,40,-1
 622 -420 l 1,41,-1
 566 -420 l 2,42,43
 468 -420 468 -420 428 -406 c 0,44,45
 372 -384 372 -384 328 -334 c 0,46,47
 292 -292 292 -292 270 -206 c 1,48,49
 258 -128 258 -128 258 48 c 0,50,51
 258 228 258 228 242 293 c 128,-1,52
 226 358 226 358 178 398 c 1,53,54
 122 438 122 438 56 438 c 1,55,-1
 56 598 l 1,0,1
EndSplineSet
EndChar

StartChar: bar
Encoding: 124 124 43
Width: 520
GlyphClass: 2
Flags: W
LayerCount: 2
Fore
SplineSet
184 -420 m 1,0,-1
 184 1456 l 1,1,-1
 336 1456 l 1,2,-1
 336 -420 l 1,3,-1
 184 -420 l 1,0,-1
EndSplineSet
EndChar

StartChar: braceright
Encoding: 125 125 44
Width: 668
GlyphClass: 2
Flags: W
LayerCount: 2
Fore
SplineSet
612 598 m 1,0,-1
 612 438 l 1,1,2
 540 438 540 438 491 401 c 128,-1,3
 442 364 442 364 424 290 c 1,4,-1
 414 200 l 1,5,-1
 410 62 l 1,6,-1
 410 24 l 1,7,-1
 410 -8 l 1,8,-1
 410 -34 l 2,9,10
 410 -118 410 -118 404 -154 c 1,11,12
 404 -226 404 -226 370 -282 c 1,13,14
 346 -330 346 -330 312 -364 c 1,15,-1
 276 -386 l 1,16,-1
 222 -410 l 1,17,-1
 176 -418 l 1,18,-1
 100 -420 l 1,19,-1
 46 -420 l 1,20,-1
 46 -268 l 1,21,-1
 76 -268 l 2,22,23
 178 -268 178 -268 210 -230 c 1,24,25
 244 -196 244 -196 244 -66 c 2,26,-1
 246 124 l 1,27,-1
 252 244 l 1,28,29
 264 352 264 352 316 416 c 1,30,31
 362 480 362 480 448 518 c 1,32,33
 340 566 340 566 292 656 c 128,-1,34
 244 746 244 746 244 958 c 2,35,-1
 244 1078 l 1,36,-1
 238 1200 l 2,37,38
 238 1244 238 1244 204 1273 c 128,-1,39
 170 1302 170 1302 76 1302 c 2,40,-1
 46 1302 l 1,41,-1
 46 1456 l 1,42,-1
 100 1456 l 2,43,44
 200 1456 200 1456 252 1437 c 128,-1,45
 304 1418 304 1418 341 1370 c 128,-1,46
 378 1322 378 1322 396 1240 c 1,47,-1
 406 1138 l 1,48,-1
 410 988 l 1,49,50
 410 800 410 800 425 741 c 128,-1,51
 440 682 440 682 488 638 c 0,52,53
 512 620 512 620 544 608 c 2,54,-1
 576 600 l 1,55,-1
 612 598 l 1,0,-1
EndSplineSet
EndChar

StartChar: asciitilde
Encoding: 126 126 45
Width: 1168
GlyphClass: 2
Flags: W
LayerCount: 2
Fore
SplineSet
84 544 m 1,0,-1
 84 744 l 1,1,2
 190 862 190 862 356 862 c 0,3,4
 408 862 408 862 480 844 c 0,5,6
 534 832 534 832 664 776 c 1,7,-1
 764 740 l 1,8,-1
 806 730 l 1,9,-1
 832 730 l 2,10,11
 884 730 884 730 954 766 c 128,-1,12
 1024 802 1024 802 1084 864 c 1,13,-1
 1084 658 l 1,14,15
 1024 604 1024 604 960 572 c 1,16,17
 888 546 888 546 814 546 c 0,18,19
 786 546 786 546 758 548 c 128,-1,20
 730 550 730 550 704 556 c 0,21,22
 656 568 656 568 537 622 c 128,-1,23
 418 676 418 676 340 676 c 0,24,25
 276 676 276 676 222 650 c 1,26,-1
 162 612 l 2,27,28
 146 600 146 600 136 592 c 0,29,30
 112 572 112 572 84 544 c 1,0,-1
EndSplineSet
EndChar

StartChar: cent
Encoding: 162 162 46
Width: 721
GlyphClass: 2
Flags: W
LayerCount: 2
Fore
SplineSet
598 156 m 1,0,1
 537 71 537 71 467 31 c 128,-1,2
 397 -9 397 -9 304 -17 c 1,3,-1
 228 -265 l 1,4,-1
 187 -265 l 1,5,-1
 262 -17 l 1,6,7
 177 -8 177 -8 128.5 47 c 128,-1,8
 80 102 80 102 80 188 c 0,9,10
 80 345 80 345 191.5 478.5 c 128,-1,11
 303 612 303 612 457 638 c 1,12,-1
 541 917 l 1,13,-1
 580 917 l 1,14,-1
 499 638 l 1,15,16
 580 638 580 638 616.5 607 c 128,-1,17
 653 576 653 576 653 523 c 0,18,19
 653 482 653 482 631.5 455.5 c 128,-1,20
 610 429 610 429 580 429 c 0,21,22
 557 429 557 429 544 442 c 128,-1,23
 531 455 531 455 531 476 c 0,24,25
 531 491 531 491 536 502 c 128,-1,26
 541 513 541 513 560.5 534.5 c 128,-1,27
 580 556 580 556 580 570 c 0,28,29
 580 578 580 578 575 585 c 0,30,31
 565 596 565 596 549.5 601 c 128,-1,32
 534 606 534 606 489 606 c 1,33,-1
 322 49 l 1,34,-1
 352 47 l 1,35,36
 470 47 470 47 580 173 c 1,37,-1
 598 156 l 1,0,1
284 57 m 1,38,-1
 445 598 l 1,39,40
 383 570 383 570 342 533 c 0,41,42
 274 467 274 467 237 380.5 c 128,-1,43
 200 294 200 294 200 205 c 0,44,45
 200 146 200 146 224 108 c 0,46,47
 243 81 243 81 284 57 c 1,38,-1
EndSplineSet
EndChar

StartChar: multiply
Encoding: 215 215 47
Width: 975
GlyphClass: 2
Flags: W
LayerCount: 2
Fore
SplineSet
267 230 m 1,0,-1
 515 479 l 1,1,-1
 267 728 l 1,2,-1
 308 768 l 1,3,-1
 556 520 l 1,4,-1
 805 768 l 1,5,-1
 844 728 l 1,6,-1
 595 480 l 1,7,-1
 845 230 l 1,8,-1
 805 190 l 1,9,-1
 555 439 l 1,10,-1
 307 190 l 1,11,-1
 267 230 l 1,0,-1
EndSplineSet
EndChar

StartChar: divide
Encoding: 247 247 48
Width: 792
GlyphClass: 2
Flags: W
LayerCount: 2
Fore
SplineSet
418 757 m 0,0,1
 443 757 443 757 461 739 c 128,-1,2
 479 721 479 721 479 695 c 0,3,4
 479 670 479 670 461 652 c 128,-1,5
 443 634 443 634 417 634 c 0,6,7
 392 634 392 634 373.5 652 c 128,-1,8
 355 670 355 670 355 695 c 0,9,10
 355 721 355 721 373.5 739 c 128,-1,11
 392 757 392 757 418 757 c 0,0,1
797 450 m 1,12,-1
 38 450 l 1,13,-1
 38 508 l 1,14,-1
 797 508 l 1,15,-1
 797 450 l 1,12,-1
418 320 m 0,16,17
 443 320 443 320 461 301.5 c 128,-1,18
 479 283 479 283 479 257 c 0,19,20
 479 233 479 233 461 215 c 128,-1,21
 443 197 443 197 418 197 c 0,22,23
 392 197 392 197 373.5 215 c 128,-1,24
 355 233 355 233 355 257 c 0,25,26
 355 283 355 283 373.5 301.5 c 128,-1,27
 392 320 392 320 418 320 c 0,16,17
EndSplineSet
EndChar

StartChar: tm_visarga
Encoding: 2947 2947 49
Width: 1324
GlyphClass: 2
Flags: W
LayerCount: 2
Fore
SplineSet
250 0 m 2,0,1
 186 0 186 0 134 110 c 2,2,-1
 78 228 l 1,3,4
 34 306 34 306 34 368 c 0,5,6
 34 400 34 400 60 424 c 128,-1,7
 86 448 86 448 122 448 c 2,8,-1
 474 448 l 2,9,10
 514 448 514 448 542 422 c 128,-1,11
 570 396 570 396 570 360 c 0,12,13
 570 306 570 306 518 214 c 1,14,-1
 454 88 l 1,15,16
 414 0 414 0 362 0 c 2,17,-1
 250 0 l 2,0,1
290 128 m 2,18,-1
 310 128 l 2,19,20
 324 126 324 126 348 176 c 2,21,-1
 372 234 l 1,22,23
 394 272 394 272 394 296 c 0,24,25
 390 336 390 336 346 336 c 2,26,-1
 250 336 l 2,27,28
 202 336 202 336 202 296 c 0,29,30
 202 286 202 286 224 236 c 2,31,-1
 256 168 l 1,32,33
 270 128 270 128 290 128 c 2,18,-1
970 0 m 2,34,35
 906 0 906 0 854 110 c 2,36,-1
 798 228 l 1,37,38
 754 306 754 306 754 368 c 0,39,40
 754 400 754 400 780 424 c 128,-1,41
 806 448 806 448 842 448 c 2,42,-1
 1194 448 l 2,43,44
 1234 448 1234 448 1262 422 c 128,-1,45
 1290 396 1290 396 1290 360 c 0,46,47
 1290 306 1290 306 1238 214 c 1,48,-1
 1174 88 l 1,49,50
 1134 0 1134 0 1082 0 c 2,51,-1
 970 0 l 2,34,35
1010 128 m 2,52,-1
 1030 128 l 2,53,54
 1044 126 1044 126 1068 176 c 2,55,-1
 1092 234 l 1,56,57
 1114 272 1114 272 1114 296 c 0,58,59
 1110 336 1110 336 1066 336 c 2,60,-1
 970 336 l 2,61,62
 922 336 922 336 922 296 c 0,63,64
 922 286 922 286 944 236 c 2,65,-1
 976 168 l 1,66,67
 990 128 990 128 1010 128 c 2,52,-1
618 608 m 2,68,69
 554 608 554 608 502 718 c 2,70,-1
 446 836 l 1,71,72
 402 914 402 914 402 976 c 0,73,74
 402 1008 402 1008 428 1032 c 128,-1,75
 454 1056 454 1056 490 1056 c 2,76,-1
 842 1056 l 2,77,78
 882 1056 882 1056 910 1030 c 128,-1,79
 938 1004 938 1004 938 968 c 0,80,81
 938 914 938 914 886 822 c 1,82,-1
 822 696 l 1,83,84
 782 608 782 608 730 608 c 2,85,-1
 618 608 l 2,68,69
658 736 m 2,86,-1
 678 736 l 2,87,88
 692 734 692 734 716 784 c 2,89,-1
 740 842 l 1,90,91
 762 880 762 880 762 904 c 0,92,93
 758 944 758 944 714 944 c 2,94,-1
 618 944 l 2,95,96
 570 944 570 944 570 904 c 0,97,98
 570 894 570 894 592 844 c 2,99,-1
 624 776 l 1,100,101
 638 736 638 736 658 736 c 2,86,-1
EndSplineSet
EndChar

StartChar: tm_a
Encoding: 2949 2949 50
Width: 1940
GlyphClass: 2
Flags: W
LayerCount: 2
Fore
SplineSet
312 0 m 2,0,1
 260 0 260 0 216 44 c 128,-1,2
 172 88 172 88 152 160 c 1,3,-1
 80 368 l 2,4,5
 48 452 48 452 48 520 c 0,6,7
 48 568 48 568 86 604 c 128,-1,8
 124 640 124 640 176 640 c 2,9,-1
 480 640 l 1,10,-1
 448 720 l 1,11,12
 392 842 392 842 392 936 c 0,13,14
 392 992 392 992 434 1032 c 128,-1,15
 476 1072 476 1072 536 1072 c 2,16,-1
 1232 1072 l 2,17,18
 1282 1072 1282 1072 1317 1033 c 128,-1,19
 1352 994 1352 994 1352 936 c 2,20,-1
 1352 208 l 2,21,22
 1352 122 1352 122 1301 61 c 128,-1,23
 1250 0 1250 0 1176 0 c 2,24,-1
 312 0 l 2,0,1
440 160 m 2,25,-1
 1064 160 l 2,26,27
 1092 160 1092 160 1110 187 c 128,-1,28
 1128 214 1128 214 1128 256 c 2,29,-1
 1128 480 l 1,30,-1
 1024 480 l 1,31,32
 1010 430 1010 430 973 399 c 128,-1,33
 936 368 936 368 888 368 c 2,34,-1
 648 368 l 2,35,36
 596 368 596 368 568 432 c 2,37,-1
 544 480 l 1,38,-1
 328 480 l 2,39,40
 280 480 280 480 280 448 c 0,41,42
 280 420 280 420 304 368 c 2,43,-1
 360 224 l 1,44,45
 374 160 374 160 440 160 c 2,25,-1
776 512 m 0,46,47
 808 512 808 512 808 544 c 2,48,-1
 808 624 l 1,49,-1
 712 624 l 1,50,-1
 712 784 l 1,51,-1
 1032 784 l 1,52,-1
 1032 640 l 1,53,-1
 1128 640 l 1,54,-1
 1128 832 l 2,55,56
 1128 866 1128 866 1107 889 c 128,-1,57
 1086 912 1086 912 1056 912 c 2,58,-1
 688 912 l 2,59,60
 664 912 664 912 648 900 c 128,-1,61
 632 888 632 888 632 872 c 0,62,63
 632 836 632 836 648 800 c 1,64,-1
 712 568 l 1,65,66
 732 512 732 512 776 512 c 0,46,47
1592 -112 m 1,67,-1
 1592 480 l 1,68,-1
 1384 480 l 1,69,-1
 1384 640 l 1,70,-1
 1592 640 l 1,71,-1
 1592 1024 l 1,72,-1
 1816 1104 l 1,73,-1
 1816 0 l 1,74,-1
 1592 -112 l 1,67,-1
EndSplineSet
EndChar

StartChar: tm_aa
Encoding: 2950 2950 51
Width: 2292
GlyphClass: 2
Flags: W
LayerCount: 2
Fore
SplineSet
312 0 m 2,0,1
 260 0 260 0 216 44 c 128,-1,2
 172 88 172 88 152 160 c 1,3,-1
 80 368 l 2,4,5
 48 452 48 452 48 520 c 0,6,7
 48 568 48 568 86 604 c 128,-1,8
 124 640 124 640 176 640 c 2,9,-1
 480 640 l 1,10,-1
 448 720 l 1,11,12
 392 842 392 842 392 936 c 0,13,14
 392 992 392 992 434 1032 c 128,-1,15
 476 1072 476 1072 536 1072 c 2,16,-1
 1232 1072 l 2,17,18
 1282 1072 1282 1072 1317 1033 c 128,-1,19
 1352 994 1352 994 1352 936 c 2,20,-1
 1352 208 l 2,21,22
 1352 122 1352 122 1301 61 c 128,-1,23
 1250 0 1250 0 1176 0 c 2,24,-1
 312 0 l 2,0,1
440 160 m 2,25,-1
 1064 160 l 2,26,27
 1092 160 1092 160 1110 187 c 128,-1,28
 1128 214 1128 214 1128 256 c 2,29,-1
 1128 480 l 1,30,-1
 1024 480 l 1,31,32
 1010 430 1010 430 973 399 c 128,-1,33
 936 368 936 368 888 368 c 2,34,-1
 648 368 l 2,35,36
 596 368 596 368 568 432 c 2,37,-1
 544 480 l 1,38,-1
 328 480 l 2,39,40
 280 480 280 480 280 448 c 0,41,42
 280 420 280 420 304 368 c 2,43,-1
 360 224 l 1,44,45
 374 160 374 160 440 160 c 2,25,-1
776 512 m 0,46,47
 808 512 808 512 808 544 c 2,48,-1
 808 624 l 1,49,-1
 712 624 l 1,50,-1
 712 784 l 1,51,-1
 1032 784 l 1,52,-1
 1032 640 l 1,53,-1
 1128 640 l 1,54,-1
 1128 832 l 2,55,56
 1128 866 1128 866 1107 889 c 128,-1,57
 1086 912 1086 912 1056 912 c 2,58,-1
 688 912 l 2,59,60
 664 912 664 912 648 900 c 128,-1,61
 632 888 632 888 632 872 c 0,62,63
 632 836 632 836 648 800 c 1,64,-1
 712 568 l 1,65,66
 732 512 732 512 776 512 c 0,46,47
1592 -96 m 1,67,-1
 1592 480 l 1,68,-1
 1384 480 l 1,69,-1
 1384 640 l 1,70,-1
 1592 640 l 1,71,-1
 1592 1024 l 1,72,-1
 1816 1104 l 1,73,-1
 1816 0 l 1,74,-1
 1592 -96 l 1,67,-1
1848 384 m 1,75,-1
 2104 384 l 2,76,77
 2162 384 2162 384 2201 345 c 128,-1,78
 2240 306 2240 306 2240 248 c 0,79,80
 2240 208 2240 208 2224 112 c 2,81,-1
 2176 -168 l 1,82,83
 2176 -224 2176 -224 2144 -264 c 128,-1,84
 2112 -304 2112 -304 2072 -304 c 2,85,-1
 1184 -304 l 2,86,87
 1096 -304 1096 -304 1040 -258 c 128,-1,88
 984 -212 984 -212 984 -128 c 2,89,-1
 984 -48 l 1,90,-1
 1192 -48 l 1,91,-1
 1192 -96 l 2,92,93
 1192 -124 1192 -124 1214 -142 c 128,-1,94
 1236 -160 1236 -160 1272 -160 c 2,95,-1
 1904 -160 l 2,96,97
 1930 -160 1930 -160 1951 -130 c 128,-1,98
 1972 -100 1972 -100 1976 -56 c 1,99,-1
 2008 96 l 2,100,101
 2012 112 2012 112 2014 135 c 128,-1,102
 2016 158 2016 158 2016 176 c 0,103,104
 2016 240 2016 240 1968 240 c 2,105,-1
 1848 240 l 1,106,-1
 1848 384 l 1,75,-1
EndSplineSet
EndChar

StartChar: tm_i
Encoding: 2951 2951 52
Width: 1924
GlyphClass: 2
Flags: W
LayerCount: 2
Fore
SplineSet
326 -160 m 2,0,1
 274 -160 274 -160 230 -116 c 128,-1,2
 186 -72 186 -72 166 0 c 1,3,-1
 94 208 l 2,4,5
 62 292 62 292 62 360 c 0,6,7
 62 408 62 408 100 444 c 128,-1,8
 138 480 138 480 190 480 c 2,9,-1
 494 480 l 1,10,-1
 462 560 l 1,11,12
 406 682 406 682 406 776 c 0,13,14
 406 832 406 832 448 872 c 128,-1,15
 490 912 490 912 550 912 c 2,16,-1
 1246 912 l 2,17,18
 1296 912 1296 912 1331 873 c 128,-1,19
 1366 834 1366 834 1366 776 c 2,20,-1
 1366 48 l 2,21,22
 1366 -38 1366 -38 1315 -99 c 128,-1,23
 1264 -160 1264 -160 1190 -160 c 2,24,-1
 326 -160 l 2,0,1
454 0 m 2,25,-1
 1078 0 l 2,26,27
 1106 0 1106 0 1124 27 c 128,-1,28
 1142 54 1142 54 1142 96 c 2,29,-1
 1142 320 l 1,30,-1
 1038 320 l 1,31,32
 1024 270 1024 270 987 239 c 128,-1,33
 950 208 950 208 902 208 c 2,34,-1
 662 208 l 2,35,36
 610 208 610 208 582 272 c 2,37,-1
 558 320 l 1,38,-1
 342 320 l 2,39,40
 294 320 294 320 294 288 c 0,41,42
 294 260 294 260 318 208 c 1,43,-1
 366 80 l 1,44,45
 384 0 384 0 454 0 c 2,25,-1
790 352 m 0,46,47
 822 352 822 352 822 384 c 2,48,-1
 822 464 l 1,49,-1
 726 464 l 1,50,-1
 726 624 l 1,51,-1
 1046 624 l 1,52,-1
 1046 480 l 1,53,-1
 1142 480 l 1,54,-1
 1142 672 l 2,55,56
 1142 706 1142 706 1121 729 c 128,-1,57
 1100 752 1100 752 1070 752 c 2,58,-1
 702 752 l 2,59,60
 678 752 678 752 662 740 c 128,-1,61
 646 728 646 728 646 712 c 0,62,63
 646 676 646 676 662 640 c 1,64,-1
 726 408 l 1,65,66
 746 352 746 352 790 352 c 0,46,47
1478 -176 m 1,67,-1
 1398 0 l 1,68,-1
 1510 0 l 2,69,70
 1566 0 1566 0 1582 64 c 1,71,-1
 1630 216 l 2,72,73
 1640 252 1640 252 1643 265 c 128,-1,74
 1646 278 1646 278 1646 288 c 0,75,76
 1646 320 1646 320 1606 320 c 2,77,-1
 1414 320 l 1,78,-1
 1414 480 l 1,79,-1
 1750 480 l 2,80,81
 1800 480 1800 480 1835 445 c 128,-1,82
 1870 410 1870 410 1870 360 c 0,83,84
 1870 308 1870 308 1838 192 c 1,85,-1
 1766 -32 l 2,86,87
 1742 -96 1742 -96 1698 -136 c 128,-1,88
 1654 -176 1654 -176 1606 -176 c 2,89,-1
 1478 -176 l 1,67,-1
222 536 m 1,90,-1
 94 808 l 2,91,92
 30 946 30 946 30 1048 c 0,93,94
 30 1124 30 1124 84 1178 c 128,-1,95
 138 1232 138 1232 214 1232 c 2,96,-1
 1614 1232 l 2,97,98
 1710 1232 1710 1232 1778 1174 c 128,-1,99
 1846 1116 1846 1116 1846 1032 c 0,100,101
 1846 938 1846 938 1782 800 c 2,102,-1
 1678 560 l 1,103,-1
 1478 624 l 1,104,-1
 1574 848 l 1,105,106
 1622 948 1622 948 1622 1008 c 0,107,108
 1622 1036 1622 1036 1597 1054 c 128,-1,109
 1572 1072 1572 1072 1534 1072 c 2,110,-1
 374 1072 l 2,111,112
 326 1072 326 1072 290 1046 c 128,-1,113
 254 1020 254 1020 254 984 c 0,114,115
 254 944 254 944 334 768 c 1,116,-1
 406 624 l 1,117,-1
 222 536 l 1,90,-1
EndSplineSet
EndChar

StartChar: tm_ii
Encoding: 2952 2952 53
Width: 1298
GlyphClass: 2
Flags: W
LayerCount: 2
Fore
SplineSet
710 -110 m 1,0,-1
 710 660 l 1,1,-1
 940 660 l 1,2,-1
 940 0 l 1,3,-1
 710 -110 l 1,0,-1
520 220 m 0,4,5
 476 220 476 220 428 285 c 128,-1,6
 380 350 380 350 380 410 c 0,7,8
 380 440 380 440 400 460 c 128,-1,9
 420 480 420 480 450 480 c 2,10,-1
 580 480 l 2,11,12
 612 480 612 480 636 460 c 128,-1,13
 660 440 660 440 660 410 c 0,14,15
 660 356 660 356 611 288 c 128,-1,16
 562 220 562 220 520 220 c 0,4,5
1130 220 m 0,17,18
 1082 220 1082 220 1031 285 c 128,-1,19
 980 350 980 350 980 410 c 0,20,21
 980 440 980 440 1002 460 c 128,-1,22
 1024 480 1024 480 1060 480 c 2,23,-1
 1190 480 l 2,24,25
 1222 480 1222 480 1246 460 c 128,-1,26
 1270 440 1270 440 1270 410 c 0,27,28
 1270 356 1270 356 1221 288 c 128,-1,29
 1172 220 1172 220 1130 220 c 0,17,18
120 0 m 1,30,-1
 120 850 l 1,31,-1
 1180 850 l 1,32,-1
 1060 690 l 1,33,-1
 340 690 l 1,34,-1
 340 0 l 1,35,-1
 120 0 l 1,30,-1
EndSplineSet
EndChar

StartChar: tm_u
Encoding: 2953 2953 54
Width: 1734
GlyphClass: 2
Flags: W
LayerCount: 2
Fore
SplineSet
288 0 m 2,0,1
 252 0 252 0 226 28 c 128,-1,2
 200 56 200 56 192 104 c 1,3,-1
 152 248 l 2,4,5
 144 270 144 270 144 328 c 0,6,7
 144 356 144 356 173 378 c 128,-1,8
 202 400 202 400 240 400 c 2,9,-1
 648 400 l 2,10,11
 680 400 680 400 704 428 c 128,-1,12
 728 456 728 456 728 496 c 2,13,-1
 728 800 l 2,14,15
 728 828 728 828 701 846 c 128,-1,16
 674 864 674 864 632 864 c 2,17,-1
 288 864 l 1,18,19
 256 868 256 868 256 840 c 2,20,-1
 254 816 l 1,21,-1
 492 816 l 2,22,23
 552 816 552 816 592 770 c 128,-1,24
 632 724 632 724 632 656 c 2,25,-1
 632 552 l 2,26,27
 632 504 632 504 590 468 c 128,-1,28
 548 432 548 432 488 432 c 2,29,-1
 184 432 l 2,30,31
 156 432 156 432 131 464 c 128,-1,32
 106 496 106 496 96 544 c 2,33,-1
 48 832 l 2,34,35
 40 874 40 874 40 960 c 0,36,37
 40 988 40 988 60 1006 c 128,-1,38
 80 1024 80 1024 112 1024 c 2,39,-1
 872 1024 l 2,40,41
 904 1024 904 1024 928 996 c 128,-1,42
 952 968 952 968 952 928 c 2,43,-1
 952 400 l 2,44,45
 952 334 952 334 907 287 c 128,-1,46
 862 240 862 240 800 240 c 2,47,-1
 416 240 l 2,48,49
 376 240 376 240 376 208 c 0,50,51
 376 160 376 160 408 160 c 2,52,-1
 1720 160 l 1,53,-1
 1624 0 l 1,54,-1
 288 0 l 2,0,1
344 584 m 0,55,56
 408 584 408 584 408 624 c 0,57,58
 408 656 408 656 376 656 c 2,59,-1
 296 656 l 1,60,61
 310 584 310 584 344 584 c 0,55,56
EndSplineSet
EndChar

StartChar: tm_uu
Encoding: 2954 2954 55
Width: 2614
GlyphClass: 2
Flags: W
LayerCount: 2
Fore
SplineSet
288 0 m 2,0,1
 252 0 252 0 226 28 c 128,-1,2
 200 56 200 56 192 104 c 1,3,-1
 152 248 l 2,4,5
 144 270 144 270 144 328 c 0,6,7
 144 356 144 356 173 378 c 128,-1,8
 202 400 202 400 240 400 c 2,9,-1
 648 400 l 2,10,11
 680 400 680 400 704 428 c 128,-1,12
 728 456 728 456 728 496 c 2,13,-1
 728 800 l 2,14,15
 728 828 728 828 701 846 c 128,-1,16
 674 864 674 864 632 864 c 2,17,-1
 288 864 l 1,18,19
 256 868 256 868 256 840 c 1,20,-1
 264 816 l 1,21,-1
 492 816 l 2,22,23
 552 816 552 816 592 776 c 128,-1,24
 632 736 632 736 632 676 c 2,25,-1
 632 552 l 2,26,27
 632 504 632 504 590 468 c 128,-1,28
 548 432 548 432 488 432 c 2,29,-1
 244 432 l 2,30,31
 194 432 194 432 155 464 c 128,-1,32
 116 496 116 496 106 544 c 2,33,-1
 38 832 l 1,34,35
 20 934 20 934 20 960 c 0,36,37
 20 988 20 988 46 1006 c 128,-1,38
 72 1024 72 1024 112 1024 c 2,39,-1
 872 1024 l 2,40,41
 904 1024 904 1024 928 996 c 128,-1,42
 952 968 952 968 952 928 c 2,43,-1
 952 400 l 2,44,45
 952 334 952 334 907 287 c 128,-1,46
 862 240 862 240 800 240 c 2,47,-1
 416 240 l 2,48,49
 376 240 376 240 376 208 c 0,50,51
 376 160 376 160 408 160 c 2,52,-1
 2610 160 l 1,53,-1
 2504 0 l 1,54,-1
 288 0 l 2,0,1
344 584 m 0,55,56
 408 584 408 584 408 624 c 0,57,58
 408 656 408 656 376 656 c 2,59,-1
 296 656 l 1,60,61
 310 584 310 584 344 584 c 0,55,56
1280 240 m 2,62,63
 1242 240 1242 240 1206 282 c 128,-1,64
 1170 324 1170 324 1152 392 c 1,65,-1
 1056 664 l 1,66,67
 1008 770 1008 770 1008 856 c 0,68,69
 1008 920 1008 920 1046 964 c 128,-1,70
 1084 1008 1084 1008 1144 1008 c 2,71,-1
 1832 1008 l 2,72,73
 1906 1008 1906 1008 1957 957 c 128,-1,74
 2008 906 2008 906 2008 832 c 2,75,-1
 2008 240 l 1,76,-1
 1784 240 l 1,77,-1
 1784 760 l 2,78,79
 1784 798 1784 798 1763 823 c 128,-1,80
 1742 848 1742 848 1712 848 c 2,81,-1
 1272 848 l 2,82,83
 1248 848 1248 848 1232 832 c 128,-1,84
 1216 816 1216 816 1216 792 c 0,85,86
 1216 756 1216 756 1240 704 c 1,87,-1
 1328 440 l 2,88,89
 1352 376 1352 376 1384 376 c 0,90,91
 1412 376 1412 376 1430 396 c 128,-1,92
 1448 416 1448 416 1448 448 c 2,93,-1
 1448 544 l 1,94,-1
 1320 544 l 1,95,-1
 1320 704 l 1,96,-1
 1672 704 l 1,97,-1
 1672 392 l 2,98,99
 1672 328 1672 328 1640 284 c 128,-1,100
 1608 240 1608 240 1560 240 c 2,101,-1
 1280 240 l 2,62,63
2296 200 m 1,102,-1
 2296 848 l 1,103,-1
 2150 848 l 1,104,-1
 2150 1008 l 1,105,-1
 2728 1008 l 1,106,-1
 2664 848 l 1,107,-1
 2520 848 l 1,108,-1
 2520 312 l 1,109,-1
 2296 200 l 1,102,-1
EndSplineSet
EndChar

StartChar: tm_e
Encoding: 2958 2958 56
Width: 1330
GlyphClass: 2
Flags: W
LayerCount: 2
Fore
SplineSet
914 -112 m 1,0,-1
 914 656 l 1,1,-1
 1138 656 l 1,2,-1
 1138 0 l 1,3,-1
 914 -112 l 1,0,-1
338 0 m 2,4,5
 286 0 286 0 244 40 c 128,-1,6
 202 80 202 80 192 144 c 1,7,-1
 70 552 l 1,8,9
 50 604 50 604 50 728 c 0,10,11
 50 776 50 776 94 812 c 128,-1,12
 138 848 138 848 202 848 c 2,13,-1
 1314 848 l 1,14,-1
 1226 688 l 1,15,-1
 314 688 l 2,16,17
 266 688 266 688 266 656 c 0,18,19
 266 626 266 626 290 536 c 2,20,-1
 362 224 l 1,21,22
 372 160 372 160 418 160 c 0,23,24
 450 160 450 160 450 200 c 2,25,-1
 450 416 l 1,26,-1
 338 416 l 1,27,-1
 338 576 l 1,28,-1
 674 576 l 1,29,-1
 674 120 l 2,30,31
 674 72 674 72 648 36 c 128,-1,32
 622 0 622 0 586 0 c 2,33,-1
 338 0 l 2,4,5
EndSplineSet
EndChar

StartChar: tm_ee
Encoding: 2959 2959 57
Width: 1330
GlyphClass: 2
Flags: W
LayerCount: 2
Fore
SplineSet
386 -224 m 1,0,-1
 322 -72 l 1,1,-1
 914 8 l 1,2,-1
 914 656 l 1,3,-1
 1138 656 l 1,4,-1
 1138 -128 l 1,5,-1
 386 -224 l 1,0,-1
338 0 m 2,6,7
 280 0 280 0 236 40 c 128,-1,8
 192 80 192 80 182 144 c 1,9,-1
 60 552 l 1,10,11
 30 634 30 634 30 728 c 0,12,13
 30 776 30 776 81 812 c 128,-1,14
 132 848 132 848 202 848 c 2,15,-1
 1314 848 l 1,16,-1
 1226 688 l 1,17,-1
 314 688 l 2,18,19
 266 688 266 688 266 656 c 0,20,21
 266 626 266 626 290 536 c 2,22,-1
 362 224 l 1,23,24
 372 160 372 160 418 160 c 0,25,26
 450 160 450 160 450 200 c 2,27,-1
 450 416 l 1,28,-1
 338 416 l 1,29,-1
 338 576 l 1,30,-1
 674 576 l 1,31,-1
 674 120 l 2,32,33
 674 72 674 72 648 36 c 128,-1,34
 622 0 622 0 586 0 c 2,35,-1
 338 0 l 2,6,7
EndSplineSet
EndChar

StartChar: tm_ai
Encoding: 2960 2960 58
Width: 1258
GlyphClass: 2
Flags: W
LayerCount: 2
Fore
SplineSet
574 0 m 2,0,-1
 230 0 l 2,1,2
 180 0 180 0 145 33 c 128,-1,3
 110 66 110 66 110 112 c 2,4,-1
 110 280 l 2,5,6
 110 366 110 366 238 400 c 2,7,-1
 782 560 l 1,8,9
 862 576 862 576 862 624 c 2,10,-1
 862 704 l 1,11,-1
 798 704 l 2,12,13
 766 704 766 704 739 673 c 128,-1,14
 712 642 712 642 702 592 c 1,15,-1
 542 592 l 1,16,17
 524 646 524 646 499 675 c 128,-1,18
 474 704 474 704 446 704 c 2,19,-1
 366 704 l 2,20,21
 318 704 318 704 318 672 c 0,22,23
 320 654 320 654 390 568 c 1,24,-1
 190 488 l 1,25,-1
 118 584 l 1,26,27
 62 650 62 650 62 728 c 0,28,29
 62 778 62 778 97 813 c 128,-1,30
 132 848 132 848 182 848 c 2,31,-1
 526 848 l 2,32,33
 618 848 618 848 638 768 c 1,34,35
 658 848 658 848 750 848 c 2,36,-1
 1214 848 l 1,37,-1
 1134 704 l 1,38,-1
 1086 704 l 1,39,-1
 1086 560 l 2,40,41
 1086 524 1086 524 1053 493 c 128,-1,42
 1020 462 1020 462 966 448 c 2,43,-1
 398 272 l 2,44,45
 334 248 334 248 334 216 c 2,46,-1
 334 184 l 2,47,48
 334 160 334 160 374 160 c 2,49,-1
 526 160 l 2,50,51
 568 160 568 160 595 183 c 128,-1,52
 622 206 622 206 622 240 c 1,53,-1
 766 240 l 1,54,55
 784 160 784 160 830 160 c 2,56,-1
 910 160 l 1,57,58
 942 164 942 164 942 208 c 0,59,60
 942 244 942 244 878 288 c 1,61,-1
 1062 384 l 1,62,63
 1182 282 1182 282 1182 192 c 2,64,-1
 1182 112 l 2,65,66
 1182 64 1182 64 1154 32 c 128,-1,67
 1126 0 1126 0 1086 0 c 2,68,-1
 814 0 l 2,69,70
 722 0 722 0 702 80 c 1,71,72
 678 0 678 0 574 0 c 2,0,-1
EndSplineSet
EndChar

StartChar: tm_o
Encoding: 2962 2962 59
Width: 1432
GlyphClass: 2
Flags: W
LayerCount: 2
Fore
SplineSet
496 -304 m 2,0,1
 452 -304 452 -304 415 -264 c 128,-1,2
 378 -224 378 -224 360 -160 c 1,3,-1
 248 128 l 1,4,-1
 488 128 l 1,5,-1
 568 -96 l 2,6,7
 592 -160 592 -160 624 -160 c 2,8,-1
 816 -160 l 2,9,10
 832 -162 832 -162 844 -142 c 128,-1,11
 856 -122 856 -122 856 -96 c 2,12,-1
 856 -8 l 1,13,14
 808 -8 808 -8 776 14 c 128,-1,15
 744 36 744 36 744 72 c 2,16,-1
 744 224 l 2,17,18
 744 252 744 252 792 280 c 1,19,20
 728 304 728 304 728 376 c 2,21,-1
 728 686 l 1,22,-1
 952 568 l 1,23,-1
 952 416 l 1,24,-1
 1080 416 l 2,25,26
 1128 416 1128 416 1128 472 c 2,27,-1
 1128 680 l 2,28,29
 1128 716 1128 716 1102 742 c 128,-1,30
 1076 768 1076 768 1040 768 c 2,31,-1
 328 768 l 2,32,33
 272 768 272 768 272 736 c 0,34,35
 272 706 272 706 296 640 c 2,36,-1
 360 448 l 1,37,38
 376 384 376 384 400 384 c 2,39,-1
 456 384 l 1,40,-1
 456 544 l 1,41,-1
 360 544 l 1,42,-1
 360 704 l 1,43,-1
 664 704 l 1,44,-1
 664 336 l 2,45,46
 664 290 664 290 627 257 c 128,-1,47
 590 224 590 224 536 224 c 2,48,-1
 304 224 l 2,49,50
 270 224 270 224 238 258 c 128,-1,51
 206 292 206 292 184 352 c 2,52,-1
 72 656 l 1,53,54
 40 722 40 722 40 816 c 0,55,56
 40 870 40 870 75 907 c 128,-1,57
 110 944 110 944 160 944 c 2,58,-1
 1208 944 l 2,59,60
 1268 944 1268 944 1310 900 c 128,-1,61
 1352 856 1352 856 1352 792 c 2,62,-1
 1352 392 l 2,63,64
 1352 336 1352 336 1322 296 c 128,-1,65
 1292 256 1292 256 1248 256 c 2,66,-1
 952 256 l 1,67,-1
 952 176 l 1,68,69
 956 144 956 144 1000 144 c 2,70,-1
 1216 144 l 1,71,-1
 1144 -16 l 1,72,-1
 1064 -16 l 1,73,-1
 1064 -176 l 2,74,75
 1064 -234 1064 -234 1033 -269 c 128,-1,76
 1002 -304 1002 -304 944 -304 c 2,77,-1
 496 -304 l 2,0,1
EndSplineSet
EndChar

StartChar: tm_oo
Encoding: 2963 2963 60
Width: 1432
GlyphClass: 2
Flags: W
LayerCount: 2
Fore
SplineSet
488 -304 m 2,0,1
 432 -304 432 -304 383 -266 c 128,-1,2
 334 -228 334 -228 304 -160 c 2,3,-1
 248 -40 l 1,4,5
 200 42 200 42 200 88 c 0,6,7
 200 118 200 118 231 139 c 128,-1,8
 262 160 262 160 304 160 c 2,9,-1
 656 160 l 1,10,-1
 656 0 l 1,11,-1
 512 0 l 1,12,13
 480 4 480 4 480 -24 c 0,14,15
 480 -46 480 -46 520 -104 c 1,16,17
 552 -160 552 -160 584 -160 c 2,18,-1
 816 -160 l 2,19,20
 832 -162 832 -162 844 -142 c 128,-1,21
 856 -122 856 -122 856 -96 c 2,22,-1
 856 -8 l 1,23,24
 808 -8 808 -8 776 14 c 128,-1,25
 744 36 744 36 744 72 c 2,26,-1
 744 224 l 2,27,28
 744 252 744 252 792 280 c 1,29,30
 728 304 728 304 728 376 c 2,31,-1
 728 706 l 1,32,-1
 952 578 l 1,33,-1
 952 416 l 1,34,-1
 1080 416 l 2,35,36
 1128 416 1128 416 1128 472 c 2,37,-1
 1128 680 l 2,38,39
 1128 716 1128 716 1102 742 c 128,-1,40
 1076 768 1076 768 1040 768 c 2,41,-1
 328 768 l 2,42,43
 272 768 272 768 272 736 c 0,44,45
 272 706 272 706 296 640 c 2,46,-1
 360 448 l 1,47,48
 376 384 376 384 400 384 c 2,49,-1
 456 384 l 1,50,-1
 456 544 l 1,51,-1
 360 544 l 1,52,-1
 360 704 l 1,53,-1
 664 704 l 1,54,-1
 664 336 l 2,55,56
 664 290 664 290 627 257 c 128,-1,57
 590 224 590 224 536 224 c 2,58,-1
 304 224 l 2,59,60
 270 224 270 224 238 258 c 128,-1,61
 206 292 206 292 184 352 c 2,62,-1
 72 656 l 1,63,64
 40 722 40 722 40 816 c 0,65,66
 40 870 40 870 75 907 c 128,-1,67
 110 944 110 944 160 944 c 2,68,-1
 1208 944 l 2,69,70
 1268 944 1268 944 1310 900 c 128,-1,71
 1352 856 1352 856 1352 792 c 2,72,-1
 1352 392 l 2,73,74
 1352 336 1352 336 1322 296 c 128,-1,75
 1292 256 1292 256 1248 256 c 2,76,-1
 952 256 l 1,77,-1
 952 176 l 1,78,79
 956 144 956 144 1000 144 c 2,80,-1
 1216 144 l 1,81,-1
 1144 -16 l 1,82,-1
 1064 -16 l 1,83,-1
 1064 -176 l 2,84,85
 1064 -234 1064 -234 1033 -269 c 128,-1,86
 1002 -304 1002 -304 944 -304 c 2,87,-1
 488 -304 l 2,0,1
EndSplineSet
EndChar

StartChar: tm_au
Encoding: 2964 2964 61
Width: 3210
GlyphClass: 2
Flags: W
LayerCount: 2
Fore
SplineSet
1668 0 m 2,0,1
 1632 0 1632 0 1597 47 c 128,-1,2
 1562 94 1562 94 1540 176 c 2,3,-1
 1442 520 l 2,4,5
 1432 560 1432 560 1426 604 c 128,-1,6
 1420 648 1420 648 1420 696 c 0,7,8
 1420 760 1420 760 1458 804 c 128,-1,9
 1496 848 1496 848 1556 848 c 2,10,-1
 2324 848 l 2,11,12
 2390 848 2390 848 2437 799 c 128,-1,13
 2484 750 2484 750 2484 680 c 2,14,-1
 2484 0 l 1,15,-1
 2260 0 l 1,16,-1
 2260 608 l 2,17,18
 2260 640 2260 640 2242 664 c 128,-1,19
 2224 688 2224 688 2196 688 c 2,20,-1
 1692 688 l 2,21,22
 1628 688 1628 688 1628 656 c 0,23,24
 1628 612 1628 612 1652 560 c 1,25,-1
 1740 200 l 2,26,27
 1756 136 1756 136 1804 136 c 0,28,29
 1828 136 1828 136 1844 156 c 128,-1,30
 1860 176 1860 176 1860 208 c 2,31,-1
 1860 384 l 1,32,-1
 1732 384 l 1,33,-1
 1732 544 l 1,34,-1
 2084 544 l 1,35,-1
 2084 152 l 2,36,37
 2084 88 2084 88 2052 44 c 128,-1,38
 2020 0 2020 0 1972 0 c 2,39,-1
 1668 0 l 2,0,1
2772 -96 m 1,40,-1
 2772 688 l 1,41,-1
 2516 688 l 1,42,-1
 2516 848 l 1,43,-1
 3204 848 l 1,44,-1
 3140 688 l 1,45,-1
 2996 688 l 1,46,-1
 2996 16 l 1,47,-1
 2772 -96 l 1,40,-1
496 -304 m 2,48,49
 452 -304 452 -304 415 -264 c 128,-1,50
 378 -224 378 -224 360 -160 c 1,51,-1
 248 128 l 1,52,-1
 488 128 l 1,53,-1
 568 -96 l 2,54,55
 592 -160 592 -160 624 -160 c 2,56,-1
 816 -160 l 2,57,58
 832 -162 832 -162 844 -142 c 128,-1,59
 856 -122 856 -122 856 -96 c 2,60,-1
 856 -8 l 1,61,62
 808 -8 808 -8 776 14 c 128,-1,63
 744 36 744 36 744 72 c 2,64,-1
 744 224 l 2,65,66
 744 252 744 252 792 280 c 1,67,68
 728 304 728 304 728 376 c 2,69,-1
 728 686 l 1,70,-1
 952 568 l 1,71,-1
 952 416 l 1,72,-1
 1080 416 l 2,73,74
 1128 416 1128 416 1128 472 c 2,75,-1
 1128 680 l 2,76,77
 1128 716 1128 716 1102 742 c 128,-1,78
 1076 768 1076 768 1040 768 c 2,79,-1
 328 768 l 2,80,81
 272 768 272 768 272 736 c 0,82,83
 272 706 272 706 296 640 c 2,84,-1
 360 448 l 1,85,86
 376 384 376 384 400 384 c 2,87,-1
 456 384 l 1,88,-1
 456 544 l 1,89,-1
 360 544 l 1,90,-1
 360 704 l 1,91,-1
 664 704 l 1,92,-1
 664 336 l 2,93,94
 664 290 664 290 627 257 c 128,-1,95
 590 224 590 224 536 224 c 2,96,-1
 304 224 l 2,97,98
 270 224 270 224 238 258 c 128,-1,99
 206 292 206 292 184 352 c 2,100,-1
 72 656 l 1,101,102
 40 722 40 722 40 816 c 0,103,104
 40 870 40 870 75 907 c 128,-1,105
 110 944 110 944 160 944 c 2,106,-1
 1208 944 l 2,107,108
 1268 944 1268 944 1310 900 c 128,-1,109
 1352 856 1352 856 1352 792 c 2,110,-1
 1352 392 l 2,111,112
 1352 336 1352 336 1322 296 c 128,-1,113
 1292 256 1292 256 1248 256 c 2,114,-1
 952 256 l 1,115,-1
 952 176 l 1,116,117
 956 144 956 144 1000 144 c 2,118,-1
 1216 144 l 1,119,-1
 1144 -16 l 1,120,-1
 1064 -16 l 1,121,-1
 1064 -176 l 2,122,123
 1064 -234 1064 -234 1033 -269 c 128,-1,124
 1002 -304 1002 -304 944 -304 c 2,125,-1
 496 -304 l 2,48,49
EndSplineSet
EndChar

StartChar: tm_ka
Encoding: 2965 2965 62
Width: 1336
GlyphClass: 2
Flags: W
LayerCount: 2
Fore
SplineSet
602 -8 m 0,0,1
 482 -8 482 -8 378 18 c 128,-1,2
 274 44 274 44 196 93 c 128,-1,3
 118 142 118 142 76 209 c 128,-1,4
 34 276 34 276 34 352 c 0,5,6
 34 400 34 400 56 432 c 128,-1,7
 78 464 78 464 114 464 c 2,8,-1
 570 464 l 1,9,-1
 570 656 l 1,10,-1
 794 656 l 1,11,-1
 794 110 l 2,12,13
 794 60 794 60 738 26 c 128,-1,14
 682 -8 682 -8 602 -8 c 0,0,1
522 176 m 0,15,16
 570 176 570 176 570 220 c 2,17,-1
 570 304 l 1,18,-1
 346 304 l 2,19,20
 330 306 330 306 318 298 c 128,-1,21
 306 290 306 290 306 280 c 0,22,23
 310 246 310 246 382 211 c 128,-1,24
 454 176 454 176 522 176 c 0,15,16
822 -8 m 1,25,-1
 916 184 l 1,26,27
 972 184 972 184 1025 218 c 128,-1,28
 1078 252 1078 252 1078 288 c 1,29,30
 1082 304 1082 304 1054 304 c 2,31,-1
 846 304 l 1,32,-1
 846 464 l 1,33,-1
 1230 464 l 2,34,35
 1266 464 1266 464 1292 426 c 128,-1,36
 1318 388 1318 388 1318 336 c 0,37,38
 1318 264 1318 264 1282 197 c 128,-1,39
 1246 130 1246 130 1182 86 c 0,40,41
 1046 -8 1046 -8 822 -8 c 1,25,-1
426 480 m 1,42,-1
 202 544 l 1,43,-1
 202 848 l 1,44,-1
 1074 848 l 1,45,-1
 994 688 l 1,46,-1
 426 688 l 1,47,-1
 426 480 l 1,42,-1
EndSplineSet
EndChar

StartChar: tm_nga
Encoding: 2969 2969 63
Width: 1440
GlyphClass: 2
Flags: W
LayerCount: 2
Fore
SplineSet
130 -180 m 1,0,-1
 130 850 l 1,1,-1
 930 850 l 1,2,-1
 810 700 l 1,3,-1
 690 700 l 1,4,-1
 690 602 l 1,5,6
 724 620 724 620 760 620 c 0,7,8
 870 620 870 620 945 559 c 128,-1,9
 1020 498 1020 498 1020 410 c 0,10,11
 1020 332 1020 332 972 260 c 128,-1,12
 924 188 924 188 840 140 c 1,13,-1
 1100 140 l 1,14,-1
 1100 850 l 1,15,-1
 1320 970 l 1,16,-1
 1320 0 l 1,17,-1
 500 0 l 1,18,-1
 500 142 l 1,19,20
 640 196 640 196 725 267 c 128,-1,21
 810 338 810 338 810 400 c 0,22,23
 810 422 810 422 794 436 c 128,-1,24
 778 450 778 450 750 450 c 0,25,26
 690 450 690 450 690 400 c 2,27,-1
 690 370 l 1,28,-1
 470 260 l 1,29,-1
 470 700 l 1,30,-1
 350 700 l 1,31,-1
 350 -100 l 1,32,-1
 130 -180 l 1,0,-1
EndSplineSet
EndChar

StartChar: tm_ca
Encoding: 2970 2970 64
Width: 1194
GlyphClass: 2
Flags: W
LayerCount: 2
Fore
SplineSet
582 -8 m 0,0,1
 342 -8 342 -8 188 93 c 128,-1,2
 34 194 34 194 34 342 c 0,3,4
 34 394 34 394 57 429 c 128,-1,5
 80 464 80 464 114 464 c 2,6,-1
 570 464 l 1,7,-1
 570 656 l 1,8,-1
 794 656 l 1,9,-1
 794 100 l 2,10,11
 794 56 794 56 732 24 c 128,-1,12
 670 -8 670 -8 582 -8 c 0,0,1
522 176 m 0,13,14
 570 176 570 176 570 200 c 2,15,-1
 570 304 l 1,16,-1
 346 304 l 2,17,18
 330 306 330 306 318 298 c 128,-1,19
 306 290 306 290 306 280 c 0,20,21
 310 246 310 246 382 211 c 128,-1,22
 454 176 454 176 522 176 c 0,13,14
1082 304 m 1,23,-1
 826 304 l 1,24,-1
 826 464 l 1,25,-1
 1178 464 l 1,26,-1
 1082 304 l 1,23,-1
426 480 m 1,27,-1
 202 544 l 1,28,-1
 202 848 l 1,29,-1
 1074 848 l 1,30,-1
 994 688 l 1,31,-1
 426 688 l 1,32,-1
 426 480 l 1,27,-1
EndSplineSet
EndChar

StartChar: tm_ja
Encoding: 2972 2972 65
Width: 1240
GlyphClass: 2
Flags: W
LayerCount: 2
Fore
SplineSet
880 -256 m 0,0,1
 734 -256 734 -256 592 -136 c 1,2,-1
 736 -16 l 1,3,4
 794 -64 794 -64 856 -64 c 0,5,6
 896 -64 896 -64 896 -32 c 2,7,-1
 896 112 l 2,8,9
 898 128 898 128 890 140 c 128,-1,10
 882 152 882 152 872 152 c 0,11,12
 850 148 850 148 816 120 c 1,13,-1
 704 48 l 1,14,15
 650 0 650 0 576 0 c 2,16,-1
 224 0 l 2,17,18
 176 0 176 0 144 32 c 128,-1,19
 112 64 112 64 112 112 c 2,20,-1
 112 304 l 2,21,22
 112 334 112 334 142 360 c 128,-1,23
 172 386 172 386 224 400 c 2,24,-1
 792 560 l 2,25,26
 864 578 864 578 864 616 c 2,27,-1
 864 704 l 1,28,-1
 832 704 l 2,29,30
 778 704 778 704 741 671 c 128,-1,31
 704 638 704 638 704 592 c 1,32,-1
 544 592 l 1,33,34
 534 640 534 640 507 672 c 128,-1,35
 480 704 480 704 448 704 c 2,36,-1
 376 704 l 2,37,38
 328 704 328 704 320 672 c 1,39,40
 320 640 320 640 392 568 c 1,41,-1
 192 496 l 1,42,-1
 128 576 l 1,43,44
 64 668 64 668 64 736 c 0,45,46
 64 784 64 784 96 816 c 128,-1,47
 128 848 128 848 176 848 c 2,48,-1
 528 848 l 2,49,50
 620 848 620 848 640 768 c 1,51,52
 660 848 660 848 752 848 c 2,53,-1
 1216 848 l 1,54,-1
 1136 704 l 1,55,-1
 1088 704 l 1,56,-1
 1088 560 l 2,57,58
 1088 524 1088 524 1054 494 c 128,-1,59
 1020 464 1020 464 960 448 c 2,60,-1
 408 280 l 2,61,62
 336 262 336 262 336 224 c 2,63,-1
 336 192 l 2,64,65
 336 160 336 160 368 160 c 2,66,-1
 528 160 l 2,67,68
 566 160 566 160 648 208 c 1,69,-1
 768 288 l 2,70,71
 824 328 824 328 880 328 c 0,72,73
 960 328 960 328 1040 264 c 128,-1,74
 1120 200 1120 200 1120 136 c 2,75,-1
 1120 -72 l 2,76,77
 1120 -94 1120 -94 1096 -124 c 128,-1,78
 1072 -154 1072 -154 1030 -186 c 0,79,80
 942 -256 942 -256 880 -256 c 0,0,1
EndSplineSet
EndChar

StartChar: tm_nya
Encoding: 2974 2974 66
Width: 1994
GlyphClass: 2
Flags: W
LayerCount: 2
Fore
SplineSet
1422 688 m 1,0,-1
 1422 0 l 1,1,-1
 1198 0 l 1,2,-1
 1198 688 l 1,3,-1
 670 688 l 2,4,5
 606 688 606 688 606 648 c 0,6,7
 606 600 606 600 622 552 c 2,8,-1
 710 200 l 2,9,10
 730 136 730 136 766 136 c 0,11,12
 794 136 794 136 812 156 c 128,-1,13
 830 176 830 176 830 208 c 2,14,-1
 830 384 l 1,15,-1
 702 384 l 1,16,-1
 702 544 l 1,17,-1
 1054 544 l 1,18,-1
 1054 152 l 2,19,20
 1054 88 1054 88 1022 44 c 128,-1,21
 990 0 990 0 942 0 c 2,22,-1
 638 0 l 2,23,24
 602 0 602 0 567 47 c 128,-1,25
 532 94 532 94 510 176 c 2,26,-1
 422 504 l 1,27,28
 382 618 382 618 382 712 c 0,29,30
 382 768 382 768 424 808 c 128,-1,31
 466 848 466 848 526 848 c 2,32,-1
 1638 848 l 1,33,-1
 1566 688 l 1,34,-1
 1422 688 l 1,0,-1
1454 464 m 1,35,-1
 1774 464 l 2,36,37
 1848 464 1848 464 1899 417 c 128,-1,38
 1950 370 1950 370 1950 304 c 0,39,40
 1950 206 1950 206 1886 96 c 2,41,-1
 1798 -48 l 1,42,43
 1690 -208 1690 -208 1566 -208 c 2,44,-1
 406 -208 l 2,45,46
 300 -208 300 -208 213 -129 c 128,-1,47
 126 -50 126 -50 126 48 c 2,48,-1
 126 800 l 1,49,-1
 350 912 l 1,50,-1
 350 112 l 2,51,52
 350 40 350 40 398 -4 c 0,53,54
 452 -48 452 -48 526 -48 c 2,55,-1
 1462 -48 l 2,56,57
 1568 -48 1568 -48 1630 56 c 1,58,-1
 1694 152 l 2,59,60
 1726 206 1726 206 1726 240 c 0,61,62
 1726 268 1726 268 1701 286 c 128,-1,63
 1676 304 1676 304 1638 304 c 2,64,-1
 1454 304 l 1,65,-1
 1454 464 l 1,35,-1
EndSplineSet
EndChar

StartChar: tm_tta
Encoding: 2975 2975 67
Width: 1190
GlyphClass: 2
Flags: W
LayerCount: 2
Fore
SplineSet
120 0 m 1,0,-1
 120 848 l 1,1,-1
 344 848 l 1,2,-1
 344 160 l 1,3,-1
 1176 160 l 1,4,-1
 1080 0 l 1,5,-1
 120 0 l 1,0,-1
EndSplineSet
EndChar

StartChar: tm_nna
Encoding: 2979 2979 68
Width: 2400
GlyphClass: 2
Flags: W
LayerCount: 2
Fore
SplineSet
274 0 m 2,0,1
 240 0 240 0 212 39 c 128,-1,2
 184 78 184 78 174 140 c 1,3,-1
 54 580 l 2,4,5
 48 602 48 602 46 630 c 128,-1,6
 44 658 44 658 44 720 c 0,7,8
 44 774 44 774 90 812 c 128,-1,9
 136 850 136 850 204 850 c 2,10,-1
 1064 850 l 2,11,12
 1128 850 1128 850 1176 800 c 128,-1,13
 1224 750 1224 750 1224 680 c 2,14,-1
 1224 200 l 2,15,16
 1224 104 1224 104 1159 47 c 128,-1,17
 1094 -10 1094 -10 984 -10 c 2,18,-1
 894 -10 l 2,19,20
 790 -10 790 -10 726 48 c 0,21,22
 664 100 664 100 664 200 c 2,23,-1
 664 670 l 1,24,-1
 884 670 l 1,25,-1
 884 200 l 2,26,27
 884 174 884 174 901 157 c 128,-1,28
 918 140 918 140 944 140 c 256,29,30
 970 140 970 140 987 157 c 128,-1,31
 1004 174 1004 174 1004 200 c 2,32,-1
 1004 620 l 2,33,34
 1004 652 1004 652 984 676 c 128,-1,35
 964 700 964 700 934 700 c 2,36,-1
 304 700 l 2,37,38
 254 700 254 700 254 660 c 0,39,40
 254 610 254 610 264 570 c 2,41,-1
 344 170 l 2,42,43
 350 140 350 140 384 140 c 0,44,45
 414 140 414 140 414 180 c 2,46,-1
 414 420 l 1,47,-1
 314 420 l 1,48,-1
 314 580 l 1,49,-1
 624 580 l 1,50,-1
 624 100 l 2,51,52
 624 56 624 56 601 28 c 128,-1,53
 578 0 578 0 544 0 c 2,54,-1
 274 0 l 2,0,1
1494 -10 m 2,55,56
 1390 -10 1390 -10 1326 48 c 0,57,58
 1264 100 1264 100 1264 200 c 2,59,-1
 1264 670 l 1,60,-1
 1484 670 l 1,61,-1
 1484 200 l 2,62,63
 1484 174 1484 174 1501 157 c 128,-1,64
 1518 140 1518 140 1544 140 c 256,65,66
 1570 140 1570 140 1587 157 c 128,-1,67
 1604 174 1604 174 1604 200 c 2,68,-1
 1604 620 l 2,69,70
 1604 652 1604 652 1584 676 c 128,-1,71
 1564 700 1564 700 1534 700 c 2,72,-1
 1264 700 l 1,73,-1
 1264 850 l 1,74,-1
 1664 850 l 2,75,76
 1728 850 1728 850 1776 800 c 128,-1,77
 1824 750 1824 750 1824 680 c 2,78,-1
 1824 200 l 2,79,80
 1824 104 1824 104 1759 47 c 128,-1,81
 1694 -10 1694 -10 1584 -10 c 2,82,-1
 1494 -10 l 2,55,56
1974 -70 m 1,83,-1
 1974 700 l 1,84,-1
 1864 700 l 1,85,-1
 1864 850 l 1,86,-1
 2384 850 l 1,87,-1
 2294 700 l 1,88,-1
 2184 700 l 1,89,-1
 2184 30 l 1,90,-1
 1974 -70 l 1,83,-1
EndSplineSet
EndChar

StartChar: tm_ta
Encoding: 2980 2980 69
Width: 1290
GlyphClass: 2
Flags: W
LayerCount: 2
Fore
SplineSet
602 -8 m 0,0,1
 482 -8 482 -8 378 18 c 128,-1,2
 274 44 274 44 196 93 c 128,-1,3
 118 142 118 142 76 209 c 128,-1,4
 34 276 34 276 34 352 c 0,5,6
 34 400 34 400 56 432 c 128,-1,7
 78 464 78 464 114 464 c 2,8,-1
 570 464 l 1,9,-1
 570 656 l 1,10,-1
 794 656 l 1,11,-1
 794 116 l 2,12,13
 794 64 794 64 738 28 c 128,-1,14
 682 -8 682 -8 602 -8 c 0,0,1
234 -264 m 1,15,-1
 146 -104 l 1,16,17
 210 -56 210 -56 290 -56 c 2,18,-1
 770 -56 l 2,19,20
 832 -56 832 -56 890 24 c 1,21,-1
 962 144 l 1,22,23
 1010 214 1010 214 1010 256 c 0,24,25
 1010 276 1010 276 990 290 c 128,-1,26
 970 304 970 304 938 304 c 2,27,-1
 826 304 l 1,28,-1
 826 464 l 1,29,-1
 1082 464 l 2,30,31
 1150 464 1150 464 1200 420 c 128,-1,32
 1250 376 1250 376 1250 312 c 0,33,34
 1250 244 1250 244 1178 120 c 2,35,-1
 1050 -96 l 2,36,37
 978 -216 978 -216 866 -216 c 2,38,-1
 354 -216 l 2,39,40
 276 -216 276 -216 234 -264 c 1,15,-1
522 176 m 0,41,42
 542 176 542 176 556 192 c 128,-1,43
 570 208 570 208 570 230 c 2,44,-1
 570 304 l 1,45,-1
 346 304 l 2,46,47
 330 306 330 306 318 298 c 128,-1,48
 306 290 306 290 306 280 c 0,49,50
 310 246 310 246 382 211 c 128,-1,51
 454 176 454 176 522 176 c 0,41,42
426 480 m 1,52,-1
 202 544 l 1,53,-1
 202 848 l 1,54,-1
 1074 848 l 1,55,-1
 986 688 l 1,56,-1
 426 688 l 1,57,-1
 426 480 l 1,52,-1
EndSplineSet
EndChar

StartChar: tm_na
Encoding: 2984 2984 70
Width: 1210
GlyphClass: 2
Flags: W
LayerCount: 2
Fore
SplineSet
490 0 m 1,0,-1
 490 656 l 1,1,-1
 714 656 l 1,2,-1
 714 0 l 1,3,-1
 490 0 l 1,0,-1
122 0 m 1,4,-1
 122 848 l 1,5,-1
 994 848 l 1,6,-1
 906 688 l 1,7,-1
 346 688 l 1,8,-1
 346 0 l 1,9,-1
 122 0 l 1,4,-1
154 -264 m 1,10,-1
 74 -104 l 1,11,12
 140 -56 140 -56 210 -56 c 2,13,-1
 690 -56 l 2,14,15
 752 -56 752 -56 810 24 c 1,16,-1
 882 144 l 1,17,18
 930 214 930 214 930 256 c 0,19,20
 930 276 930 276 910 290 c 128,-1,21
 890 304 890 304 858 304 c 2,22,-1
 746 304 l 1,23,-1
 746 464 l 1,24,-1
 1002 464 l 2,25,26
 1070 464 1070 464 1120 420 c 128,-1,27
 1170 376 1170 376 1170 312 c 0,28,29
 1170 244 1170 244 1098 120 c 2,30,-1
 970 -96 l 2,31,32
 898 -216 898 -216 786 -216 c 2,33,-1
 274 -216 l 2,34,35
 196 -216 196 -216 154 -264 c 1,10,-1
EndSplineSet
EndChar

StartChar: tm_nnna
Encoding: 2985 2985 71
Width: 1800
GlyphClass: 2
Flags: W
LayerCount: 2
Fore
SplineSet
294 0 m 2,0,1
 244 0 244 0 204 40 c 128,-1,2
 164 80 164 80 154 140 c 2,3,-1
 54 580 l 2,4,5
 44 624 44 624 44 700 c 0,6,7
 44 762 44 762 96 806 c 128,-1,8
 148 850 148 850 224 850 c 2,9,-1
 1064 850 l 2,10,11
 1128 850 1128 850 1176 800 c 128,-1,12
 1224 750 1224 750 1224 680 c 2,13,-1
 1224 190 l 2,14,15
 1224 98 1224 98 1162 44 c 128,-1,16
 1100 -10 1100 -10 1004 -10 c 2,17,-1
 884 -10 l 2,18,19
 784 -10 784 -10 724 45 c 128,-1,20
 664 100 664 100 664 190 c 2,21,-1
 664 670 l 1,22,-1
 884 670 l 1,23,-1
 884 190 l 2,24,25
 884 168 884 168 900 154 c 128,-1,26
 916 140 916 140 944 140 c 0,27,28
 1004 140 1004 140 1004 190 c 2,29,-1
 1004 620 l 2,30,31
 1004 652 1004 652 984 676 c 128,-1,32
 964 700 964 700 934 700 c 2,33,-1
 304 700 l 2,34,35
 254 700 254 700 254 660 c 0,36,37
 254 610 254 610 264 570 c 2,38,-1
 344 190 l 2,39,40
 354 140 354 140 384 140 c 256,41,42
 414 140 414 140 414 180 c 2,43,-1
 414 420 l 1,44,-1
 314 420 l 1,45,-1
 314 580 l 1,46,-1
 624 580 l 1,47,-1
 624 100 l 2,48,49
 624 56 624 56 601 28 c 128,-1,50
 578 0 578 0 544 0 c 2,51,-1
 294 0 l 2,0,1
1374 -70 m 1,52,-1
 1374 700 l 1,53,-1
 1264 700 l 1,54,-1
 1264 850 l 1,55,-1
 1784 850 l 1,56,-1
 1694 700 l 1,57,-1
 1584 700 l 1,58,-1
 1584 30 l 1,59,-1
 1374 -70 l 1,52,-1
EndSplineSet
EndChar

StartChar: tm_pa
Encoding: 2986 2986 72
Width: 1120
GlyphClass: 2
Flags: W
LayerCount: 2
Fore
SplineSet
120 0 m 1,0,-1
 120 848 l 1,1,-1
 344 848 l 1,2,-1
 344 160 l 1,3,-1
 776 160 l 1,4,-1
 776 816 l 1,5,-1
 1000 944 l 1,6,-1
 1000 0 l 1,7,-1
 120 0 l 1,0,-1
EndSplineSet
EndChar

StartChar: tm_ma
Encoding: 2990 2990 73
Width: 1328
GlyphClass: 2
Flags: W
LayerCount: 2
Fore
SplineSet
120 0 m 1,0,-1
 120 872 l 1,1,-1
 344 768 l 1,2,-1
 344 160 l 1,3,-1
 816 160 l 1,4,-1
 1024 568 l 2,5,6
 1056 622 1056 622 1056 656 c 0,7,8
 1056 688 1056 688 1016 688 c 2,9,-1
 776 688 l 1,10,-1
 776 200 l 1,11,-1
 552 272 l 1,12,-1
 552 848 l 1,13,-1
 1136 848 l 2,14,15
 1198 848 1198 848 1243 810 c 128,-1,16
 1288 772 1288 772 1288 720 c 0,17,18
 1288 642 1288 642 1240 560 c 1,19,-1
 944 0 l 1,20,-1
 120 0 l 1,0,-1
EndSplineSet
EndChar

StartChar: tm_ya
Encoding: 2991 2991 74
Width: 1346
GlyphClass: 2
Flags: W
LayerCount: 2
Fore
SplineSet
282 0 m 2,0,1
 212 0 212 0 162 52 c 128,-1,2
 112 104 112 104 112 180 c 2,3,-1
 112 850 l 1,4,-1
 332 850 l 1,5,-1
 332 220 l 2,6,7
 332 186 332 186 361 163 c 128,-1,8
 390 140 390 140 432 140 c 256,9,10
 474 140 474 140 503 163 c 128,-1,11
 532 186 532 186 532 220 c 2,12,-1
 532 850 l 1,13,-1
 752 850 l 1,14,-1
 752 180 l 2,15,16
 752 104 752 104 712 52 c 128,-1,17
 672 0 672 0 612 0 c 2,18,-1
 282 0 l 2,0,1
772 0 m 1,19,-1
 772 160 l 1,20,-1
 1012 160 l 1,21,-1
 1012 880 l 1,22,-1
 1232 780 l 1,23,-1
 1232 0 l 1,24,-1
 772 0 l 1,19,-1
EndSplineSet
EndChar

StartChar: tm_ra
Encoding: 2992 2992 75
Width: 916
GlyphClass: 2
Flags: W
LayerCount: 2
Fore
SplineSet
124 0 m 1,0,-1
 124 848 l 1,1,-1
 900 848 l 1,2,-1
 812 688 l 1,3,-1
 348 688 l 1,4,-1
 348 0 l 1,5,-1
 124 0 l 1,0,-1
164 -284 m 1,6,-1
 112 -122 l 1,7,-1
 492 -20 l 1,8,-1
 492 656 l 1,9,-1
 716 656 l 1,10,-1
 716 -128 l 1,11,-1
 164 -284 l 1,6,-1
EndSplineSet
EndChar

StartChar: tm_rra
Encoding: 2993 2993 76
Width: 1398
GlyphClass: 2
Flags: W
LayerCount: 2
Fore
SplineSet
162 -240 m 1,0,-1
 90 -96 l 1,1,2
 144 -48 144 -48 202 -48 c 2,3,-1
 866 -48 l 2,4,5
 956 -48 956 -48 1011 -1 c 128,-1,6
 1066 46 1066 46 1066 120 c 0,7,8
 1066 166 1066 166 1034 232 c 0,9,10
 1002 290 1002 290 1002 336 c 0,11,12
 1002 374 1002 374 1034 432 c 0,13,14
 1074 506 1074 506 1074 576 c 0,15,16
 1074 624 1074 624 1042 656 c 128,-1,17
 1010 688 1010 688 962 688 c 2,18,-1
 826 688 l 1,19,-1
 826 848 l 1,20,-1
 1130 848 l 2,21,22
 1200 848 1200 848 1249 785 c 128,-1,23
 1298 722 1298 722 1298 632 c 0,24,25
 1298 554 1298 554 1274 464 c 1,26,27
 1242 400 1242 400 1242 336 c 0,28,29
 1242 314 1242 314 1266 224 c 1,30,31
 1290 160 1290 160 1290 80 c 0,32,33
 1290 -46 1290 -46 1212 -118 c 0,34,35
 1176 -152 1176 -152 1120 -172 c 128,-1,36
 1064 -192 1064 -192 1002 -192 c 2,37,-1
 306 -192 l 2,38,39
 210 -192 210 -192 162 -240 c 1,0,-1
330 0 m 1,40,-1
 106 112 l 1,41,-1
 106 688 l 2,42,43
 106 752 106 752 144 800 c 128,-1,44
 182 848 182 848 234 848 c 2,45,-1
 666 848 l 2,46,47
 718 848 718 848 756 804 c 128,-1,48
 794 760 794 760 794 696 c 2,49,-1
 794 0 l 1,50,-1
 570 0 l 1,51,-1
 570 608 l 2,52,53
 570 642 570 642 549 665 c 128,-1,54
 528 688 528 688 498 688 c 2,55,-1
 394 688 l 2,56,57
 366 688 366 688 348 666 c 128,-1,58
 330 644 330 644 330 608 c 2,59,-1
 330 0 l 1,40,-1
EndSplineSet
EndChar

StartChar: tm_la
Encoding: 2994 2994 77
Width: 1582
GlyphClass: 2
Flags: W
LayerCount: 2
Fore
SplineSet
370 0 m 2,0,1
 308 0 308 0 258 52 c 128,-1,2
 208 104 208 104 184 192 c 2,3,-1
 64 592 l 2,4,5
 50 628 50 628 50 712 c 0,6,7
 50 768 50 768 92 808 c 128,-1,8
 134 848 134 848 194 848 c 2,9,-1
 986 848 l 1,10,-1
 986 160 l 1,11,-1
 1122 160 l 2,12,13
 1208 160 1208 160 1226 256 c 2,14,-1
 1266 496 l 2,15,16
 1274 546 1274 546 1278 574 c 128,-1,17
 1282 602 1282 602 1282 624 c 0,18,19
 1282 688 1282 688 1218 688 c 2,20,-1
 1050 688 l 1,21,-1
 1050 848 l 1,22,-1
 1346 848 l 2,23,24
 1414 848 1414 848 1464 806 c 128,-1,25
 1514 764 1514 764 1514 704 c 0,26,27
 1514 656 1514 656 1490 520 c 2,28,-1
 1426 168 l 2,29,30
 1412 96 1412 96 1372 48 c 128,-1,31
 1332 0 1332 0 1282 0 c 2,32,-1
 860 0 l 1,33,-1
 762 160 l 1,34,-1
 762 672 l 1,35,-1
 338 672 l 2,36,37
 314 672 314 672 298 660 c 128,-1,38
 282 648 282 648 282 632 c 0,39,40
 280 616 280 616 288 586 c 0,41,42
 304 536 304 536 314 496 c 1,43,-1
 314 592 l 1,44,-1
 682 592 l 1,45,-1
 682 136 l 2,46,47
 682 80 682 80 652 40 c 128,-1,48
 622 0 622 0 578 0 c 2,49,-1
 370 0 l 2,0,1
426 176 m 0,50,51
 458 180 458 180 458 224 c 2,52,-1
 458 368 l 2,53,54
 458 432 458 432 418 432 c 2,55,-1
 330 432 l 1,56,-1
 378 224 l 1,57,58
 396 176 396 176 426 176 c 0,50,51
EndSplineSet
EndChar

StartChar: tm_lla
Encoding: 2995 2995 78
Width: 1860
GlyphClass: 2
Flags: W
LayerCount: 2
Fore
SplineSet
306 0 m 2,0,1
 270 0 270 0 235 47 c 128,-1,2
 200 94 200 94 178 176 c 2,3,-1
 80 520 l 2,4,5
 70 560 70 560 64 604 c 128,-1,6
 58 648 58 648 58 696 c 0,7,8
 58 760 58 760 96 804 c 128,-1,9
 134 848 134 848 194 848 c 2,10,-1
 962 848 l 2,11,12
 1028 848 1028 848 1075 799 c 128,-1,13
 1122 750 1122 750 1122 680 c 2,14,-1
 1122 0 l 1,15,-1
 898 0 l 1,16,-1
 898 608 l 2,17,18
 898 640 898 640 880 664 c 128,-1,19
 862 688 862 688 834 688 c 2,20,-1
 330 688 l 2,21,22
 266 688 266 688 266 656 c 0,23,24
 266 612 266 612 290 560 c 1,25,-1
 378 200 l 2,26,27
 394 136 394 136 442 136 c 0,28,29
 466 136 466 136 482 156 c 128,-1,30
 498 176 498 176 498 208 c 2,31,-1
 498 384 l 1,32,-1
 370 384 l 1,33,-1
 370 544 l 1,34,-1
 722 544 l 1,35,-1
 722 152 l 2,36,37
 722 88 722 88 690 44 c 128,-1,38
 658 0 658 0 610 0 c 2,39,-1
 306 0 l 2,0,1
1410 -96 m 1,40,-1
 1410 688 l 1,41,-1
 1154 688 l 1,42,-1
 1154 848 l 1,43,-1
 1842 848 l 1,44,-1
 1778 688 l 1,45,-1
 1634 688 l 1,46,-1
 1634 16 l 1,47,-1
 1410 -96 l 1,40,-1
EndSplineSet
EndChar

StartChar: tm_llla
Encoding: 2996 2996 79
Width: 1330
GlyphClass: 2
Flags: W
LayerCount: 2
Fore
SplineSet
120 0 m 1,0,-1
 120 872 l 1,1,-1
 344 768 l 1,2,-1
 344 160 l 1,3,-1
 552 160 l 1,4,-1
 552 848 l 1,5,-1
 1136 848 l 2,6,7
 1198 848 1198 848 1243 810 c 128,-1,8
 1288 772 1288 772 1288 720 c 0,9,10
 1288 642 1288 642 1240 560 c 1,11,-1
 944 0 l 1,12,-1
 120 0 l 1,0,-1
552 -16 m 1,13,-1
 792 -16 l 1,14,-1
 896 -88 l 1,15,16
 1048 0 1048 0 1096 0 c 0,17,18
 1136 0 1136 0 1304 -144 c 1,19,-1
 1128 -288 l 1,20,21
 1032 -208 1032 -208 1008 -208 c 0,22,23
 982 -208 982 -208 944 -224 c 0,24,25
 838 -278 838 -278 742 -324 c 1,26,-1
 328 -324 l 2,27,28
 296 -324 296 -324 244 -286 c 128,-1,29
 192 -248 192 -248 120 -176 c 1,30,-1
 320 -64 l 1,31,32
 362 -126 362 -126 405 -159 c 128,-1,33
 448 -192 448 -192 488 -192 c 2,34,-1
 624 -192 l 2,35,36
 702 -192 702 -192 784 -144 c 1,37,-1
 552 -16 l 1,13,-1
824 160 m 1,38,-1
 1024 568 l 1,39,40
 1056 622 1056 622 1056 656 c 0,41,42
 1056 688 1056 688 1016 688 c 2,43,-1
 776 688 l 1,44,-1
 776 160 l 1,45,-1
 824 160 l 1,38,-1
EndSplineSet
EndChar

StartChar: tm_va
Encoding: 2997 2997 80
Width: 1506
GlyphClass: 2
Flags: W
LayerCount: 2
Fore
SplineSet
370 0 m 2,0,1
 308 0 308 0 258 52 c 128,-1,2
 208 104 208 104 184 192 c 2,3,-1
 74 592 l 1,4,5
 50 658 50 658 50 712 c 0,6,7
 50 768 50 768 92 808 c 128,-1,8
 134 848 134 848 194 848 c 2,9,-1
 986 848 l 1,10,-1
 986 160 l 1,11,-1
 1162 160 l 1,12,-1
 1162 848 l 1,13,-1
 1386 928 l 1,14,-1
 1386 0 l 1,15,-1
 840 0 l 1,16,-1
 762 160 l 1,17,-1
 762 672 l 1,18,-1
 338 672 l 2,19,20
 314 672 314 672 298 660 c 128,-1,21
 282 648 282 648 282 632 c 0,22,23
 280 616 280 616 288 586 c 0,24,25
 304 536 304 536 314 496 c 1,26,-1
 314 592 l 1,27,-1
 682 592 l 1,28,-1
 682 136 l 2,29,30
 682 80 682 80 652 40 c 128,-1,31
 622 0 622 0 578 0 c 2,32,-1
 370 0 l 2,0,1
426 176 m 0,33,34
 458 180 458 180 458 224 c 2,35,-1
 458 368 l 2,36,37
 458 432 458 432 418 432 c 2,38,-1
 330 432 l 1,39,-1
 378 224 l 1,40,41
 396 176 396 176 426 176 c 0,33,34
EndSplineSet
EndChar

StartChar: tm_ssa
Encoding: 2999 2999 81
Width: 1898
GlyphClass: 2
Flags: W
LayerCount: 2
Fore
SplineSet
788 0 m 1,0,-1
 724 160 l 1,1,-1
 1162 160 l 1,2,-1
 1490 536 l 2,3,4
 1562 624 1562 624 1562 648 c 0,5,6
 1558 688 1558 688 1506 688 c 2,7,-1
 1370 688 l 2,8,9
 1306 688 1306 688 1306 648 c 0,10,11
 1306 616 1306 616 1410 544 c 1,12,-1
 1298 416 l 1,13,-1
 1218 480 l 1,14,15
 1098 582 1098 582 1098 688 c 0,16,17
 1098 754 1098 754 1147 801 c 128,-1,18
 1196 848 1196 848 1266 848 c 2,19,-1
 1658 848 l 2,20,21
 1722 848 1722 848 1766 806 c 128,-1,22
 1810 764 1810 764 1810 704 c 0,23,24
 1810 626 1810 626 1706 504 c 2,25,-1
 1410 160 l 1,26,-1
 1578 160 l 2,27,28
 1594 158 1594 158 1606 166 c 128,-1,29
 1618 174 1618 174 1618 184 c 0,30,31
 1614 216 1614 216 1546 256 c 1,32,-1
 1666 384 l 1,33,34
 1842 236 1842 236 1842 128 c 0,35,36
 1842 76 1842 76 1804 38 c 128,-1,37
 1766 0 1766 0 1714 0 c 2,38,-1
 1266 0 l 1,39,-1
 1010 -304 l 1,40,-1
 866 -192 l 1,41,-1
 1026 0 l 1,42,-1
 788 0 l 1,0,-1
372 0 m 2,43,44
 316 0 316 0 268 44 c 128,-1,45
 220 88 220 88 200 160 c 2,46,-1
 88 496 l 1,47,48
 50 596 50 596 50 712 c 0,49,50
 50 768 50 768 92 808 c 128,-1,51
 134 848 134 848 194 848 c 2,52,-1
 986 848 l 1,53,-1
 986 192 l 1,54,-1
 762 192 l 1,55,-1
 762 688 l 1,56,-1
 346 688 l 2,57,58
 312 688 312 688 289 672 c 128,-1,59
 266 656 266 656 266 632 c 0,60,61
 266 602 266 602 290 512 c 2,62,-1
 362 256 l 2,63,64
 374 212 374 212 389 186 c 128,-1,65
 404 160 404 160 418 160 c 0,66,67
 458 160 458 160 458 200 c 2,68,-1
 458 432 l 1,69,-1
 330 432 l 1,70,-1
 330 592 l 1,71,-1
 682 592 l 1,72,-1
 682 136 l 2,73,74
 682 78 682 78 650 39 c 128,-1,75
 618 0 618 0 570 0 c 2,76,-1
 372 0 l 2,43,44
EndSplineSet
EndChar

StartChar: tm_sa
Encoding: 3000 3000 82
Width: 2228
GlyphClass: 2
Flags: W
LayerCount: 2
Fore
SplineSet
334 0 m 2,0,1
 290 0 290 0 248 49 c 128,-1,2
 206 98 206 98 184 176 c 2,3,-1
 78 520 l 2,4,5
 46 634 46 634 46 696 c 0,6,7
 46 760 46 760 88 804 c 128,-1,8
 130 848 130 848 192 848 c 2,9,-1
 960 848 l 2,10,11
 1026 848 1026 848 1073 799 c 128,-1,12
 1120 750 1120 750 1120 680 c 2,13,-1
 1120 0 l 1,14,-1
 896 0 l 1,15,-1
 896 608 l 2,16,17
 896 640 896 640 878 664 c 128,-1,18
 860 688 860 688 832 688 c 2,19,-1
 328 688 l 2,20,21
 274 688 274 688 274 656 c 0,22,23
 274 588 274 588 288 560 c 1,24,-1
 376 200 l 1,25,26
 396 136 396 136 432 136 c 0,27,28
 460 136 460 136 478 156 c 128,-1,29
 496 176 496 176 496 208 c 2,30,-1
 496 384 l 1,31,-1
 368 384 l 1,32,-1
 368 544 l 1,33,-1
 720 544 l 1,34,-1
 720 152 l 2,35,36
 720 88 720 88 688 44 c 128,-1,37
 656 0 656 0 608 0 c 2,38,-1
 334 0 l 2,0,1
1152 848 m 1,39,-1
 1632 848 l 1,40,-1
 1632 160 l 1,41,-1
 1768 160 l 2,42,43
 1854 160 1854 160 1872 264 c 2,44,-1
 1912 496 l 2,45,46
 1920 546 1920 546 1924 574 c 128,-1,47
 1928 602 1928 602 1928 624 c 0,48,49
 1928 688 1928 688 1864 688 c 2,50,-1
 1712 688 l 1,51,-1
 1712 848 l 1,52,-1
 1992 848 l 2,53,54
 2060 848 2060 848 2110 806 c 128,-1,55
 2160 764 2160 764 2160 704 c 0,56,57
 2160 656 2160 656 2136 520 c 2,58,-1
 2072 176 l 2,59,60
 2060 98 2060 98 2020 49 c 128,-1,61
 1980 0 1980 0 1928 0 c 2,62,-1
 1416 0 l 1,63,-1
 1344 160 l 1,64,-1
 1408 160 l 1,65,-1
 1408 688 l 1,66,-1
 1152 688 l 1,67,-1
 1152 848 l 1,39,-1
EndSplineSet
EndChar

StartChar: tm_ha
Encoding: 3001 3001 83
Width: 2454
GlyphClass: 2
Flags: W
LayerCount: 2
Fore
SplineSet
1212 -240 m 1,0,-1
 1142 -100 l 1,1,2
 1198 -50 1198 -50 1262 -50 c 2,3,-1
 1922 -50 l 2,4,5
 2010 -50 2010 -50 2060 -4 c 1,6,7
 2112 38 2112 38 2112 120 c 0,8,9
 2112 168 2112 168 2082 250 c 1,10,11
 2062 288 2062 288 2062 340 c 0,12,13
 2062 378 2062 378 2092 430 c 0,14,15
 2132 504 2132 504 2132 580 c 0,16,17
 2132 626 2132 626 2100 658 c 128,-1,18
 2068 690 2068 690 2022 690 c 2,19,-1
 1882 690 l 1,20,-1
 1882 850 l 1,21,-1
 2182 850 l 2,22,23
 2252 850 2252 850 2302 786 c 128,-1,24
 2352 722 2352 722 2352 630 c 0,25,26
 2352 532 2352 532 2332 460 c 1,27,28
 2302 394 2302 394 2302 340 c 0,29,30
 2302 292 2302 292 2322 220 c 1,31,32
 2342 168 2342 168 2342 80 c 0,33,34
 2342 -44 2342 -44 2266 -116 c 0,35,36
 2232 -150 2232 -150 2178 -170 c 128,-1,37
 2124 -190 2124 -190 2062 -190 c 2,38,-1
 1362 -190 l 2,39,40
 1262 -190 1262 -190 1212 -240 c 1,0,-1
832 0 m 1,41,-1
 742 160 l 1,42,-1
 1162 160 l 1,43,-1
 1162 690 l 2,44,45
 1162 754 1162 754 1200 802 c 128,-1,46
 1238 850 1238 850 1292 850 c 2,47,-1
 1702 850 l 2,48,49
 1756 850 1756 850 1794 806 c 128,-1,50
 1832 762 1832 762 1832 700 c 2,51,-1
 1832 0 l 1,52,-1
 1612 0 l 1,53,-1
 1612 610 l 2,54,55
 1612 642 1612 642 1592 666 c 128,-1,56
 1572 690 1572 690 1542 690 c 2,57,-1
 1452 690 l 2,58,59
 1422 690 1422 690 1402 668 c 128,-1,60
 1382 646 1382 646 1382 610 c 2,61,-1
 1382 0 l 1,62,-1
 832 0 l 1,41,-1
362 0 m 2,63,64
 310 0 310 0 266 44 c 128,-1,65
 222 88 222 88 202 160 c 1,66,-1
 82 500 l 2,67,68
 42 614 42 614 42 710 c 0,69,70
 42 770 42 770 86 810 c 128,-1,71
 130 850 130 850 192 850 c 2,72,-1
 982 850 l 1,73,-1
 982 190 l 1,74,-1
 762 190 l 1,75,-1
 762 690 l 1,76,-1
 342 690 l 2,77,78
 308 690 308 690 285 673 c 128,-1,79
 262 656 262 656 262 630 c 0,80,81
 262 612 262 612 272 577 c 128,-1,82
 282 542 282 542 292 510 c 2,83,-1
 362 260 l 2,84,85
 372 218 372 218 389 189 c 128,-1,86
 406 160 406 160 422 160 c 0,87,88
 462 160 462 160 462 200 c 2,89,-1
 462 430 l 1,90,-1
 332 430 l 1,91,-1
 332 590 l 1,92,-1
 682 590 l 1,93,-1
 682 140 l 2,94,95
 682 80 682 80 650 40 c 128,-1,96
 618 0 618 0 572 0 c 2,97,-1
 362 0 l 2,63,64
EndSplineSet
EndChar

StartChar: tm_aakaar
Encoding: 3006 3006 84
Width: 904
GlyphClass: 2
Flags: W
LayerCount: 2
Fore
SplineSet
488 -112 m 1,0,-1
 488 656 l 1,1,-1
 712 656 l 1,2,-1
 712 0 l 1,3,-1
 488 -112 l 1,0,-1
120 0 m 1,4,-1
 120 848 l 1,5,-1
 968 848 l 1,6,-1
 898 688 l 1,7,-1
 344 688 l 1,8,-1
 344 0 l 1,9,-1
 120 0 l 1,4,-1
EndSplineSet
EndChar

StartChar: tm_ikaar
Encoding: 3007 3007 85
Width: 530
GlyphClass: 2
Flags: W
LayerCount: 2
Fore
SplineSet
258 20 m 1,0,-1
 100 20 l 1,1,-1
 100 1022 l 2,2,3
 100 1362 100 1362 -106 1362 c 2,4,-1
 -172 1362 l 2,5,6
 -256 1362 -256 1362 -316 1296 c 128,-1,7
 -376 1230 -376 1230 -376 1136 c 2,8,-1
 -376 1088 l 2,9,10
 -376 1016 -376 1016 -332 974 c 1,11,-1
 -492 974 l 1,12,13
 -510 992 -510 992 -522 1024 c 1,14,-1
 -536 1088 l 1,15,-1
 -536 1136 l 2,16,17
 -536 1280 -536 1280 -438 1378 c 128,-1,18
 -340 1476 -340 1476 -172 1476 c 2,19,-1
 -106 1476 l 2,20,21
 62 1476 62 1476 160 1347 c 128,-1,22
 258 1218 258 1218 258 1022 c 2,23,-1
 258 20 l 1,0,-1
EndSplineSet
EndChar

StartChar: tm_iikaar
Encoding: 3008 3008 86
Width: 0
GlyphClass: 4
Flags: W
LayerCount: 2
Fore
SplineSet
-130 1342 m 2,0,1
 -130 1300 -130 1300 -180 1248 c 1,2,3
 -230 1204 -230 1204 -290 1204 c 2,4,-1
 -380 1204 l 2,5,6
 -456 1204 -456 1204 -508 1258 c 0,7,8
 -556 1312 -556 1312 -556 1390 c 2,9,-1
 -554 1434 l 2,10,11
 -554 1448 -554 1448 -540 1478 c 1,12,13
 -588 1478 -588 1478 -644 1428 c 128,-1,14
 -700 1378 -700 1378 -700 1318 c 2,15,-1
 -700 1270 l 2,16,17
 -700 1226 -700 1226 -680 1178 c 128,-1,18
 -660 1130 -660 1130 -630 1090 c 1,19,-1
 -790 1090 l 1,20,-1
 -812 1132 l 1,21,-1
 -832 1178 l 2,22,23
 -856 1242 -856 1242 -856 1270 c 2,24,-1
 -856 1342 l 2,25,26
 -856 1438 -856 1438 -759 1517 c 128,-1,27
 -662 1596 -662 1596 -546 1596 c 2,28,-1
 -414 1596 l 2,29,30
 -318 1596 -318 1596 -224 1541 c 128,-1,31
 -130 1486 -130 1486 -130 1408 c 2,32,-1
 -130 1342 l 2,0,1
-290 1388 m 2,33,-1
 -290 1430 l 2,34,35
 -290 1456 -290 1456 -300 1466 c 2,36,-1
 -324 1488 l 1,37,-1
 -358 1496 l 1,38,39
 -384 1496 -384 1496 -402 1481 c 128,-1,40
 -420 1466 -420 1466 -428 1430 c 1,41,-1
 -428 1388 l 2,42,43
 -428 1358 -428 1358 -410 1340 c 128,-1,44
 -392 1322 -392 1322 -358 1318 c 0,45,46
 -334 1318 -334 1318 -310 1336 c 1,47,48
 -290 1356 -290 1356 -290 1388 c 2,33,-1
EndSplineSet
EndChar

StartChar: tm_ukaar
Encoding: 3009 3009 87
Width: 686
GlyphClass: 4
Flags: W
LayerCount: 2
Fore
SplineSet
240 256 m 2,0,1
 176 256 176 256 132 304 c 128,-1,2
 88 352 88 352 88 424 c 2,3,-1
 88 688 l 1,4,-1
 -296 688 l 1,5,-1
 -208 848 l 1,6,-1
 520 848 l 2,7,8
 574 848 574 848 611 797 c 128,-1,9
 648 746 648 746 648 672 c 2,10,-1
 648 440 l 2,11,12
 648 364 648 364 603 310 c 128,-1,13
 558 256 558 256 488 256 c 2,14,-1
 240 256 l 2,0,1
368 384 m 256,15,16
 392 384 392 384 408 404 c 128,-1,17
 424 424 424 424 424 456 c 2,18,-1
 424 608 l 2,19,20
 424 640 424 640 410 664 c 128,-1,21
 396 688 396 688 376 688 c 2,22,-1
 312 688 l 1,23,-1
 312 448 l 2,24,25
 312 420 312 420 328 402 c 128,-1,26
 344 384 344 384 368 384 c 256,15,16
EndSplineSet
EndChar

StartChar: tm_uukaar
Encoding: 3010 3010 88
Width: 1029
GlyphClass: 4
Flags: W
LayerCount: 2
Fore
SplineSet
232 256 m 2,0,1
 172 256 172 256 130 305 c 128,-1,2
 88 354 88 354 88 424 c 2,3,-1
 88 688 l 1,4,-1
 -296 688 l 1,5,-1
 -208 848 l 1,6,-1
 88 848 l 1,7,-1
 88 968 l 2,8,9
 88 1082 88 1082 175 1153 c 128,-1,10
 262 1224 262 1224 408 1224 c 2,11,-1
 672 1224 l 2,12,13
 740 1224 740 1224 796 1202 c 128,-1,14
 852 1180 852 1180 896 1134 c 0,15,16
 984 1046 984 1046 984 904 c 2,17,-1
 984 248 l 2,18,19
 984 146 984 146 923 73 c 128,-1,20
 862 0 862 0 776 0 c 2,21,-1
 384 0 l 1,22,-1
 472 160 l 1,23,-1
 680 160 l 2,24,25
 712 160 712 160 736 188 c 128,-1,26
 760 216 760 216 760 256 c 2,27,-1
 760 912 l 2,28,29
 760 976 760 976 722 1020 c 128,-1,30
 684 1064 684 1064 624 1064 c 2,31,-1
 432 1064 l 2,32,33
 382 1064 382 1064 347 1029 c 128,-1,34
 312 994 312 994 312 944 c 2,35,-1
 312 848 l 1,36,-1
 520 848 l 2,37,38
 574 848 574 848 611 797 c 128,-1,39
 648 746 648 746 648 672 c 2,40,-1
 648 440 l 2,41,42
 648 364 648 364 601 310 c 128,-1,43
 554 256 554 256 480 256 c 2,44,-1
 232 256 l 2,0,1
368 384 m 256,45,46
 392 384 392 384 408 404 c 128,-1,47
 424 424 424 424 424 456 c 2,48,-1
 424 608 l 2,49,50
 424 640 424 640 410 664 c 128,-1,51
 396 688 396 688 376 688 c 2,52,-1
 312 688 l 1,53,-1
 312 448 l 2,54,55
 312 420 312 420 328 402 c 128,-1,56
 344 384 344 384 368 384 c 256,45,46
EndSplineSet
EndChar

StartChar: tm_ekaar
Encoding: 3014 3014 89
Width: 1128
GlyphClass: 2
Flags: W
LayerCount: 2
Fore
SplineSet
802 -48 m 1,0,-1
 802 804 l 2,1,2
 802 868 802 868 748 914 c 128,-1,3
 694 960 694 960 618 960 c 2,4,-1
 498 960 l 2,5,6
 426 960 426 960 374 916 c 128,-1,7
 322 872 322 872 322 808 c 2,8,-1
 322 272 l 2,9,10
 322 244 322 244 349 226 c 128,-1,11
 376 208 376 208 418 208 c 0,12,13
 450 208 450 208 474 226 c 128,-1,14
 498 244 498 244 498 272 c 2,15,-1
 498 432 l 1,16,-1
 370 432 l 1,17,-1
 370 592 l 1,18,-1
 722 592 l 1,19,-1
 722 232 l 2,20,21
 722 136 722 136 636 68 c 128,-1,22
 550 0 550 0 426 0 c 0,23,24
 290 0 290 0 194 70 c 128,-1,25
 98 140 98 140 98 240 c 2,26,-1
 98 808 l 2,27,28
 98 966 98 966 215 1071 c 128,-1,29
 332 1176 332 1176 514 1176 c 2,30,-1
 578 1176 l 2,31,32
 784 1176 784 1176 905 1073 c 128,-1,33
 1026 970 1026 970 1026 804 c 2,34,-1
 1026 120 l 1,35,-1
 802 -48 l 1,0,-1
EndSplineSet
EndChar

StartChar: tm_eekaar
Encoding: 3015 3015 90
Width: 904
GlyphClass: 2
Flags: W
LayerCount: 2
Fore
SplineSet
456 -20 m 0,0,1
 300 -20 300 -20 188 124 c 128,-1,2
 76 268 76 268 76 470 c 2,3,-1
 76 710 l 2,4,5
 76 910 76 910 186 1050 c 128,-1,6
 296 1190 296 1190 456 1190 c 0,7,8
 612 1190 612 1190 724 1082 c 128,-1,9
 836 974 836 974 836 820 c 0,10,11
 836 766 836 766 796 728 c 128,-1,12
 756 690 756 690 696 690 c 2,13,-1
 426 690 l 1,14,-1
 366 840 l 1,15,-1
 536 840 l 2,16,17
 576 840 576 840 576 880 c 0,18,19
 576 922 576 922 547 951 c 128,-1,20
 518 980 518 980 476 980 c 0,21,22
 404 980 404 980 350 900 c 128,-1,23
 296 820 296 820 296 710 c 2,24,-1
 296 460 l 2,25,26
 296 330 296 330 348 240 c 128,-1,27
 400 150 400 150 476 150 c 0,28,29
 516 150 516 150 546 188 c 128,-1,30
 576 226 576 226 576 280 c 0,31,32
 576 320 576 320 536 320 c 2,33,-1
 366 320 l 1,34,-1
 426 480 l 1,35,-1
 696 480 l 2,36,37
 756 480 756 480 796 440 c 128,-1,38
 836 400 836 400 836 340 c 0,39,40
 836 190 836 190 725 85 c 128,-1,41
 614 -20 614 -20 456 -20 c 0,0,1
EndSplineSet
EndChar

StartChar: tm_aikaar
Encoding: 3016 3016 91
Width: 1890
GlyphClass: 2
Flags: W
LayerCount: 2
Fore
SplineSet
308 0 m 2,0,1
 258 0 258 0 217 47 c 128,-1,2
 176 94 176 94 162 168 c 2,3,-1
 74 544 l 2,4,5
 60 594 60 594 60 696 c 0,6,7
 60 760 60 760 108 804 c 128,-1,8
 156 848 156 848 228 848 c 2,9,-1
 1060 848 l 2,10,11
 1134 848 1134 848 1185 799 c 128,-1,12
 1236 750 1236 750 1236 680 c 2,13,-1
 1236 208 l 2,14,15
 1236 124 1236 124 1180 62 c 128,-1,16
 1124 0 1124 0 1044 0 c 2,17,-1
 876 0 l 2,18,19
 792 0 792 0 734 58 c 128,-1,20
 676 116 676 116 676 200 c 2,21,-1
 676 656 l 1,22,-1
 900 656 l 1,23,-1
 900 192 l 2,24,25
 900 164 900 164 916 146 c 128,-1,26
 932 128 932 128 956 128 c 256,27,28
 980 128 980 128 996 146 c 128,-1,29
 1012 164 1012 164 1012 192 c 2,30,-1
 1012 552 l 2,31,32
 1012 612 1012 612 979 650 c 128,-1,33
 946 688 946 688 892 688 c 2,34,-1
 332 688 l 2,35,36
 304 688 304 688 286 672 c 128,-1,37
 268 656 268 656 268 632 c 0,38,39
 268 568 268 568 284 520 c 1,40,-1
 340 216 l 2,41,42
 354 144 354 144 388 144 c 0,43,44
 420 144 420 144 420 184 c 2,45,-1
 420 416 l 1,46,-1
 324 416 l 1,47,-1
 324 560 l 1,48,-1
 644 560 l 1,49,-1
 644 104 l 2,50,51
 644 60 644 60 614 30 c 128,-1,52
 584 0 584 0 540 0 c 2,53,-1
 308 0 l 2,0,1
1316 0 m 1,54,-1
 1316 160 l 1,55,-1
 1420 160 l 2,56,57
 1506 160 1506 160 1524 256 c 2,58,-1
 1564 480 l 2,59,60
 1580 576 1580 576 1580 624 c 0,61,62
 1580 652 1580 652 1560 670 c 128,-1,63
 1540 688 1540 688 1508 688 c 2,64,-1
 1268 688 l 1,65,-1
 1268 848 l 1,66,-1
 1652 848 l 2,67,68
 1720 848 1720 848 1770 806 c 128,-1,69
 1820 764 1820 764 1820 704 c 0,70,71
 1820 624 1820 624 1796 488 c 2,72,-1
 1732 168 l 2,73,74
 1718 96 1718 96 1678 48 c 128,-1,75
 1638 0 1638 0 1588 0 c 2,76,-1
 1316 0 l 1,54,-1
EndSplineSet
EndChar

StartChar: tm_halant
Encoding: 3021 3021 95
Width: 0
GlyphClass: 4
Flags: W
LayerCount: 2
Fore
SplineSet
-496 1388 m 0,0,1
 -496 1326 -496 1326 -536 1285 c 128,-1,2
 -576 1244 -576 1244 -646 1244 c 0,3,4
 -712 1244 -712 1244 -750 1284 c 0,5,6
 -784 1324 -784 1324 -784 1394 c 0,7,8
 -784 1460 -784 1460 -742 1496 c 128,-1,9
 -700 1532 -700 1532 -640 1532 c 0,10,11
 -574 1532 -574 1532 -532 1484 c 0,12,13
 -496 1442 -496 1442 -496 1388 c 0,0,1
EndSplineSet
EndChar

StartChar: tm_two
Encoding: 3048 3048 98
Width: 1425
GlyphClass: 2
Flags: W
LayerCount: 2
Fore
SplineSet
1244 70 m 1,0,-1
 1226 0 l 1,1,-1
 586 0 l 2,2,3
 429 0 429 0 429 106 c 0,4,5
 429 153 429 153 478 181.5 c 128,-1,6
 527 210 527 210 586 210 c 2,7,-1
 779 210 l 2,8,9
 867 210 867 210 928 271.5 c 128,-1,10
 989 333 989 333 989 420 c 0,11,12
 989 500 989 500 945 560.5 c 128,-1,13
 901 621 901 621 831 621 c 0,14,15
 793 621 793 621 744 595 c 1,16,17
 814 555 814 555 814 437 c 0,18,19
 814 382 814 382 772.5 344.5 c 128,-1,20
 731 307 731 307 675 307 c 0,21,22
 618 307 618 307 580 351 c 128,-1,23
 542 395 542 395 542 455 c 0,24,25
 542 565 542 565 646.5 632.5 c 128,-1,26
 751 700 751 700 884 700 c 0,27,28
 987 700 987 700 1058 629 c 128,-1,29
 1129 558 1129 558 1129 455 c 0,30,31
 1129 321 1129 321 1025.5 230.5 c 128,-1,32
 922 140 922 140 779 140 c 2,33,-1
 595 140 l 2,34,35
 551 140 551 140 551 106 c 0,36,37
 551 70 551 70 604 70 c 2,38,-1
 1244 70 l 1,0,-1
675 560 m 1,39,40
 621 516 621 516 621 473 c 0,41,42
 621 386 621 386 666 386 c 0,43,44
 709 386 709 386 709 473 c 0,45,46
 709 518 709 518 675 560 c 1,39,40
EndSplineSet
EndChar

StartChar: tm_three
Encoding: 3049 3049 99
Width: 1424
GlyphClass: 2
Flags: W
LayerCount: 2
Fore
SplineSet
1270 70 m 1,0,-1
 1252 0 l 1,1,-1
 640 0 l 1,2,-1
 657 70 l 1,3,-1
 780 70 l 2,4,5
 874 70 874 70 941 130.5 c 128,-1,6
 1008 191 1008 191 1008 280 c 0,7,8
 1008 317 1008 317 982.5 342.5 c 128,-1,9
 957 368 957 368 920 368 c 0,10,11
 890 368 890 368 865 341 c 128,-1,12
 840 314 840 314 833 280 c 2,13,-1
 815 193 l 1,14,-1
 675 193 l 1,15,-1
 764 630 l 1,16,-1
 571 630 l 1,17,-1
 444 0 l 1,18,-1
 378 0 l 1,19,-1
 517 700 l 1,20,-1
 1095 700 l 1,21,-1
 1077 630 l 1,22,-1
 902 630 l 1,23,-1
 859 403 l 1,24,25
 918 455 918 455 990 455 c 0,26,27
 1057 455 1057 455 1102.5 403.5 c 128,-1,28
 1148 352 1148 352 1148 280 c 0,29,30
 1148 209 1148 209 1090 151 c 128,-1,31
 1032 93 1032 93 947 70 c 1,32,-1
 1270 70 l 1,0,-1
EndSplineSet
EndChar

StartChar: tm_four
Encoding: 3050 3050 100
Width: 1427
GlyphClass: 2
Flags: W
LayerCount: 2
Fore
SplineSet
915 316 m 1,0,-1
 644 316 l 2,1,2
 601 316 601 316 570.5 291 c 128,-1,3
 540 266 540 266 540 228 c 0,4,5
 540 158 540 158 609.5 114 c 128,-1,6
 679 70 679 70 766 70 c 0,7,8
 811 70 811 70 844 99.5 c 128,-1,9
 877 129 877 129 887 175 c 2,10,-1
 915 316 l 1,0,-1
979 630 m 1,11,-1
 784 630 l 1,12,-1
 735 386 l 1,13,-1
 930 386 l 1,14,-1
 979 630 l 1,11,-1
1042 245 m 2,15,16
 1017 125 1017 125 940 62.5 c 128,-1,17
 863 0 863 0 766 0 c 0,18,19
 651 0 651 0 559.5 64 c 128,-1,20
 468 128 468 128 468 228 c 0,21,22
 468 294 468 294 520.5 340 c 128,-1,23
 573 386 573 386 644 386 c 2,24,-1
 669 386 l 1,25,-1
 731 700 l 1,26,-1
 1344 700 l 1,27,-1
 1329 630 l 1,28,-1
 1118 630 l 1,29,-1
 1068 386 l 1,30,-1
 1232 386 l 1,31,-1
 1248 464 l 1,32,-1
 1309 464 l 1,33,-1
 1279 316 l 1,34,-1
 1055 316 l 1,35,-1
 1042 245 l 2,15,16
EndSplineSet
EndChar

StartChar: tm_five
Encoding: 3051 3051 101
Width: 1424
GlyphClass: 2
Flags: W
LayerCount: 2
Fore
SplineSet
1412 517 m 1,0,-1
 1359 526 l 1,1,2
 1369 563 1369 563 1369 598 c 0,3,4
 1369 723 1369 723 1253.5 825.5 c 128,-1,5
 1138 928 1138 928 965 928 c 0,6,7
 728 928 728 928 575.5 716 c 128,-1,8
 423 504 423 504 423 228 c 0,9,10
 423 -43 423 -43 515 -179.5 c 128,-1,11
 607 -316 607 -316 790 -316 c 0,12,13
 979 -316 979 -316 1103.5 -163.5 c 128,-1,14
 1228 -11 1228 -11 1228 193 c 0,15,16
 1228 257 1228 257 1200 304.5 c 128,-1,17
 1172 352 1172 352 1126 352 c 0,18,19
 1099 352 1099 352 1072.5 336.5 c 128,-1,20
 1046 321 1046 321 1039 298 c 2,21,-1
 980 0 l 1,22,-1
 840 0 l 1,23,-1
 965 630 l 1,24,-1
 759 630 l 1,25,-1
 634 0 l 1,26,-1
 566 0 l 1,27,-1
 706 700 l 1,28,-1
 1237 700 l 1,29,-1
 1219 630 l 1,30,-1
 1105 630 l 1,31,-1
 1057 386 l 1,32,33
 1101 437 1101 437 1171 437 c 0,34,35
 1261 437 1261 437 1314.5 368.5 c 128,-1,36
 1368 300 1368 300 1368 193 c 0,37,38
 1368 -47 1368 -47 1202.5 -216 c 128,-1,39
 1037 -385 1037 -385 799 -385 c 0,40,41
 589 -385 589 -385 471.5 -223 c 128,-1,42
 354 -61 354 -61 354 193 c 0,43,44
 354 513 354 513 519 764 c 128,-1,45
 684 1015 684 1015 948 1015 c 0,46,47
 1152 1015 1152 1015 1288.5 889.5 c 128,-1,48
 1425 764 1425 764 1425 613 c 0,49,50
 1425 566 1425 566 1412 517 c 1,0,-1
EndSplineSet
EndChar

StartChar: tm_six
Encoding: 3052 3052 102
Width: 1424
GlyphClass: 2
Flags: W
LayerCount: 2
Fore
SplineSet
784 316 m 1,0,-1
 513 316 l 2,1,2
 469 316 469 316 438 291 c 128,-1,3
 407 266 407 266 407 228 c 0,4,5
 407 158 407 158 477 114 c 128,-1,6
 547 70 547 70 635 70 c 0,7,8
 680 70 680 70 713 99.5 c 128,-1,9
 746 129 746 129 756 175 c 2,10,-1
 784 316 l 1,0,-1
846 630 m 1,11,-1
 653 630 l 1,12,-1
 603 386 l 1,13,-1
 798 386 l 1,14,-1
 846 630 l 1,11,-1
910 245 m 2,15,16
 884 125 884 125 808 62.5 c 128,-1,17
 732 0 732 0 635 0 c 0,18,19
 518 0 518 0 428 64 c 128,-1,20
 338 128 338 128 338 228 c 0,21,22
 338 294 338 294 389.5 340 c 128,-1,23
 441 386 441 386 513 386 c 2,24,-1
 537 386 l 1,25,-1
 600 700 l 1,26,-1
 1229 700 l 1,27,-1
 1213 630 l 1,28,-1
 988 630 l 1,29,-1
 938 386 l 1,30,-1
 1422 386 l 1,31,-1
 1410 316 l 1,32,-1
 1353 316 l 1,33,-1
 1291 0 l 1,34,-1
 1151 0 l 1,35,-1
 1213 316 l 1,36,-1
 1116 316 l 1,37,-1
 1055 0 l 1,38,-1
 967 0 l 1,39,-1
 1028 316 l 1,40,-1
 924 316 l 1,41,-1
 910 245 l 2,15,16
EndSplineSet
EndChar

StartChar: tm_seven
Encoding: 3053 3053 103
Width: 1425
GlyphClass: 2
Flags: W
LayerCount: 2
Fore
SplineSet
643 88 m 1,0,1
 706 88 706 88 753 128 c 128,-1,2
 800 168 800 168 800 228 c 0,3,4
 800 269 800 269 781 301 c 128,-1,5
 762 333 762 333 729 333 c 0,6,7
 684 333 684 333 654.5 296.5 c 128,-1,8
 625 260 625 260 625 210 c 0,9,10
 625 135 625 135 643 88 c 1,0,1
1042 0 m 1,11,-1
 1167 630 l 1,12,-1
 852 630 l 2,13,14
 704 630 704 630 594.5 540.5 c 128,-1,15
 485 451 485 451 485 316 c 0,16,17
 485 247 485 247 507 194.5 c 128,-1,18
 529 142 529 142 572 106 c 1,19,20
 555 135 555 135 555 228 c 256,21,22
 555 321 555 321 614.5 388 c 128,-1,23
 674 455 674 455 765 455 c 0,24,25
 837 455 837 455 884 398 c 128,-1,26
 931 341 931 341 931 263 c 0,27,28
 931 155 931 155 863 77.5 c 128,-1,29
 795 0 795 0 695 0 c 0,30,31
 576 0 576 0 495.5 94 c 128,-1,32
 415 188 415 188 415 316 c 0,33,34
 415 481 415 481 545.5 590.5 c 128,-1,35
 676 700 676 700 852 700 c 2,36,-1
 1430 700 l 1,37,-1
 1412 630 l 1,38,-1
 1307 630 l 1,39,-1
 1181 0 l 1,40,-1
 1042 0 l 1,11,-1
EndSplineSet
EndChar

StartChar: tm_eight
Encoding: 3054 3054 104
Width: 1427
GlyphClass: 2
Flags: W
LayerCount: 2
Fore
SplineSet
849 629 m 1,0,1
 745 611 745 611 670 548.5 c 128,-1,2
 595 486 595 486 595 402 c 0,3,4
 595 338 595 338 638.5 291 c 128,-1,5
 682 244 682 244 744 244 c 0,6,7
 817 244 817 244 864 307.5 c 128,-1,8
 911 371 911 371 911 454 c 0,9,10
 911 580 911 580 849 629 c 1,0,1
1024 140 m 1,11,-1
 411 140 l 2,12,13
 381 140 381 140 357 125 c 128,-1,14
 333 110 333 110 333 87 c 0,15,16
 333 43 333 43 412 -13.5 c 128,-1,17
 491 -70 491 -70 639 -70 c 0,18,19
 743 -70 743 -70 839.5 -18 c 128,-1,20
 936 34 936 34 1024 140 c 1,11,-1
1414 -245 m 1,21,-1
 1269 -245 l 1,22,-1
 1348 140 l 1,23,-1
 1164 140 l 1,24,25
 1051 4 1051 4 915 -63.5 c 128,-1,26
 779 -131 779 -131 621 -131 c 0,27,28
 421 -131 421 -131 311.5 -52.5 c 128,-1,29
 202 26 202 26 202 123 c 0,30,31
 202 160 202 160 233 184.5 c 128,-1,32
 264 209 264 209 307 209 c 2,33,-1
 666 209 l 1,34,35
 604 231 604 231 565 284.5 c 128,-1,36
 526 338 526 338 526 402 c 0,37,38
 526 534 526 534 652 617 c 128,-1,39
 778 700 778 700 937 700 c 0,40,41
 1069 700 1069 700 1169 620.5 c 128,-1,42
 1269 541 1269 541 1269 420 c 0,43,44
 1269 306 1269 306 1213 209 c 1,45,-1
 1364 209 l 1,46,-1
 1463 700 l 1,47,-1
 1603 700 l 1,48,-1
 1414 -245 l 1,21,-1
989 620 m 1,49,50
 1042 530 1042 530 1042 411 c 0,51,52
 1042 267 1042 267 919 209 c 1,53,-1
 1077 209 l 1,54,55
 1146 308 1146 308 1146 402 c 0,56,57
 1146 486 1146 486 1103 553 c 128,-1,58
 1060 620 1060 620 989 620 c 1,49,50
EndSplineSet
EndChar

StartChar: tm_nine
Encoding: 3055 3055 105
Width: 1427
GlyphClass: 2
Flags: W
LayerCount: 2
Fore
SplineSet
692 316 m 1,0,-1
 422 316 l 2,1,2
 379 316 379 316 348 291 c 128,-1,3
 317 266 317 266 317 228 c 0,4,5
 317 158 317 158 387 114 c 128,-1,6
 457 70 457 70 544 70 c 0,7,8
 589 70 589 70 622 99.5 c 128,-1,9
 655 129 655 129 665 175 c 2,10,-1
 692 316 l 1,0,-1
756 630 m 1,11,-1
 562 630 l 1,12,-1
 513 386 l 1,13,-1
 707 386 l 1,14,-1
 756 630 l 1,11,-1
1157 175 m 0,15,16
 1157 259 1157 259 1052 298 c 1,17,18
 982 240 982 240 982 158 c 0,19,20
 982 121 982 121 1007.5 95.5 c 128,-1,21
 1033 70 1033 70 1068 70 c 0,22,23
 1107 70 1107 70 1132 101.5 c 128,-1,24
 1157 133 1157 133 1157 175 c 0,15,16
1297 0 m 1,25,26
 1375 93 1375 93 1375 193 c 0,27,28
 1375 263 1375 263 1332.5 315.5 c 128,-1,29
 1290 368 1290 368 1226 368 c 0,30,31
 1163 368 1163 368 1113 342 c 1,32,33
 1167 322 1167 322 1201 276.5 c 128,-1,34
 1235 231 1235 231 1235 175 c 0,35,36
 1235 104 1235 104 1187 52 c 128,-1,37
 1139 0 1139 0 1068 0 c 0,38,39
 1005 0 1005 0 958.5 46.5 c 128,-1,40
 912 93 912 93 912 158 c 0,41,42
 912 257 912 257 982 316 c 1,43,-1
 833 316 l 1,44,-1
 819 245 l 2,45,46
 795 125 795 125 718.5 62.5 c 128,-1,47
 642 0 642 0 544 0 c 0,48,49
 428 0 428 0 337 64 c 128,-1,50
 246 128 246 128 246 228 c 0,51,52
 246 294 246 294 299 340 c 128,-1,53
 352 386 352 386 422 386 c 2,54,-1
 446 386 l 1,55,-1
 508 700 l 1,56,-1
 1122 700 l 1,57,-1
 1104 630 l 1,58,-1
 896 630 l 1,59,-1
 847 386 l 1,60,-1
 947 386 l 2,61,62
 1014 386 1014 386 1052 368 c 1,63,64
 1111 420 1111 420 1226 420 c 0,65,66
 1327 420 1327 420 1399.5 354.5 c 128,-1,67
 1472 289 1472 289 1472 193 c 0,68,69
 1472 109 1472 109 1410 0 c 1,70,-1
 1297 0 l 1,25,26
EndSplineSet
EndChar

StartChar: tm_ten
Encoding: 3056 3056 106
Width: 1260
GlyphClass: 2
Flags: W
LayerCount: 2
Fore
SplineSet
597 149 m 1,0,1
 558 74 558 74 508 37 c 128,-1,2
 458 0 458 0 395 0 c 0,3,4
 302 0 302 0 242 64 c 128,-1,5
 182 128 182 128 182 200 c 0,6,7
 182 224 182 224 186 244 c 2,8,-1
 279 700 l 1,9,-1
 419 700 l 1,10,-1
 325 244 l 2,11,12
 320 223 320 223 320 205 c 0,13,14
 320 155 320 155 346.5 112.5 c 128,-1,15
 373 70 373 70 413 70 c 0,16,17
 472 70 472 70 525 146 c 128,-1,18
 578 222 578 222 606 359 c 2,19,-1
 675 700 l 1,20,-1
 815 700 l 1,21,-1
 746 351 l 2,22,23
 728 262 728 262 728 204 c 0,24,25
 728 150 728 150 760.5 110 c 128,-1,26
 793 70 793 70 841 70 c 0,27,28
 957 70 957 70 1026 204 c 128,-1,29
 1095 338 1095 338 1095 500 c 0,30,31
 1095 691 1095 691 995.5 840 c 128,-1,32
 896 989 896 989 737 989 c 1,33,-1
 755 1042 l 1,34,35
 960 1042 960 1042 1097.5 880.5 c 128,-1,36
 1235 719 1235 719 1235 500 c 0,37,38
 1235 300 1235 300 1118.5 150 c 128,-1,39
 1002 0 1002 0 824 0 c 0,40,41
 739 0 739 0 673.5 40.5 c 128,-1,42
 608 81 608 81 597 149 c 1,0,1
EndSplineSet
EndChar

StartChar: tm_hundred
Encoding: 3057 3057 107
Width: 1166
GlyphClass: 2
Flags: W
LayerCount: 2
Fore
SplineSet
1284 700 m 1,0,-1
 1267 629 l 1,1,-1
 1117 629 l 1,2,-1
 991 0 l 1,3,-1
 851 0 l 1,4,-1
 977 629 l 1,5,-1
 770 629 l 1,6,-1
 644 0 l 1,7,-1
 504 0 l 1,8,-1
 599 472 l 2,9,10
 606 507 606 507 606 534 c 0,11,12
 606 579 606 579 589 613 c 128,-1,13
 572 647 572 647 540 647 c 0,14,15
 483 647 483 647 440 595.5 c 128,-1,16
 397 544 397 544 382 472 c 2,17,-1
 285 0 l 1,18,-1
 146 0 l 1,19,-1
 242 472 l 2,20,21
 263 577 263 577 336.5 647 c 128,-1,22
 410 717 410 717 503 717 c 0,23,24
 567 717 567 717 614 679.5 c 128,-1,25
 661 642 661 642 661 585 c 1,26,-1
 685 700 l 1,27,-1
 1284 700 l 1,0,-1
EndSplineSet
EndChar

StartChar: tm_thousand
Encoding: 3058 3058 108
Width: 1256
GlyphClass: 2
Flags: W
LayerCount: 2
Fore
SplineSet
551 316 m 1,0,-1
 280 316 l 2,1,2
 237 316 237 316 206 291 c 128,-1,3
 175 266 175 266 175 228 c 0,4,5
 175 158 175 158 245.5 114 c 128,-1,6
 316 70 316 70 402 70 c 0,7,8
 447 70 447 70 480 99.5 c 128,-1,9
 513 129 513 129 523 175 c 2,10,-1
 551 316 l 1,0,-1
615 630 m 1,11,-1
 420 630 l 1,12,-1
 371 386 l 1,13,-1
 565 386 l 1,14,-1
 615 630 l 1,11,-1
677 245 m 2,15,16
 653 125 653 125 576 62.5 c 128,-1,17
 499 0 499 0 402 0 c 0,18,19
 285 0 285 0 195 64 c 128,-1,20
 105 128 105 128 105 228 c 0,21,22
 105 294 105 294 156.5 340 c 128,-1,23
 208 386 208 386 280 386 c 2,24,-1
 304 386 l 1,25,-1
 367 700 l 1,26,-1
 997 700 l 1,27,-1
 983 630 l 1,28,-1
 755 630 l 1,29,-1
 705 386 l 1,30,-1
 1120 386 l 1,31,-1
 1105 316 l 1,32,-1
 971 316 l 1,33,-1
 945 175 l 1,34,35
 990 228 990 228 1067 228 c 0,36,37
 1134 228 1134 228 1179.5 176 c 128,-1,38
 1225 124 1225 124 1225 53 c 0,39,40
 1225 -78 1225 -78 1108 -161 c 128,-1,41
 991 -244 991 -244 840 -244 c 0,42,43
 740 -244 740 -244 542 -205 c 0,44,45
 346 -167 346 -167 244 -167 c 0,46,47
 181 -167 181 -167 134 -206.5 c 128,-1,48
 87 -246 87 -246 87 -307 c 0,49,50
 87 -384 87 -384 158 -411 c 1,51,-1
 149 -445 l 1,52,53
 82 -433 82 -433 36.5 -387 c 128,-1,54
 -9 -341 -9 -341 -9 -280 c 0,55,56
 -9 -205 -9 -205 70.5 -159.5 c 128,-1,57
 150 -114 150 -114 244 -114 c 0,58,59
 346 -114 346 -114 542 -153 c 0,60,61
 740 -192 740 -192 840 -192 c 0,62,63
 938 -192 938 -192 1011.5 -135 c 128,-1,64
 1085 -78 1085 -78 1085 9 c 0,65,66
 1085 61 1085 61 1061 100.5 c 128,-1,67
 1037 140 1037 140 997 140 c 256,68,69
 957 140 957 140 927 88 c 1,70,-1
 910 0 l 1,71,-1
 769 0 l 1,72,-1
 831 316 l 1,73,-1
 691 316 l 1,74,-1
 677 245 l 2,15,16
EndSplineSet
EndChar

StartChar: zerowidthnonjoiner
Encoding: 8204 8204 109
Width: 0
GlyphClass: 2
Flags: W
LayerCount: 2
Fore
SplineSet
315 1225 m 1,0,-1
 -34 -516 l 1,1,-1
 -103 -516 l 1,2,-1
 244 1225 l 1,3,-1
 315 1225 l 1,0,-1
EndSplineSet
EndChar

StartChar: zerowidthjoiner
Encoding: 8205 8205 110
Width: 0
GlyphClass: 2
Flags: W
LayerCount: 2
Fore
SplineSet
415 997 m 1,0,-1
 363 953 l 1,1,-1
 270 1073 l 1,2,-1
 -24 -441 l 1,3,-1
 -87 -441 l 1,4,-1
 206 1073 l 1,5,-1
 65 953 l 1,6,-1
 32 997 l 1,7,-1
 210 1145 l 1,8,-1
 89 1292 l 1,9,-1
 140 1334 l 1,10,-1
 260 1185 l 1,11,-1
 437 1334 l 1,12,-1
 472 1292 l 1,13,-1
 294 1145 l 1,14,-1
 415 997 l 1,0,-1
EndSplineSet
EndChar

StartChar: u2013
Encoding: 8211 8211 111
Width: 722
GlyphClass: 2
Flags: W
LayerCount: 2
Fore
SplineSet
733 319 m 1,0,-1
 -12 319 l 1,1,-1
 -12 370 l 1,2,-1
 733 370 l 1,3,-1
 733 319 l 1,0,-1
EndSplineSet
EndChar

StartChar: u2014
Encoding: 8212 8212 112
Width: 1284
GlyphClass: 2
Flags: W
LayerCount: 2
Fore
SplineSet
1296 318 m 1,0,-1
 -13 319 l 1,1,-1
 -13 371 l 1,2,-1
 1296 370 l 1,3,-1
 1296 318 l 1,0,-1
EndSplineSet
EndChar

StartChar: u2018
Encoding: 65539 -1 113
Width: 444
GlyphClass: 2
Flags: W
LayerCount: 2
Fore
SplineSet
314 1192 m 1,0,-1
 314 988 l 1,1,-1
 126 988 l 1,2,-1
 126 1148 l 2,3,4
 126 1218 126 1218 132 1260 c 128,-1,5
 138 1302 138 1302 156 1338 c 0,6,7
 198 1408 198 1408 286 1456 c 1,8,-1
 330 1388 l 1,9,10
 278 1370 278 1370 250 1319 c 128,-1,11
 222 1268 222 1268 222 1192 c 1,12,-1
 314 1192 l 1,0,-1
EndSplineSet
EndChar

StartChar: u2019
Encoding: 65540 -1 114
Width: 444
GlyphClass: 2
Flags: W
LayerCount: 2
Fore
SplineSet
122 1242 m 1,0,-1
 122 1446 l 1,1,-1
 310 1446 l 1,2,-1
 310 1286 l 2,3,4
 310 1162 310 1162 280 1096 c 1,5,6
 242 1024 242 1024 148 978 c 1,7,-1
 106 1046 l 1,8,9
 152 1064 152 1064 182 1113 c 128,-1,10
 212 1162 212 1162 212 1242 c 1,11,-1
 122 1242 l 1,0,-1
EndSplineSet
EndChar

StartChar: u201C
Encoding: 65541 -1 115
Width: 666
GlyphClass: 2
Flags: W
LayerCount: 2
Fore
SplineSet
270 1192 m 1,0,-1
 270 988 l 1,1,-1
 82 988 l 1,2,-1
 82 1148 l 2,3,4
 82 1218 82 1218 88 1260 c 128,-1,5
 94 1302 94 1302 112 1338 c 0,6,7
 154 1408 154 1408 242 1456 c 1,8,-1
 286 1388 l 1,9,10
 234 1370 234 1370 206 1319 c 128,-1,11
 178 1268 178 1268 178 1192 c 1,12,-1
 270 1192 l 1,0,-1
572 1192 m 1,13,-1
 572 988 l 1,14,-1
 384 988 l 1,15,-1
 384 1148 l 2,16,17
 384 1286 384 1286 419 1347 c 128,-1,18
 454 1408 454 1408 544 1456 c 1,19,-1
 588 1388 l 1,20,21
 536 1370 536 1370 508 1319 c 128,-1,22
 480 1268 480 1268 480 1192 c 1,23,-1
 572 1192 l 1,13,-1
EndSplineSet
EndChar

StartChar: u201D
Encoding: 65542 -1 116
Width: 666
GlyphClass: 2
Flags: W
LayerCount: 2
Fore
SplineSet
84 1242 m 1,0,-1
 84 1446 l 1,1,-1
 274 1446 l 1,2,-1
 274 1286 l 2,3,4
 274 1162 274 1162 244 1096 c 1,5,6
 206 1024 206 1024 112 978 c 1,7,-1
 70 1046 l 1,8,9
 116 1064 116 1064 146 1113 c 128,-1,10
 176 1162 176 1162 176 1242 c 1,11,-1
 84 1242 l 1,0,-1
388 1242 m 1,12,-1
 388 1446 l 1,13,-1
 576 1446 l 1,14,-1
 576 1286 l 2,15,16
 576 1162 576 1162 546 1096 c 1,17,18
 504 1022 504 1022 416 978 c 1,19,-1
 372 1046 l 1,20,21
 422 1064 422 1064 451 1116 c 128,-1,22
 480 1168 480 1168 480 1242 c 1,23,-1
 388 1242 l 1,12,-1
EndSplineSet
EndChar

StartChar: u2026
Encoding: 8230 8230 117
Width: 1283
GlyphClass: 2
Flags: W
LayerCount: 2
Fore
SplineSet
265 136 m 0,0,1
 298 136 298 136 320.5 114 c 128,-1,2
 343 92 343 92 343 58 c 0,3,4
 343 26 343 26 320.5 3 c 128,-1,5
 298 -20 298 -20 265 -20 c 0,6,7
 233 -20 233 -20 210 3 c 128,-1,8
 187 26 187 26 187 58 c 0,9,10
 187 92 187 92 210 114 c 128,-1,11
 233 136 233 136 265 136 c 0,0,1
638 136 m 256,12,13
 670 136 670 136 693 114 c 128,-1,14
 716 92 716 92 716 58 c 0,15,16
 716 26 716 26 692.5 3 c 128,-1,17
 669 -20 669 -20 638 -20 c 0,18,19
 606 -20 606 -20 583 3 c 128,-1,20
 560 26 560 26 560 58 c 0,21,22
 560 92 560 92 583 114 c 128,-1,23
 606 136 606 136 638 136 c 256,12,13
1010 136 m 0,24,25
 1043 136 1043 136 1066 114 c 128,-1,26
 1089 92 1089 92 1089 58 c 0,27,28
 1089 26 1089 26 1065.5 3 c 128,-1,29
 1042 -20 1042 -20 1010 -20 c 256,30,31
 978 -20 978 -20 955.5 3 c 128,-1,32
 933 26 933 26 933 58 c 0,33,34
 933 92 933 92 955.5 114 c 128,-1,35
 978 136 978 136 1010 136 c 0,24,25
EndSplineSet
EndChar

StartChar: u2212
Encoding: 8722 8722 118
Width: 974
GlyphClass: 2
Flags: W
LayerCount: 2
Fore
SplineSet
133 450 m 1,0,-1
 133 508 l 1,1,-1
 894 508 l 1,2,-1
 894 450 l 1,3,-1
 133 450 l 1,0,-1
EndSplineSet
EndChar

StartChar: u25CC
Encoding: 9676 9676 119
Width: 1167
GlyphClass: 2
Flags: W
LayerCount: 2
Fore
SplineSet
654 665 m 0,0,1
 626 665 626 665 612 679 c 128,-1,2
 598 693 598 693 598 724 c 0,3,4
 598 746 598 746 615 762.5 c 128,-1,5
 632 779 632 779 654 779 c 0,6,7
 683 779 683 779 697.5 765 c 128,-1,8
 712 751 712 751 712 724 c 0,9,10
 712 693 712 693 697.5 679 c 128,-1,11
 683 665 683 665 654 665 c 0,0,1
840 616 m 0,12,13
 811 616 811 616 796.5 630.5 c 128,-1,14
 782 645 782 645 782 674 c 0,15,16
 782 701 782 701 796.5 715 c 128,-1,17
 811 729 811 729 840 729 c 0,18,19
 862 729 862 729 879 713 c 128,-1,20
 896 697 896 697 896 674 c 0,21,22
 896 645 896 645 882 630.5 c 128,-1,23
 868 616 868 616 840 616 c 0,12,13
470 616 m 0,24,25
 442 616 442 616 428 630.5 c 128,-1,26
 414 645 414 645 414 674 c 0,27,28
 414 697 414 697 431 713 c 128,-1,29
 448 729 448 729 470 729 c 0,30,31
 494 729 494 729 510 713 c 128,-1,32
 526 697 526 697 526 674 c 0,33,34
 526 645 526 645 512.5 630.5 c 128,-1,35
 499 616 499 616 470 616 c 0,24,25
973 482 m 0,36,37
 951 482 951 482 933.5 498 c 128,-1,38
 916 514 916 514 916 538 c 0,39,40
 916 567 916 567 930.5 581 c 128,-1,41
 945 595 945 595 973 595 c 256,42,43
 1001 595 1001 595 1014.5 581 c 128,-1,44
 1028 567 1028 567 1028 538 c 0,45,46
 1028 514 1028 514 1012 498 c 128,-1,47
 996 482 996 482 973 482 c 0,36,37
336 482 m 0,48,49
 307 482 307 482 293 495.5 c 128,-1,50
 279 509 279 509 279 538 c 256,51,52
 279 567 279 567 293 581 c 128,-1,53
 307 595 307 595 336 595 c 0,54,55
 364 595 364 595 378 581 c 128,-1,56
 392 567 392 567 392 538 c 0,57,58
 392 514 392 514 375 498 c 128,-1,59
 358 482 358 482 336 482 c 0,48,49
1024 298 m 0,60,61
 994 298 994 298 979.5 311.5 c 128,-1,62
 965 325 965 325 965 354 c 0,63,64
 965 382 965 382 979.5 396 c 128,-1,65
 994 410 994 410 1024 410 c 0,66,67
 1046 410 1046 410 1063 393 c 128,-1,68
 1080 376 1080 376 1080 354 c 0,69,70
 1080 331 1080 331 1063 314.5 c 128,-1,71
 1046 298 1046 298 1024 298 c 0,60,61
287 298 m 0,72,73
 257 298 257 298 243 311.5 c 128,-1,74
 229 325 229 325 229 354 c 0,75,76
 229 382 229 382 243 396 c 128,-1,77
 257 410 257 410 287 410 c 0,78,79
 310 410 310 410 326.5 393 c 128,-1,80
 343 376 343 376 343 354 c 0,81,82
 343 331 343 331 326.5 314.5 c 128,-1,83
 310 298 310 298 287 298 c 0,72,73
973 112 m 256,84,85
 945 112 945 112 930.5 126.5 c 128,-1,86
 916 141 916 141 916 169 c 0,87,88
 916 193 916 193 933.5 209.5 c 128,-1,89
 951 226 951 226 973 226 c 0,90,91
 996 226 996 226 1012 209.5 c 128,-1,92
 1028 193 1028 193 1028 169 c 0,93,94
 1028 141 1028 141 1014.5 126.5 c 128,-1,95
 1001 112 1001 112 973 112 c 256,84,85
336 112 m 0,96,97
 307 112 307 112 293 126.5 c 128,-1,98
 279 141 279 141 279 169 c 0,99,100
 279 198 279 198 293 212 c 128,-1,101
 307 226 307 226 336 226 c 0,102,103
 358 226 358 226 375 209.5 c 128,-1,104
 392 193 392 193 392 169 c 0,105,106
 392 141 392 141 378 126.5 c 128,-1,107
 364 112 364 112 336 112 c 0,96,97
840 -22 m 0,108,109
 811 -22 811 -22 796.5 -8 c 128,-1,110
 782 6 782 6 782 34 c 0,111,112
 782 63 782 63 796.5 78 c 128,-1,113
 811 93 811 93 840 93 c 0,114,115
 863 93 863 93 879.5 75 c 128,-1,116
 896 57 896 57 896 34 c 256,117,118
 896 11 896 11 879 -5.5 c 128,-1,119
 862 -22 862 -22 840 -22 c 0,108,109
470 -22 m 0,120,121
 448 -22 448 -22 431 -5.5 c 128,-1,122
 414 11 414 11 414 34 c 256,123,124
 414 57 414 57 430.5 75 c 128,-1,125
 447 93 447 93 470 93 c 0,126,127
 495 93 495 93 510.5 75 c 128,-1,128
 526 57 526 57 526 34 c 256,129,130
 526 11 526 11 510 -5.5 c 128,-1,131
 494 -22 494 -22 470 -22 c 0,120,121
654 -72 m 0,132,133
 632 -72 632 -72 615 -55 c 128,-1,134
 598 -38 598 -38 598 -16 c 0,135,136
 598 14 598 14 612 28.5 c 128,-1,137
 626 43 626 43 654 43 c 0,138,139
 683 43 683 43 697.5 28.5 c 128,-1,140
 712 14 712 14 712 -16 c 0,141,142
 712 -44 712 -44 697.5 -58 c 128,-1,143
 683 -72 683 -72 654 -72 c 0,132,133
EndSplineSet
EndChar

StartChar: tm_k_ikaar
Encoding: 65543 -1 120
Width: 1336
GlyphClass: 2
Flags: W
LayerCount: 2
Fore
SplineSet
602 -8 m 0,0,1
 482 -8 482 -8 378 18 c 128,-1,2
 274 44 274 44 196 93 c 128,-1,3
 118 142 118 142 76 209 c 128,-1,4
 34 276 34 276 34 352 c 0,5,6
 34 400 34 400 68 432 c 128,-1,7
 102 464 102 464 154 464 c 2,8,-1
 570 464 l 1,9,-1
 570 656 l 1,10,-1
 794 656 l 1,11,-1
 794 110 l 2,12,13
 794 60 794 60 738 26 c 128,-1,14
 682 -8 682 -8 602 -8 c 0,0,1
522 176 m 0,15,16
 570 176 570 176 570 200 c 2,17,-1
 570 304 l 1,18,-1
 346 304 l 2,19,20
 330 306 330 306 318 298 c 128,-1,21
 306 290 306 290 306 280 c 0,22,23
 310 246 310 246 382 211 c 128,-1,24
 454 176 454 176 522 176 c 0,15,16
832 -8 m 1,25,-1
 936 184 l 1,26,27
 986 184 986 184 1037 211 c 128,-1,28
 1088 238 1088 238 1088 268 c 0,29,30
 1092 304 1092 304 1064 304 c 2,31,-1
 836 304 l 1,32,-1
 836 464 l 1,33,-1
 1256 464 l 2,34,35
 1286 464 1286 464 1307 429 c 128,-1,36
 1328 394 1328 394 1328 344 c 0,37,38
 1328 270 1328 270 1291 201 c 128,-1,39
 1254 132 1254 132 1192 88 c 0,40,41
 1056 -8 1056 -8 832 -8 c 1,25,-1
426 480 m 1,42,-1
 202 544 l 1,43,-1
 202 848 l 1,44,-1
 1074 848 l 1,45,-1
 994 688 l 1,46,-1
 426 688 l 1,47,-1
 426 480 l 1,42,-1
602 880 m 2,48,49
 530 880 530 880 478 934 c 128,-1,50
 426 988 426 988 426 1064 c 0,51,52
 426 1138 426 1138 487 1189 c 128,-1,53
 548 1240 548 1240 634 1240 c 0,54,55
 686 1240 686 1240 754 1228 c 0,56,57
 914 1200 914 1200 954 1200 c 0,58,59
 1034 1200 1034 1200 1114 1256 c 1,60,-1
 1202 1120 l 1,61,62
 1096 1048 1096 1048 994 1048 c 0,63,64
 952 1048 952 1048 866 1064 c 128,-1,65
 780 1080 780 1080 738 1080 c 0,66,67
 690 1080 690 1080 690 1048 c 1,68,69
 694 1024 694 1024 738 1024 c 2,70,-1
 890 1024 l 1,71,-1
 890 880 l 1,72,-1
 602 880 l 2,48,49
EndSplineSet
Ligature2: "'psts' Post Base Substitutions lookup 8 subtable" tm_ka tm_ikaar
EndChar

StartChar: tm_ng_ikaar
Encoding: 65544 -1 121
Width: 1440
GlyphClass: 2
Flags: W
LayerCount: 2
Fore
SplineSet
728 1082 m 2,0,1
 728 1150 728 1150 784 1200 c 128,-1,2
 840 1250 840 1250 920 1250 c 0,3,4
 974 1250 974 1250 1046 1238 c 0,5,6
 1214 1210 1214 1210 1256 1210 c 0,7,8
 1336 1210 1336 1210 1416 1266 c 1,9,-1
 1504 1130 l 1,10,11
 1390 1050 1390 1050 1304 1050 c 0,12,13
 1260 1050 1260 1050 1170 1066 c 128,-1,14
 1080 1082 1080 1082 1032 1082 c 0,15,16
 998 1082 998 1082 975 1066 c 128,-1,17
 952 1050 952 1050 952 1026 c 2,18,-1
 952 858 l 2,19,20
 952 830 952 830 1016 794 c 1,21,-1
 1064 762 l 1,22,-1
 1064 562 l 1,23,-1
 864 666 l 2,24,25
 806 696 806 696 770 746 c 1,26,-1
 740 700 l 1,27,-1
 690 700 l 1,28,-1
 690 602 l 1,29,30
 724 620 724 620 760 620 c 0,31,32
 870 620 870 620 945 559 c 128,-1,33
 1020 498 1020 498 1020 410 c 0,34,35
 1020 332 1020 332 972 260 c 128,-1,36
 924 188 924 188 840 140 c 1,37,-1
 1100 140 l 1,38,-1
 1100 850 l 1,39,-1
 1320 970 l 1,40,-1
 1320 0 l 1,41,-1
 500 0 l 1,42,-1
 500 142 l 1,43,44
 640 196 640 196 725 267 c 128,-1,45
 810 338 810 338 810 400 c 0,46,47
 810 422 810 422 794 436 c 128,-1,48
 778 450 778 450 750 450 c 0,49,50
 690 450 690 450 690 400 c 2,51,-1
 690 370 l 1,52,-1
 470 260 l 1,53,-1
 470 700 l 1,54,-1
 350 700 l 1,55,-1
 350 -100 l 1,56,-1
 130 -180 l 1,57,-1
 130 850 l 1,58,-1
 730 850 l 1,59,-1
 728 882 l 1,60,-1
 728 1082 l 2,0,1
EndSplineSet
Ligature2: "'psts' Post Base Substitutions lookup 8 subtable" tm_nga tm_ikaar
EndChar

StartChar: tm_c_ikaar
Encoding: 65545 -1 122
Width: 1194
GlyphClass: 2
Flags: W
LayerCount: 2
Fore
SplineSet
572 -8 m 0,0,1
 338 -8 338 -8 186 92 c 128,-1,2
 34 192 34 192 34 352 c 0,3,4
 34 400 34 400 68 432 c 128,-1,5
 102 464 102 464 154 464 c 2,6,-1
 570 464 l 1,7,-1
 570 656 l 1,8,-1
 794 656 l 1,9,-1
 794 90 l 2,10,11
 794 48 794 48 731 20 c 128,-1,12
 668 -8 668 -8 572 -8 c 0,0,1
522 176 m 0,13,14
 570 176 570 176 570 200 c 2,15,-1
 570 304 l 1,16,-1
 346 304 l 2,17,18
 330 306 330 306 318 298 c 128,-1,19
 306 290 306 290 306 280 c 0,20,21
 310 246 310 246 382 211 c 128,-1,22
 454 176 454 176 522 176 c 0,13,14
1082 304 m 1,23,-1
 826 304 l 1,24,-1
 826 464 l 1,25,-1
 1178 464 l 1,26,-1
 1082 304 l 1,23,-1
426 480 m 1,27,-1
 202 544 l 1,28,-1
 202 848 l 1,29,-1
 1074 848 l 1,30,-1
 994 688 l 1,31,-1
 426 688 l 1,32,-1
 426 480 l 1,27,-1
602 880 m 2,33,34
 530 880 530 880 478 934 c 128,-1,35
 426 988 426 988 426 1064 c 0,36,37
 426 1138 426 1138 487 1189 c 128,-1,38
 548 1240 548 1240 634 1240 c 0,39,40
 686 1240 686 1240 754 1228 c 0,41,42
 914 1200 914 1200 954 1200 c 0,43,44
 1034 1200 1034 1200 1114 1256 c 1,45,-1
 1202 1120 l 1,46,47
 1096 1048 1096 1048 994 1048 c 0,48,49
 952 1048 952 1048 866 1064 c 128,-1,50
 780 1080 780 1080 738 1080 c 0,51,52
 690 1080 690 1080 690 1048 c 1,53,54
 694 1024 694 1024 738 1024 c 2,55,-1
 890 1024 l 1,56,-1
 890 880 l 1,57,-1
 602 880 l 2,33,34
EndSplineSet
Ligature2: "'psts' Post Base Substitutions lookup 8 subtable" tm_ca tm_ikaar
EndChar

StartChar: tm_j_ikaar
Encoding: 65546 -1 123
Width: 1240
GlyphClass: 2
Flags: W
LayerCount: 2
Fore
SplineSet
880 -256 m 0,0,1
 734 -256 734 -256 592 -136 c 1,2,-1
 736 -16 l 1,3,4
 794 -64 794 -64 856 -64 c 0,5,6
 896 -64 896 -64 896 -32 c 2,7,-1
 896 112 l 2,8,9
 898 128 898 128 890 140 c 128,-1,10
 882 152 882 152 872 152 c 0,11,12
 850 148 850 148 816 120 c 1,13,-1
 704 48 l 1,14,15
 650 0 650 0 576 0 c 2,16,-1
 224 0 l 2,17,18
 176 0 176 0 144 32 c 128,-1,19
 112 64 112 64 112 112 c 2,20,-1
 112 304 l 2,21,22
 112 334 112 334 142 360 c 128,-1,23
 172 386 172 386 224 400 c 2,24,-1
 792 560 l 2,25,26
 864 578 864 578 864 616 c 2,27,-1
 864 704 l 1,28,-1
 832 704 l 2,29,30
 778 704 778 704 741 671 c 128,-1,31
 704 638 704 638 704 592 c 1,32,-1
 544 592 l 1,33,34
 534 640 534 640 507 672 c 128,-1,35
 480 704 480 704 448 704 c 2,36,-1
 376 704 l 2,37,38
 328 704 328 704 320 672 c 1,39,40
 320 640 320 640 392 568 c 1,41,-1
 192 496 l 1,42,-1
 128 576 l 1,43,44
 64 668 64 668 64 736 c 0,45,46
 64 784 64 784 96 816 c 128,-1,47
 128 848 128 848 176 848 c 2,48,-1
 528 848 l 2,49,50
 620 848 620 848 640 768 c 1,51,52
 660 848 660 848 752 848 c 2,53,-1
 1216 848 l 1,54,-1
 1136 704 l 1,55,-1
 1088 704 l 1,56,-1
 1088 560 l 2,57,58
 1088 524 1088 524 1054 494 c 128,-1,59
 1020 464 1020 464 960 448 c 2,60,-1
 408 280 l 2,61,62
 336 262 336 262 336 224 c 2,63,-1
 336 192 l 2,64,65
 336 160 336 160 368 160 c 2,66,-1
 528 160 l 2,67,68
 566 160 566 160 648 208 c 1,69,-1
 768 288 l 2,70,71
 824 328 824 328 880 328 c 0,72,73
 940 328 940 328 1030 255 c 128,-1,74
 1120 182 1120 182 1120 136 c 2,75,-1
 1120 -72 l 2,76,77
 1120 -94 1120 -94 1096 -124 c 128,-1,78
 1072 -154 1072 -154 1030 -186 c 0,79,80
 942 -256 942 -256 880 -256 c 0,0,1
896 880 m 2,81,82
 824 880 824 880 772 934 c 128,-1,83
 720 988 720 988 720 1064 c 0,84,85
 720 1138 720 1138 781 1189 c 128,-1,86
 842 1240 842 1240 928 1240 c 0,87,88
 980 1240 980 1240 1048 1228 c 0,89,90
 1208 1200 1208 1200 1248 1200 c 0,91,92
 1328 1200 1328 1200 1408 1256 c 1,93,-1
 1496 1120 l 1,94,95
 1390 1048 1390 1048 1288 1048 c 0,96,97
 1246 1048 1246 1048 1160 1064 c 128,-1,98
 1074 1080 1074 1080 1032 1080 c 0,99,100
 984 1080 984 1080 984 1048 c 1,101,102
 988 1024 988 1024 1032 1024 c 2,103,-1
 1184 1024 l 1,104,-1
 1184 880 l 1,105,-1
 896 880 l 2,81,82
EndSplineSet
Ligature2: "'psts' Post Base Substitutions lookup 8 subtable" tm_ja tm_ikaar
EndChar

StartChar: tm_ny_ikaar
Encoding: 65547 -1 124
Width: 1994
GlyphClass: 2
Flags: W
LayerCount: 2
Fore
SplineSet
1422 688 m 1,0,-1
 1422 0 l 1,1,-1
 1198 0 l 1,2,-1
 1198 688 l 1,3,-1
 670 688 l 2,4,5
 606 688 606 688 606 648 c 0,6,7
 606 600 606 600 622 552 c 2,8,-1
 710 200 l 2,9,10
 730 136 730 136 766 136 c 0,11,12
 794 136 794 136 812 156 c 128,-1,13
 830 176 830 176 830 208 c 2,14,-1
 830 384 l 1,15,-1
 702 384 l 1,16,-1
 702 544 l 1,17,-1
 1054 544 l 1,18,-1
 1054 152 l 2,19,20
 1054 88 1054 88 1022 44 c 128,-1,21
 990 0 990 0 942 0 c 2,22,-1
 638 0 l 2,23,24
 602 0 602 0 567 47 c 128,-1,25
 532 94 532 94 510 176 c 2,26,-1
 422 504 l 1,27,28
 382 618 382 618 382 712 c 0,29,30
 382 768 382 768 424 808 c 128,-1,31
 466 848 466 848 526 848 c 2,32,-1
 1638 848 l 1,33,-1
 1566 688 l 1,34,-1
 1422 688 l 1,0,-1
1454 464 m 1,35,-1
 1774 464 l 2,36,37
 1848 464 1848 464 1899 417 c 128,-1,38
 1950 370 1950 370 1950 304 c 0,39,40
 1950 206 1950 206 1886 96 c 2,41,-1
 1798 -48 l 1,42,43
 1690 -208 1690 -208 1566 -208 c 2,44,-1
 406 -208 l 2,45,46
 300 -208 300 -208 213 -129 c 128,-1,47
 126 -50 126 -50 126 48 c 2,48,-1
 126 800 l 1,49,-1
 350 912 l 1,50,-1
 350 112 l 2,51,52
 350 40 350 40 398 -4 c 0,53,54
 452 -48 452 -48 526 -48 c 2,55,-1
 1462 -48 l 2,56,57
 1568 -48 1568 -48 1630 56 c 1,58,-1
 1694 152 l 2,59,60
 1726 206 1726 206 1726 240 c 0,61,62
 1726 268 1726 268 1701 286 c 128,-1,63
 1676 304 1676 304 1638 304 c 2,64,-1
 1454 304 l 1,65,-1
 1454 464 l 1,35,-1
1152 880 m 2,66,67
 1080 880 1080 880 1028 934 c 128,-1,68
 976 988 976 988 976 1064 c 0,69,70
 976 1138 976 1138 1037 1189 c 128,-1,71
 1098 1240 1098 1240 1184 1240 c 0,72,73
 1236 1240 1236 1240 1304 1228 c 0,74,75
 1464 1200 1464 1200 1504 1200 c 0,76,77
 1584 1200 1584 1200 1664 1256 c 1,78,-1
 1752 1120 l 1,79,80
 1646 1048 1646 1048 1544 1048 c 0,81,82
 1502 1048 1502 1048 1416 1064 c 128,-1,83
 1330 1080 1330 1080 1288 1080 c 0,84,85
 1240 1080 1240 1080 1240 1048 c 1,86,87
 1244 1024 1244 1024 1288 1024 c 2,88,-1
 1440 1024 l 1,89,-1
 1440 880 l 1,90,-1
 1152 880 l 2,66,67
EndSplineSet
Ligature2: "'psts' Post Base Substitutions lookup 8 subtable" tm_nya tm_ikaar
EndChar

StartChar: tm_tt_ikaar
Encoding: 65548 -1 125
Width: 1270
GlyphClass: 2
Flags: W
LayerCount: 2
Fore
SplineSet
776 -240 m 1,0,-1
 776 -16 l 1,1,-1
 968 -16 l 1,2,-1
 968 -152 l 1,3,-1
 776 -240 l 1,0,-1
120 0 m 1,4,-1
 120 848 l 1,5,-1
 344 848 l 1,6,-1
 344 160 l 1,7,-1
 776 160 l 1,8,-1
 832 360 l 2,9,10
 856 450 856 450 856 504 c 0,11,12
 856 560 856 560 818 600 c 128,-1,13
 780 640 780 640 728 640 c 256,14,15
 676 640 676 640 638 602 c 128,-1,16
 600 564 600 564 600 512 c 0,17,18
 600 450 600 450 652 400 c 128,-1,19
 704 350 704 350 784 336 c 1,20,-1
 696 200 l 1,21,22
 576 220 576 220 496 313 c 128,-1,23
 416 406 416 406 416 528 c 0,24,25
 416 660 416 660 514 754 c 128,-1,26
 612 848 612 848 752 848 c 0,27,28
 880 848 880 848 972 766 c 128,-1,29
 1064 684 1064 684 1064 568 c 0,30,31
 1064 490 1064 490 976 160 c 1,32,-1
 1256 160 l 1,33,-1
 1160 0 l 1,34,-1
 120 0 l 1,4,-1
EndSplineSet
Ligature2: "'psts' Post Base Substitutions lookup 8 subtable" tm_tta tm_ikaar
EndChar

StartChar: tm_nn_ikaar
Encoding: 65549 -1 126
Width: 2400
GlyphClass: 2
Flags: W
LayerCount: 2
Fore
SplineSet
274 0 m 2,0,1
 238 0 238 0 206 40 c 128,-1,2
 174 80 174 80 164 140 c 1,3,-1
 54 580 l 2,4,5
 48 602 48 602 46 630 c 128,-1,6
 44 658 44 658 44 720 c 0,7,8
 44 774 44 774 90 812 c 128,-1,9
 136 850 136 850 204 850 c 2,10,-1
 1064 850 l 2,11,12
 1128 850 1128 850 1176 800 c 128,-1,13
 1224 750 1224 750 1224 680 c 2,14,-1
 1224 200 l 2,15,16
 1224 104 1224 104 1159 47 c 128,-1,17
 1094 -10 1094 -10 984 -10 c 2,18,-1
 894 -10 l 2,19,20
 790 -10 790 -10 726 48 c 0,21,22
 664 100 664 100 664 200 c 2,23,-1
 664 670 l 1,24,-1
 884 670 l 1,25,-1
 884 200 l 2,26,27
 884 174 884 174 901 157 c 128,-1,28
 918 140 918 140 944 140 c 256,29,30
 970 140 970 140 987 157 c 128,-1,31
 1004 174 1004 174 1004 200 c 2,32,-1
 1004 620 l 2,33,34
 1004 652 1004 652 984 676 c 128,-1,35
 964 700 964 700 934 700 c 2,36,-1
 304 700 l 2,37,38
 254 700 254 700 254 660 c 0,39,40
 254 610 254 610 264 570 c 2,41,-1
 344 170 l 2,42,43
 350 140 350 140 384 140 c 0,44,45
 414 140 414 140 414 180 c 2,46,-1
 414 420 l 1,47,-1
 314 420 l 1,48,-1
 314 580 l 1,49,-1
 624 580 l 1,50,-1
 624 100 l 2,51,52
 624 56 624 56 601 28 c 128,-1,53
 578 0 578 0 544 0 c 2,54,-1
 274 0 l 2,0,1
1494 -10 m 2,55,56
 1390 -10 1390 -10 1326 48 c 0,57,58
 1264 100 1264 100 1264 200 c 2,59,-1
 1264 670 l 1,60,-1
 1484 670 l 1,61,-1
 1484 200 l 2,62,63
 1484 174 1484 174 1501 157 c 128,-1,64
 1518 140 1518 140 1544 140 c 256,65,66
 1570 140 1570 140 1587 157 c 128,-1,67
 1604 174 1604 174 1604 200 c 2,68,-1
 1604 620 l 2,69,70
 1604 652 1604 652 1584 676 c 128,-1,71
 1564 700 1564 700 1534 700 c 2,72,-1
 1264 700 l 1,73,-1
 1264 850 l 1,74,-1
 1664 850 l 2,75,76
 1728 850 1728 850 1776 800 c 128,-1,77
 1824 750 1824 750 1824 680 c 2,78,-1
 1824 200 l 2,79,80
 1824 104 1824 104 1759 47 c 128,-1,81
 1694 -10 1694 -10 1584 -10 c 2,82,-1
 1494 -10 l 2,55,56
1974 -70 m 1,83,-1
 1974 700 l 1,84,-1
 1864 700 l 1,85,-1
 1864 850 l 1,86,-1
 2384 850 l 1,87,-1
 2294 700 l 1,88,-1
 2184 700 l 1,89,-1
 2184 30 l 1,90,-1
 1974 -70 l 1,83,-1
2024 880 m 2,91,92
 1954 880 1954 880 1904 932 c 128,-1,93
 1854 984 1854 984 1854 1060 c 256,94,95
 1854 1136 1854 1136 1914 1188 c 128,-1,96
 1974 1240 1974 1240 2064 1240 c 0,97,98
 2116 1240 2116 1240 2184 1228 c 0,99,100
 2344 1200 2344 1200 2384 1200 c 0,101,102
 2460 1200 2460 1200 2544 1260 c 1,103,-1
 2624 1120 l 1,104,105
 2526 1050 2526 1050 2424 1050 c 0,106,107
 2386 1050 2386 1050 2264 1070 c 0,108,109
 2202 1080 2202 1080 2164 1080 c 0,110,111
 2114 1080 2114 1080 2114 1050 c 256,112,113
 2114 1020 2114 1020 2164 1020 c 2,114,-1
 2314 1020 l 1,115,-1
 2314 880 l 1,116,-1
 2024 880 l 2,91,92
EndSplineSet
Ligature2: "'psts' Post Base Substitutions lookup 8 subtable" tm_nna tm_ikaar
EndChar

StartChar: tm_t_ikaar
Encoding: 65550 -1 127
Width: 1290
GlyphClass: 2
Flags: W
LayerCount: 2
Fore
SplineSet
592 -8 m 0,0,1
 350 -8 350 -8 192 96 c 128,-1,2
 34 200 34 200 34 352 c 0,3,4
 34 400 34 400 68 432 c 128,-1,5
 102 464 102 464 154 464 c 2,6,-1
 570 464 l 1,7,-1
 570 656 l 1,8,-1
 794 656 l 1,9,-1
 794 126 l 2,10,11
 794 70 794 70 735 31 c 128,-1,12
 676 -8 676 -8 592 -8 c 0,0,1
234 -264 m 1,13,-1
 146 -104 l 1,14,15
 210 -56 210 -56 290 -56 c 2,16,-1
 770 -56 l 2,17,18
 832 -56 832 -56 890 24 c 1,19,-1
 962 144 l 1,20,21
 1010 214 1010 214 1010 256 c 0,22,23
 1010 276 1010 276 990 290 c 128,-1,24
 970 304 970 304 938 304 c 2,25,-1
 826 304 l 1,26,-1
 826 464 l 1,27,-1
 1082 464 l 2,28,29
 1150 464 1150 464 1200 420 c 128,-1,30
 1250 376 1250 376 1250 312 c 0,31,32
 1250 244 1250 244 1178 120 c 2,33,-1
 1050 -96 l 2,34,35
 978 -216 978 -216 866 -216 c 2,36,-1
 354 -216 l 2,37,38
 276 -216 276 -216 234 -264 c 1,13,-1
522 176 m 0,39,40
 570 176 570 176 570 200 c 2,41,-1
 570 304 l 1,42,-1
 346 304 l 2,43,44
 330 306 330 306 318 298 c 128,-1,45
 306 290 306 290 306 280 c 0,46,47
 310 246 310 246 382 211 c 128,-1,48
 454 176 454 176 522 176 c 0,39,40
426 480 m 1,49,-1
 202 544 l 1,50,-1
 202 848 l 1,51,-1
 1074 848 l 1,52,-1
 986 688 l 1,53,-1
 426 688 l 1,54,-1
 426 480 l 1,49,-1
602 880 m 2,55,56
 530 880 530 880 478 934 c 128,-1,57
 426 988 426 988 426 1064 c 0,58,59
 426 1138 426 1138 487 1189 c 128,-1,60
 548 1240 548 1240 634 1240 c 0,61,62
 686 1240 686 1240 754 1228 c 0,63,64
 914 1200 914 1200 954 1200 c 0,65,66
 1034 1200 1034 1200 1114 1256 c 1,67,-1
 1202 1120 l 1,68,69
 1096 1048 1096 1048 994 1048 c 0,70,71
 952 1048 952 1048 866 1064 c 128,-1,72
 780 1080 780 1080 738 1080 c 0,73,74
 690 1080 690 1080 690 1048 c 1,75,76
 694 1024 694 1024 738 1024 c 2,77,-1
 890 1024 l 1,78,-1
 890 880 l 1,79,-1
 602 880 l 2,55,56
EndSplineSet
Ligature2: "'psts' Post Base Substitutions lookup 8 subtable" tm_ta tm_ikaar
EndChar

StartChar: tm_n_ikaar
Encoding: 65551 -1 128
Width: 1210
GlyphClass: 2
Flags: W
LayerCount: 2
Fore
SplineSet
490 0 m 1,0,-1
 490 656 l 1,1,-1
 714 656 l 1,2,-1
 714 0 l 1,3,-1
 490 0 l 1,0,-1
122 0 m 1,4,-1
 122 848 l 1,5,-1
 994 848 l 1,6,-1
 906 688 l 1,7,-1
 346 688 l 1,8,-1
 346 0 l 1,9,-1
 122 0 l 1,4,-1
154 -264 m 1,10,-1
 74 -104 l 1,11,12
 140 -56 140 -56 210 -56 c 2,13,-1
 690 -56 l 2,14,15
 752 -56 752 -56 810 24 c 1,16,-1
 882 144 l 1,17,18
 930 214 930 214 930 256 c 0,19,20
 930 276 930 276 910 290 c 128,-1,21
 890 304 890 304 858 304 c 2,22,-1
 746 304 l 1,23,-1
 746 464 l 1,24,-1
 1002 464 l 2,25,26
 1070 464 1070 464 1120 420 c 128,-1,27
 1170 376 1170 376 1170 312 c 0,28,29
 1170 244 1170 244 1098 120 c 2,30,-1
 970 -96 l 2,31,32
 898 -216 898 -216 786 -216 c 2,33,-1
 274 -216 l 2,34,35
 196 -216 196 -216 154 -264 c 1,10,-1
618 880 m 2,36,37
 546 880 546 880 494 934 c 128,-1,38
 442 988 442 988 442 1064 c 0,39,40
 442 1138 442 1138 503 1189 c 128,-1,41
 564 1240 564 1240 650 1240 c 0,42,43
 702 1240 702 1240 770 1228 c 0,44,45
 930 1200 930 1200 970 1200 c 0,46,47
 1050 1200 1050 1200 1130 1256 c 1,48,-1
 1218 1120 l 1,49,50
 1112 1048 1112 1048 1010 1048 c 0,51,52
 968 1048 968 1048 882 1064 c 128,-1,53
 796 1080 796 1080 754 1080 c 0,54,55
 706 1080 706 1080 706 1048 c 1,56,57
 710 1024 710 1024 754 1024 c 2,58,-1
 906 1024 l 1,59,-1
 906 880 l 1,60,-1
 618 880 l 2,36,37
EndSplineSet
Ligature2: "'psts' Post Base Substitutions lookup 8 subtable" tm_na tm_ikaar
EndChar

StartChar: tm_nnn_ikaar
Encoding: 65552 -1 129
Width: 1800
GlyphClass: 2
Flags: W
LayerCount: 2
Fore
SplineSet
276 0 m 2,0,1
 236 0 236 0 203 38 c 128,-1,2
 170 76 170 76 160 136 c 1,3,-1
 44 584 l 2,4,5
 30 634 30 634 30 700 c 0,6,7
 30 760 30 760 84 804 c 128,-1,8
 138 848 138 848 214 848 c 2,9,-1
 1060 848 l 2,10,11
 1130 848 1130 848 1179 799 c 128,-1,12
 1228 750 1228 750 1228 680 c 2,13,-1
 1228 194 l 2,14,15
 1228 100 1228 100 1160 48 c 0,16,17
 1092 -8 1092 -8 980 -8 c 2,18,-1
 892 -8 l 2,19,20
 788 -8 788 -8 724 46 c 128,-1,21
 660 100 660 100 660 192 c 2,22,-1
 660 672 l 1,23,-1
 884 672 l 1,24,-1
 884 198 l 2,25,26
 884 144 884 144 948 144 c 0,27,28
 972 144 972 144 988 160 c 128,-1,29
 1004 176 1004 176 1004 200 c 2,30,-1
 1004 616 l 2,31,32
 1004 654 1004 654 983 679 c 128,-1,33
 962 704 962 704 932 704 c 2,34,-1
 300 704 l 2,35,36
 252 704 252 704 252 664 c 0,37,38
 252 632 252 632 268 568 c 2,39,-1
 348 192 l 1,40,41
 354 144 354 144 380 144 c 0,42,43
 412 144 412 144 412 184 c 2,44,-1
 412 416 l 1,45,-1
 316 416 l 1,46,-1
 316 576 l 1,47,-1
 628 576 l 1,48,-1
 628 104 l 2,49,50
 628 58 628 58 602 29 c 128,-1,51
 576 0 576 0 540 0 c 2,52,-1
 276 0 l 2,0,1
1372 -72 m 1,53,-1
 1372 704 l 1,54,-1
 1260 704 l 1,55,-1
 1260 848 l 1,56,-1
 1788 848 l 1,57,-1
 1692 704 l 1,58,-1
 1580 704 l 1,59,-1
 1580 32 l 1,60,-1
 1372 -72 l 1,53,-1
1420 880 m 2,61,62
 1348 880 1348 880 1296 934 c 128,-1,63
 1244 988 1244 988 1244 1064 c 0,64,65
 1244 1138 1244 1138 1305 1189 c 128,-1,66
 1366 1240 1366 1240 1452 1240 c 0,67,68
 1504 1240 1504 1240 1572 1228 c 0,69,70
 1732 1200 1732 1200 1772 1200 c 0,71,72
 1852 1200 1852 1200 1932 1256 c 1,73,-1
 2020 1120 l 1,74,75
 1914 1048 1914 1048 1812 1048 c 0,76,77
 1770 1048 1770 1048 1684 1064 c 128,-1,78
 1598 1080 1598 1080 1556 1080 c 0,79,80
 1508 1080 1508 1080 1508 1048 c 1,81,82
 1512 1024 1512 1024 1556 1024 c 2,83,-1
 1708 1024 l 1,84,-1
 1708 880 l 1,85,-1
 1420 880 l 2,61,62
EndSplineSet
Ligature2: "'psts' Post Base Substitutions lookup 8 subtable" tm_nnna tm_ikaar
EndChar

StartChar: tm_p_ikaar
Encoding: 65553 -1 130
Width: 1120
GlyphClass: 2
Flags: W
LayerCount: 2
Fore
SplineSet
120 0 m 1,0,-1
 120 848 l 1,1,-1
 344 848 l 1,2,-1
 344 160 l 1,3,-1
 776 160 l 1,4,-1
 776 816 l 1,5,-1
 1000 944 l 1,6,-1
 1000 0 l 1,7,-1
 120 0 l 1,0,-1
408 1072 m 2,8,9
 408 1140 408 1140 464 1190 c 128,-1,10
 520 1240 520 1240 600 1240 c 0,11,12
 654 1240 654 1240 726 1228 c 0,13,14
 894 1200 894 1200 936 1200 c 0,15,16
 1016 1200 1016 1200 1096 1256 c 1,17,-1
 1184 1120 l 1,18,19
 1070 1040 1070 1040 984 1040 c 0,20,21
 940 1040 940 1040 850 1056 c 128,-1,22
 760 1072 760 1072 712 1072 c 0,23,24
 678 1072 678 1072 655 1056 c 128,-1,25
 632 1040 632 1040 632 1016 c 2,26,-1
 632 848 l 2,27,28
 632 820 632 820 696 784 c 1,29,-1
 744 752 l 1,30,-1
 744 552 l 1,31,-1
 544 656 l 1,32,33
 484 682 484 682 446 742 c 128,-1,34
 408 802 408 802 408 872 c 2,35,-1
 408 1072 l 2,8,9
EndSplineSet
Ligature2: "'psts' Post Base Substitutions lookup 8 subtable" tm_pa tm_ikaar
EndChar

StartChar: tm_m_ikaar
Encoding: 65554 -1 131
Width: 1328
GlyphClass: 2
Flags: W
LayerCount: 2
Fore
SplineSet
120 0 m 1,0,-1
 120 872 l 1,1,-1
 344 768 l 1,2,-1
 344 160 l 1,3,-1
 816 160 l 1,4,-1
 1024 568 l 2,5,6
 1056 622 1056 622 1056 656 c 0,7,8
 1056 688 1056 688 1016 688 c 2,9,-1
 776 688 l 1,10,-1
 776 200 l 1,11,-1
 552 256 l 1,12,-1
 552 848 l 1,13,-1
 1136 848 l 2,14,15
 1198 848 1198 848 1243 810 c 128,-1,16
 1288 772 1288 772 1288 720 c 0,17,18
 1288 642 1288 642 1240 560 c 1,19,-1
 944 0 l 1,20,-1
 120 0 l 1,0,-1
696 880 m 2,21,22
 624 880 624 880 572 934 c 128,-1,23
 520 988 520 988 520 1064 c 0,24,25
 520 1138 520 1138 581 1189 c 128,-1,26
 642 1240 642 1240 728 1240 c 0,27,28
 780 1240 780 1240 848 1228 c 0,29,30
 1008 1200 1008 1200 1048 1200 c 0,31,32
 1128 1200 1128 1200 1208 1256 c 1,33,-1
 1296 1120 l 1,34,35
 1190 1048 1190 1048 1088 1048 c 0,36,37
 1046 1048 1046 1048 960 1064 c 128,-1,38
 874 1080 874 1080 832 1080 c 0,39,40
 784 1080 784 1080 784 1048 c 1,41,42
 788 1024 788 1024 832 1024 c 2,43,-1
 984 1024 l 1,44,-1
 984 880 l 1,45,-1
 696 880 l 2,21,22
EndSplineSet
Ligature2: "'psts' Post Base Substitutions lookup 8 subtable" tm_ma tm_ikaar
EndChar

StartChar: tm_y_ikaar
Encoding: 65555 -1 132
Width: 1346
GlyphClass: 2
Flags: W
LayerCount: 2
Fore
SplineSet
280 0 m 2,0,1
 210 0 210 0 161 47 c 128,-1,2
 112 94 112 94 112 160 c 2,3,-1
 112 848 l 1,4,-1
 336 848 l 1,5,-1
 336 216 l 2,6,7
 336 188 336 188 365 166 c 128,-1,8
 394 144 394 144 432 144 c 0,9,10
 472 144 472 144 500 170 c 128,-1,11
 528 196 528 196 528 232 c 2,12,-1
 528 848 l 1,13,-1
 752 848 l 1,14,-1
 752 176 l 2,15,16
 752 104 752 104 710 52 c 128,-1,17
 668 0 668 0 608 0 c 2,18,-1
 280 0 l 2,0,1
768 0 m 1,19,-1
 768 160 l 1,20,-1
 1008 160 l 1,21,-1
 1008 880 l 1,22,-1
 1232 784 l 1,23,-1
 1232 0 l 1,24,-1
 768 0 l 1,19,-1
768 1072 m 2,25,26
 768 1142 768 1142 819 1191 c 128,-1,27
 870 1240 870 1240 944 1240 c 0,28,29
 998 1240 998 1240 1070 1228 c 0,30,31
 1238 1200 1238 1200 1280 1200 c 0,32,33
 1360 1200 1360 1200 1440 1256 c 1,34,-1
 1528 1120 l 1,35,36
 1432 1040 1432 1040 1312 1040 c 0,37,38
 1266 1040 1266 1040 1204 1052 c 0,39,40
 1060 1080 1060 1080 1024 1080 c 0,41,42
 960 1080 960 1080 960 1016 c 2,43,-1
 960 864 l 2,44,45
 960 838 960 838 992 816 c 1,46,-1
 992 656 l 1,47,-1
 888 712 l 2,48,49
 832 738 832 738 800 779 c 128,-1,50
 768 820 768 820 768 864 c 2,51,-1
 768 1072 l 2,25,26
EndSplineSet
Ligature2: "'psts' Post Base Substitutions lookup 8 subtable" tm_ya tm_ikaar
EndChar

StartChar: tm_r_ikaar
Encoding: 65556 -1 133
Width: 904
GlyphClass: 2
Flags: W
LayerCount: 2
Fore
SplineSet
120 0 m 1,0,-1
 120 848 l 1,1,-1
 888 848 l 1,2,-1
 808 688 l 1,3,-1
 344 688 l 1,4,-1
 344 0 l 1,5,-1
 120 0 l 1,0,-1
560 880 m 2,6,7
 490 880 490 880 441 931 c 128,-1,8
 392 982 392 982 392 1056 c 0,9,10
 392 1132 392 1132 450 1186 c 128,-1,11
 508 1240 508 1240 592 1240 c 0,12,13
 648 1240 648 1240 756 1220 c 128,-1,14
 864 1200 864 1200 920 1200 c 0,15,16
 1000 1200 1000 1200 1080 1256 c 1,17,-1
 1168 1120 l 1,18,19
 1062 1048 1062 1048 960 1048 c 0,20,21
 918 1048 918 1048 832 1064 c 128,-1,22
 746 1080 746 1080 704 1080 c 0,23,24
 656 1080 656 1080 656 1048 c 0,25,26
 656 1024 656 1024 696 1024 c 2,27,-1
 856 1024 l 1,28,-1
 856 880 l 1,29,-1
 560 880 l 2,6,7
712 -108 m 1,30,-1
 160 -264 l 1,31,-1
 108 -102 l 1,32,-1
 488 0 l 1,33,-1
 488 656 l 1,34,-1
 712 656 l 1,35,-1
 712 -108 l 1,30,-1
EndSplineSet
Ligature2: "'psts' Post Base Substitutions lookup 8 subtable" tm_ra tm_ikaar
EndChar

StartChar: tm_rr_ikaar
Encoding: 65557 -1 134
Width: 1398
GlyphClass: 2
Flags: W
LayerCount: 2
Fore
SplineSet
162 -240 m 1,0,-1
 90 -96 l 1,1,2
 144 -48 144 -48 202 -48 c 2,3,-1
 866 -48 l 2,4,5
 954 -48 954 -48 1006 -2 c 128,-1,6
 1058 44 1058 44 1058 120 c 0,7,8
 1058 164 1058 164 1026 248 c 0,9,10
 1002 300 1002 300 1002 336 c 0,11,12
 1002 374 1002 374 1034 432 c 0,13,14
 1074 506 1074 506 1074 576 c 0,15,16
 1074 624 1074 624 1042 656 c 128,-1,17
 1010 688 1010 688 962 688 c 2,18,-1
 826 688 l 1,19,-1
 826 848 l 1,20,-1
 1130 848 l 2,21,22
 1200 848 1200 848 1249 785 c 128,-1,23
 1298 722 1298 722 1298 632 c 0,24,25
 1298 554 1298 554 1274 464 c 1,26,27
 1242 400 1242 400 1242 336 c 0,28,29
 1242 314 1242 314 1266 224 c 1,30,31
 1290 160 1290 160 1290 80 c 0,32,33
 1290 -46 1290 -46 1212 -118 c 0,34,35
 1176 -152 1176 -152 1120 -172 c 128,-1,36
 1064 -192 1064 -192 1002 -192 c 2,37,-1
 306 -192 l 2,38,39
 210 -192 210 -192 162 -240 c 1,0,-1
330 0 m 1,40,-1
 106 112 l 1,41,-1
 106 688 l 2,42,43
 106 752 106 752 144 800 c 128,-1,44
 182 848 182 848 234 848 c 2,45,-1
 666 848 l 2,46,47
 718 848 718 848 756 804 c 128,-1,48
 794 760 794 760 794 696 c 2,49,-1
 794 0 l 1,50,-1
 570 0 l 1,51,-1
 570 608 l 2,52,53
 570 642 570 642 549 665 c 128,-1,54
 528 688 528 688 498 688 c 2,55,-1
 394 688 l 2,56,57
 366 688 366 688 348 666 c 128,-1,58
 330 644 330 644 330 608 c 2,59,-1
 330 0 l 1,40,-1
682 880 m 2,60,61
 610 880 610 880 558 934 c 128,-1,62
 506 988 506 988 506 1064 c 0,63,64
 506 1138 506 1138 567 1189 c 128,-1,65
 628 1240 628 1240 714 1240 c 0,66,67
 766 1240 766 1240 834 1228 c 0,68,69
 994 1200 994 1200 1034 1200 c 0,70,71
 1114 1200 1114 1200 1194 1256 c 1,72,-1
 1282 1120 l 1,73,74
 1176 1048 1176 1048 1074 1048 c 0,75,76
 1032 1048 1032 1048 946 1064 c 128,-1,77
 860 1080 860 1080 818 1080 c 0,78,79
 770 1080 770 1080 770 1048 c 1,80,81
 774 1024 774 1024 818 1024 c 2,82,-1
 970 1024 l 1,83,-1
 970 880 l 1,84,-1
 682 880 l 2,60,61
EndSplineSet
Ligature2: "'psts' Post Base Substitutions lookup 8 subtable" tm_rra tm_ikaar
EndChar

StartChar: tm_l_ikaar
Encoding: 65558 -1 135
Width: 1582
GlyphClass: 2
Flags: W
LayerCount: 2
Fore
SplineSet
370 0 m 2,0,1
 314 0 314 0 265 53 c 128,-1,2
 216 106 216 106 194 192 c 1,3,-1
 64 592 l 2,4,5
 50 628 50 628 50 712 c 0,6,7
 50 768 50 768 92 808 c 128,-1,8
 134 848 134 848 194 848 c 2,9,-1
 986 848 l 1,10,-1
 986 160 l 1,11,-1
 1122 160 l 2,12,13
 1208 160 1208 160 1226 256 c 2,14,-1
 1266 496 l 2,15,16
 1274 546 1274 546 1278 574 c 128,-1,17
 1282 602 1282 602 1282 624 c 0,18,19
 1282 688 1282 688 1218 688 c 2,20,-1
 1050 688 l 1,21,-1
 1050 848 l 1,22,-1
 1346 848 l 2,23,24
 1414 848 1414 848 1464 806 c 128,-1,25
 1514 764 1514 764 1514 704 c 0,26,27
 1514 656 1514 656 1490 520 c 2,28,-1
 1426 168 l 2,29,30
 1412 96 1412 96 1372 48 c 128,-1,31
 1332 0 1332 0 1282 0 c 2,32,-1
 830 0 l 1,33,-1
 762 160 l 1,34,-1
 762 672 l 1,35,-1
 338 672 l 2,36,37
 314 672 314 672 298 660 c 128,-1,38
 282 648 282 648 282 632 c 0,39,40
 280 616 280 616 288 586 c 0,41,42
 304 536 304 536 314 496 c 1,43,-1
 314 592 l 1,44,-1
 682 592 l 1,45,-1
 682 136 l 2,46,47
 682 80 682 80 652 40 c 128,-1,48
 622 0 622 0 578 0 c 2,49,-1
 370 0 l 2,0,1
426 176 m 0,50,51
 458 180 458 180 458 224 c 2,52,-1
 458 368 l 2,53,54
 458 432 458 432 418 432 c 2,55,-1
 330 432 l 1,56,-1
 378 224 l 1,57,58
 396 176 396 176 426 176 c 0,50,51
1082 880 m 2,59,60
 1010 880 1010 880 958 934 c 128,-1,61
 906 988 906 988 906 1064 c 0,62,63
 906 1138 906 1138 967 1189 c 128,-1,64
 1028 1240 1028 1240 1114 1240 c 0,65,66
 1166 1240 1166 1240 1234 1228 c 0,67,68
 1394 1200 1394 1200 1434 1200 c 0,69,70
 1514 1200 1514 1200 1594 1256 c 1,71,-1
 1682 1120 l 1,72,73
 1576 1048 1576 1048 1474 1048 c 0,74,75
 1428 1048 1428 1048 1334 1064 c 128,-1,76
 1240 1080 1240 1080 1194 1080 c 0,77,78
 1154 1080 1154 1080 1154 1048 c 1,79,80
 1158 1024 1158 1024 1202 1024 c 2,81,-1
 1370 1024 l 1,82,-1
 1370 880 l 1,83,-1
 1082 880 l 2,59,60
EndSplineSet
Ligature2: "'psts' Post Base Substitutions lookup 8 subtable" tm_la tm_ikaar
EndChar

StartChar: tm_ll_ikaar
Encoding: 65559 -1 136
Width: 1860
GlyphClass: 2
Flags: W
LayerCount: 2
Fore
SplineSet
336 0 m 2,0,1
 286 0 286 0 243 47 c 128,-1,2
 200 94 200 94 178 176 c 2,3,-1
 80 520 l 2,4,5
 48 634 48 634 48 696 c 0,6,7
 48 760 48 760 90 804 c 128,-1,8
 132 848 132 848 194 848 c 2,9,-1
 946 848 l 2,10,11
 1020 848 1020 848 1071 799 c 128,-1,12
 1122 750 1122 750 1122 680 c 2,13,-1
 1122 0 l 1,14,-1
 898 0 l 1,15,-1
 898 608 l 2,16,17
 898 640 898 640 880 664 c 128,-1,18
 862 688 862 688 834 688 c 2,19,-1
 330 688 l 2,20,21
 266 688 266 688 266 656 c 0,22,23
 266 612 266 612 290 560 c 1,24,-1
 378 200 l 1,25,26
 398 136 398 136 434 136 c 0,27,28
 462 136 462 136 480 156 c 128,-1,29
 498 176 498 176 498 208 c 2,30,-1
 498 384 l 1,31,-1
 370 384 l 1,32,-1
 370 544 l 1,33,-1
 722 544 l 1,34,-1
 722 152 l 2,35,36
 722 88 722 88 690 44 c 128,-1,37
 658 0 658 0 610 0 c 2,38,-1
 336 0 l 2,0,1
1410 -96 m 1,39,-1
 1410 688 l 1,40,-1
 1154 688 l 1,41,-1
 1154 848 l 1,42,-1
 1842 848 l 1,43,-1
 1778 688 l 1,44,-1
 1634 688 l 1,45,-1
 1634 16 l 1,46,-1
 1410 -96 l 1,39,-1
1458 880 m 2,47,48
 1386 880 1386 880 1334 934 c 128,-1,49
 1282 988 1282 988 1282 1064 c 0,50,51
 1282 1138 1282 1138 1343 1189 c 128,-1,52
 1404 1240 1404 1240 1490 1240 c 0,53,54
 1542 1240 1542 1240 1610 1228 c 0,55,56
 1770 1200 1770 1200 1810 1200 c 0,57,58
 1890 1200 1890 1200 1970 1256 c 1,59,-1
 2058 1120 l 1,60,61
 1952 1048 1952 1048 1850 1048 c 0,62,63
 1808 1048 1808 1048 1722 1064 c 128,-1,64
 1636 1080 1636 1080 1594 1080 c 0,65,66
 1546 1080 1546 1080 1546 1048 c 1,67,68
 1550 1024 1550 1024 1594 1024 c 2,69,-1
 1746 1024 l 1,70,-1
 1746 880 l 1,71,-1
 1458 880 l 2,47,48
EndSplineSet
Ligature2: "'psts' Post Base Substitutions lookup 8 subtable" tm_lla tm_ikaar
EndChar

StartChar: tm_lll_ikaar
Encoding: 65560 -1 137
Width: 1330
GlyphClass: 2
Flags: W
LayerCount: 2
Fore
SplineSet
120 0 m 1,0,-1
 120 872 l 1,1,-1
 344 768 l 1,2,-1
 344 160 l 1,3,-1
 552 160 l 1,4,-1
 552 848 l 1,5,-1
 1136 848 l 2,6,7
 1198 848 1198 848 1243 810 c 128,-1,8
 1288 772 1288 772 1288 720 c 0,9,10
 1288 642 1288 642 1240 560 c 1,11,-1
 944 0 l 1,12,-1
 120 0 l 1,0,-1
552 -16 m 1,13,-1
 792 -16 l 1,14,-1
 896 -88 l 1,15,16
 1048 0 1048 0 1096 0 c 0,17,18
 1136 0 1136 0 1304 -144 c 1,19,-1
 1128 -288 l 1,20,21
 1032 -208 1032 -208 1008 -208 c 0,22,23
 978 -208 978 -208 936 -232 c 1,24,-1
 752 -304 l 1,25,-1
 328 -304 l 2,26,27
 248 -304 248 -304 120 -176 c 1,28,-1
 320 -64 l 1,29,30
 362 -126 362 -126 405 -159 c 128,-1,31
 448 -192 448 -192 488 -192 c 2,32,-1
 624 -192 l 2,33,34
 702 -192 702 -192 784 -144 c 1,35,-1
 552 -16 l 1,13,-1
824 160 m 1,36,-1
 1024 568 l 1,37,38
 1056 622 1056 622 1056 656 c 0,39,40
 1056 688 1056 688 1016 688 c 2,41,-1
 776 688 l 1,42,-1
 776 160 l 1,43,-1
 824 160 l 1,36,-1
696 880 m 2,44,45
 624 880 624 880 572 934 c 128,-1,46
 520 988 520 988 520 1064 c 0,47,48
 520 1138 520 1138 581 1189 c 128,-1,49
 642 1240 642 1240 728 1240 c 0,50,51
 780 1240 780 1240 848 1228 c 0,52,53
 1008 1200 1008 1200 1048 1200 c 0,54,55
 1128 1200 1128 1200 1208 1256 c 1,56,-1
 1296 1120 l 1,57,58
 1190 1048 1190 1048 1088 1048 c 0,59,60
 1046 1048 1046 1048 960 1064 c 128,-1,61
 874 1080 874 1080 832 1080 c 0,62,63
 784 1080 784 1080 784 1048 c 1,64,65
 788 1024 788 1024 832 1024 c 2,66,-1
 984 1024 l 1,67,-1
 984 880 l 1,68,-1
 696 880 l 2,44,45
EndSplineSet
Ligature2: "'psts' Post Base Substitutions lookup 8 subtable" tm_llla tm_ikaar
EndChar

StartChar: tm_v_ikaar
Encoding: 65561 -1 138
Width: 1570
GlyphClass: 2
Flags: W
LayerCount: 2
Fore
SplineSet
370 0 m 2,0,1
 306 0 306 0 251 53 c 128,-1,2
 196 106 196 106 174 192 c 2,3,-1
 64 592 l 2,4,5
 50 628 50 628 50 712 c 0,6,7
 50 768 50 768 92 808 c 128,-1,8
 134 848 134 848 194 848 c 2,9,-1
 986 848 l 1,10,-1
 986 160 l 1,11,-1
 1226 160 l 1,12,-1
 1226 848 l 1,13,-1
 1450 928 l 1,14,-1
 1450 0 l 1,15,-1
 840 0 l 1,16,-1
 762 160 l 1,17,-1
 762 672 l 1,18,-1
 338 672 l 2,19,20
 314 672 314 672 298 660 c 128,-1,21
 282 648 282 648 282 632 c 0,22,23
 280 616 280 616 288 586 c 0,24,25
 304 536 304 536 314 496 c 1,26,-1
 314 592 l 1,27,-1
 682 592 l 1,28,-1
 682 136 l 2,29,30
 682 80 682 80 652 40 c 128,-1,31
 622 0 622 0 578 0 c 2,32,-1
 370 0 l 2,0,1
426 176 m 0,33,34
 458 180 458 180 458 224 c 2,35,-1
 458 368 l 2,36,37
 458 432 458 432 418 432 c 2,38,-1
 330 432 l 1,39,-1
 378 224 l 1,40,41
 396 176 396 176 426 176 c 0,33,34
1002 1072 m 2,42,43
 1002 1142 1002 1142 1053 1191 c 128,-1,44
 1104 1240 1104 1240 1178 1240 c 0,45,46
 1232 1240 1232 1240 1304 1228 c 0,47,48
 1472 1200 1472 1200 1514 1200 c 0,49,50
 1594 1200 1594 1200 1674 1256 c 1,51,-1
 1762 1120 l 1,52,53
 1648 1040 1648 1040 1538 1040 c 0,54,55
 1492 1040 1492 1040 1430 1052 c 0,56,57
 1286 1080 1286 1080 1250 1080 c 0,58,59
 1226 1080 1226 1080 1210 1064 c 128,-1,60
 1194 1048 1194 1048 1194 1024 c 2,61,-1
 1194 856 l 2,62,63
 1194 836 1194 836 1210 816 c 1,64,-1
 1210 656 l 1,65,-1
 1122 712 l 1,66,67
 1066 738 1066 738 1034 779 c 128,-1,68
 1002 820 1002 820 1002 864 c 2,69,-1
 1002 1072 l 2,42,43
EndSplineSet
Ligature2: "'psts' Post Base Substitutions lookup 8 subtable" tm_va tm_ikaar
EndChar

StartChar: tm_ss_ikaar
Encoding: 65562 -1 139
Width: 1898
GlyphClass: 2
Flags: W
LayerCount: 2
Fore
SplineSet
798 0 m 1,0,-1
 734 160 l 1,1,-1
 1162 160 l 1,2,-1
 1490 536 l 2,3,4
 1562 624 1562 624 1562 648 c 0,5,6
 1564 664 1564 664 1544 676 c 128,-1,7
 1524 688 1524 688 1498 688 c 2,8,-1
 1386 688 l 2,9,10
 1354 688 1354 688 1330 676 c 128,-1,11
 1306 664 1306 664 1306 648 c 0,12,13
 1306 616 1306 616 1410 544 c 1,14,-1
 1298 416 l 1,15,-1
 1210 488 l 2,16,17
 1098 584 1098 584 1098 680 c 0,18,19
 1098 750 1098 750 1147 799 c 128,-1,20
 1196 848 1196 848 1266 848 c 2,21,-1
 1658 848 l 2,22,23
 1722 848 1722 848 1766 806 c 128,-1,24
 1810 764 1810 764 1810 704 c 0,25,26
 1810 626 1810 626 1706 504 c 2,27,-1
 1410 160 l 1,28,-1
 1578 160 l 2,29,30
 1618 160 1618 160 1618 192 c 0,31,32
 1616 216 1616 216 1546 256 c 1,33,-1
 1666 384 l 1,34,35
 1842 262 1842 262 1842 128 c 0,36,37
 1842 76 1842 76 1804 38 c 128,-1,38
 1766 0 1766 0 1714 0 c 2,39,-1
 1266 0 l 1,40,-1
 1010 -304 l 1,41,-1
 866 -192 l 1,42,-1
 1026 0 l 1,43,-1
 798 0 l 1,0,-1
362 0 m 2,44,45
 312 0 312 0 266 45 c 128,-1,46
 220 90 220 90 200 160 c 2,47,-1
 88 496 l 1,48,49
 50 596 50 596 50 712 c 0,50,51
 50 768 50 768 92 808 c 128,-1,52
 134 848 134 848 194 848 c 2,53,-1
 986 848 l 1,54,-1
 986 192 l 1,55,-1
 762 192 l 1,56,-1
 762 688 l 1,57,-1
 346 688 l 2,58,59
 312 688 312 688 289 672 c 128,-1,60
 266 656 266 656 266 632 c 0,61,62
 266 602 266 602 290 512 c 2,63,-1
 362 256 l 2,64,65
 374 212 374 212 389 186 c 128,-1,66
 404 160 404 160 418 160 c 0,67,68
 458 160 458 160 458 200 c 2,69,-1
 458 432 l 1,70,-1
 330 432 l 1,71,-1
 330 592 l 1,72,-1
 682 592 l 1,73,-1
 682 136 l 2,74,75
 682 78 682 78 650 39 c 128,-1,76
 618 0 618 0 570 0 c 2,77,-1
 362 0 l 2,44,45
1354 880 m 2,78,79
 1282 880 1282 880 1230 934 c 128,-1,80
 1178 988 1178 988 1178 1064 c 0,81,82
 1178 1138 1178 1138 1239 1189 c 128,-1,83
 1300 1240 1300 1240 1386 1240 c 0,84,85
 1438 1240 1438 1240 1506 1228 c 0,86,87
 1666 1200 1666 1200 1706 1200 c 0,88,89
 1786 1200 1786 1200 1866 1256 c 1,90,-1
 1954 1120 l 1,91,92
 1848 1048 1848 1048 1746 1048 c 0,93,94
 1704 1048 1704 1048 1618 1064 c 128,-1,95
 1532 1080 1532 1080 1490 1080 c 0,96,97
 1442 1080 1442 1080 1442 1048 c 1,98,99
 1446 1024 1446 1024 1490 1024 c 2,100,-1
 1642 1024 l 1,101,-1
 1642 880 l 1,102,-1
 1354 880 l 2,78,79
EndSplineSet
Ligature2: "'psts' Post Base Substitutions lookup 8 subtable" tm_ssa tm_ikaar
EndChar

StartChar: tm_s_ikaar
Encoding: 65563 -1 140
Width: 2228
GlyphClass: 2
Flags: W
LayerCount: 2
Fore
SplineSet
304 0 m 2,0,1
 268 0 268 0 232 49 c 128,-1,2
 196 98 196 98 174 176 c 2,3,-1
 78 520 l 2,4,5
 46 634 46 634 46 696 c 0,6,7
 46 760 46 760 88 804 c 128,-1,8
 130 848 130 848 192 848 c 2,9,-1
 960 848 l 2,10,11
 1026 848 1026 848 1073 799 c 128,-1,12
 1120 750 1120 750 1120 680 c 2,13,-1
 1120 0 l 1,14,-1
 896 0 l 1,15,-1
 896 608 l 2,16,17
 896 640 896 640 878 664 c 128,-1,18
 860 688 860 688 832 688 c 2,19,-1
 328 688 l 2,20,21
 264 688 264 688 264 656 c 0,22,23
 264 612 264 612 288 560 c 1,24,-1
 376 200 l 1,25,26
 396 136 396 136 432 136 c 0,27,28
 460 136 460 136 478 156 c 128,-1,29
 496 176 496 176 496 208 c 2,30,-1
 496 384 l 1,31,-1
 368 384 l 1,32,-1
 368 544 l 1,33,-1
 720 544 l 1,34,-1
 720 152 l 2,35,36
 720 88 720 88 688 44 c 128,-1,37
 656 0 656 0 608 0 c 2,38,-1
 304 0 l 2,0,1
1152 848 m 1,39,-1
 1632 848 l 1,40,-1
 1632 160 l 1,41,-1
 1768 160 l 2,42,43
 1854 160 1854 160 1872 264 c 2,44,-1
 1912 496 l 2,45,46
 1920 546 1920 546 1924 574 c 128,-1,47
 1928 602 1928 602 1928 624 c 0,48,49
 1928 688 1928 688 1864 688 c 2,50,-1
 1712 688 l 1,51,-1
 1712 848 l 1,52,-1
 1992 848 l 2,53,54
 2060 848 2060 848 2110 806 c 128,-1,55
 2160 764 2160 764 2160 704 c 0,56,57
 2160 656 2160 656 2136 520 c 2,58,-1
 2072 176 l 2,59,60
 2060 98 2060 98 2020 49 c 128,-1,61
 1980 0 1980 0 1928 0 c 2,62,-1
 1416 0 l 1,63,-1
 1344 160 l 1,64,-1
 1408 160 l 1,65,-1
 1408 688 l 1,66,-1
 1152 688 l 1,67,-1
 1152 848 l 1,39,-1
1744 880 m 2,68,69
 1672 880 1672 880 1620 934 c 128,-1,70
 1568 988 1568 988 1568 1064 c 0,71,72
 1568 1138 1568 1138 1629 1189 c 128,-1,73
 1690 1240 1690 1240 1776 1240 c 0,74,75
 1828 1240 1828 1240 1896 1228 c 0,76,77
 2056 1200 2056 1200 2096 1200 c 0,78,79
 2176 1200 2176 1200 2256 1256 c 1,80,-1
 2344 1120 l 1,81,82
 2238 1048 2238 1048 2136 1048 c 0,83,84
 2094 1048 2094 1048 2008 1064 c 128,-1,85
 1922 1080 1922 1080 1880 1080 c 0,86,87
 1832 1080 1832 1080 1832 1048 c 1,88,89
 1836 1024 1836 1024 1880 1024 c 2,90,-1
 2032 1024 l 1,91,-1
 2032 880 l 1,92,-1
 1744 880 l 2,68,69
EndSplineSet
Ligature2: "'psts' Post Base Substitutions lookup 8 subtable" tm_sa tm_ikaar
EndChar

StartChar: tm_h_ikaar
Encoding: 65564 -1 141
Width: 2454
GlyphClass: 2
Flags: W
LayerCount: 2
Fore
SplineSet
1210 -250 m 1,0,-1
 1138 -96 l 1,1,2
 1196 -48 1196 -48 1258 -48 c 2,3,-1
 1922 -48 l 2,4,5
 2010 -48 2010 -48 2062 -2 c 128,-1,6
 2114 44 2114 44 2114 120 c 0,7,8
 2114 164 2114 164 2082 248 c 0,9,10
 2058 300 2058 300 2058 336 c 0,11,12
 2058 374 2058 374 2090 432 c 0,13,14
 2130 506 2130 506 2130 576 c 0,15,16
 2130 624 2130 624 2098 656 c 128,-1,17
 2066 688 2066 688 2018 688 c 2,18,-1
 1882 688 l 1,19,-1
 1882 848 l 1,20,-1
 2186 848 l 2,21,22
 2256 848 2256 848 2305 785 c 128,-1,23
 2354 722 2354 722 2354 632 c 0,24,25
 2354 554 2354 554 2330 464 c 1,26,27
 2298 400 2298 400 2298 336 c 0,28,29
 2298 314 2298 314 2322 224 c 1,30,31
 2346 160 2346 160 2346 80 c 0,32,33
 2346 -46 2346 -46 2268 -118 c 0,34,35
 2232 -152 2232 -152 2176 -172 c 128,-1,36
 2120 -192 2120 -192 2058 -192 c 2,37,-1
 1362 -192 l 2,38,39
 1316 -192 1316 -192 1278 -206 c 128,-1,40
 1240 -220 1240 -220 1210 -250 c 1,0,-1
798 0 m 1,41,-1
 726 160 l 1,42,-1
 1162 160 l 1,43,-1
 1162 688 l 2,44,45
 1162 752 1162 752 1200 800 c 128,-1,46
 1238 848 1238 848 1290 848 c 2,47,-1
 1706 848 l 2,48,49
 1758 848 1758 848 1796 804 c 128,-1,50
 1834 760 1834 760 1834 696 c 2,51,-1
 1834 0 l 1,52,-1
 1610 0 l 1,53,-1
 1610 608 l 2,54,55
 1610 642 1610 642 1589 665 c 128,-1,56
 1568 688 1568 688 1538 688 c 2,57,-1
 1450 688 l 2,58,59
 1422 688 1422 688 1404 666 c 128,-1,60
 1386 644 1386 644 1386 608 c 2,61,-1
 1386 0 l 1,62,-1
 798 0 l 1,41,-1
362 0 m 2,63,64
 314 0 314 0 272 44 c 128,-1,65
 230 88 230 88 210 160 c 2,66,-1
 98 496 l 1,67,68
 50 626 50 626 50 712 c 0,69,70
 50 768 50 768 92 808 c 128,-1,71
 134 848 134 848 194 848 c 2,72,-1
 986 848 l 1,73,-1
 986 192 l 1,74,-1
 762 192 l 1,75,-1
 762 688 l 1,76,-1
 346 688 l 2,77,78
 312 688 312 688 289 672 c 128,-1,79
 266 656 266 656 266 632 c 0,80,81
 266 602 266 602 290 512 c 2,82,-1
 362 256 l 2,83,84
 386 160 386 160 428 160 c 0,85,86
 458 160 458 160 458 200 c 2,87,-1
 458 432 l 1,88,-1
 330 432 l 1,89,-1
 330 592 l 1,90,-1
 682 592 l 1,91,-1
 682 136 l 2,92,93
 682 78 682 78 650 39 c 128,-1,94
 618 0 618 0 570 0 c 2,95,-1
 362 0 l 2,63,64
1738 880 m 2,96,97
 1666 880 1666 880 1614 934 c 128,-1,98
 1562 988 1562 988 1562 1064 c 0,99,100
 1562 1138 1562 1138 1623 1189 c 128,-1,101
 1684 1240 1684 1240 1770 1240 c 0,102,103
 1822 1240 1822 1240 1890 1228 c 0,104,105
 2050 1200 2050 1200 2090 1200 c 0,106,107
 2170 1200 2170 1200 2250 1256 c 1,108,-1
 2338 1120 l 1,109,110
 2232 1048 2232 1048 2130 1048 c 0,111,112
 2088 1048 2088 1048 2002 1064 c 128,-1,113
 1916 1080 1916 1080 1874 1080 c 0,114,115
 1826 1080 1826 1080 1826 1048 c 1,116,117
 1830 1024 1830 1024 1874 1024 c 2,118,-1
 2026 1024 l 1,119,-1
 2026 880 l 1,120,-1
 1738 880 l 2,96,97
EndSplineSet
Ligature2: "'psts' Post Base Substitutions lookup 8 subtable" tm_ha tm_ikaar
EndChar

StartChar: tm_k_iikaar
Encoding: 65565 -1 142
Width: 1336
GlyphClass: 2
Flags: W
LayerCount: 2
Fore
SplineSet
582 -8 m 0,0,1
 348 -8 348 -8 191 92 c 128,-1,2
 34 192 34 192 34 352 c 0,3,4
 34 400 34 400 62 432 c 128,-1,5
 90 464 90 464 134 464 c 2,6,-1
 570 464 l 1,7,-1
 570 656 l 1,8,-1
 794 656 l 1,9,-1
 794 100 l 2,10,11
 794 56 794 56 732 24 c 128,-1,12
 670 -8 670 -8 582 -8 c 0,0,1
522 176 m 0,13,14
 570 176 570 176 570 200 c 2,15,-1
 570 304 l 1,16,-1
 346 304 l 2,17,18
 330 306 330 306 318 298 c 128,-1,19
 306 290 306 290 306 280 c 0,20,21
 310 246 310 246 382 211 c 128,-1,22
 454 176 454 176 522 176 c 0,13,14
822 -8 m 1,23,-1
 906 184 l 1,24,25
 958 184 958 184 1008 218 c 128,-1,26
 1058 252 1058 252 1058 288 c 1,27,28
 1062 304 1062 304 1034 304 c 2,29,-1
 826 304 l 1,30,-1
 826 464 l 1,31,-1
 1226 464 l 2,32,33
 1256 464 1256 464 1277 429 c 128,-1,34
 1298 394 1298 394 1298 344 c 0,35,36
 1298 184 1298 184 1168 88 c 128,-1,37
 1038 -8 1038 -8 822 -8 c 1,23,-1
426 480 m 1,38,-1
 202 544 l 1,39,-1
 202 848 l 1,40,-1
 1074 848 l 1,41,-1
 994 688 l 1,42,-1
 426 688 l 1,43,-1
 426 480 l 1,38,-1
562 880 m 1,44,45
 458 984 458 984 458 1040 c 2,46,-1
 458 1144 l 2,47,48
 458 1208 458 1208 500 1252 c 128,-1,49
 542 1296 542 1296 602 1296 c 2,50,-1
 1034 1296 l 2,51,52
 1100 1296 1100 1296 1147 1249 c 128,-1,53
 1194 1202 1194 1202 1194 1136 c 2,54,-1
 1194 960 l 1,55,-1
 810 960 l 1,56,-1
 810 1088 l 1,57,-1
 970 1088 l 1,58,-1
 970 1120 l 2,59,60
 970 1152 970 1152 938 1152 c 2,61,-1
 738 1152 l 2,62,63
 714 1152 714 1152 698 1138 c 128,-1,64
 682 1124 682 1124 682 1104 c 2,65,-1
 682 1016 l 2,66,67
 682 976 682 976 778 880 c 1,68,-1
 562 880 l 1,44,45
EndSplineSet
Ligature2: "'abvs' Above Base Substitutions lookup 6 subtable" tm_ka tm_iikaar
EndChar

StartChar: tm_ng_iikaar
Encoding: 65566 -1 143
Width: 1440
GlyphClass: 2
Flags: W
LayerCount: 2
Fore
SplineSet
1054 552 m 1,0,-1
 854 664 l 2,1,2
 790 700 790 700 754 758 c 1,3,-1
 720 700 l 1,4,-1
 690 700 l 1,5,-1
 690 602 l 1,6,7
 724 620 724 620 760 620 c 0,8,9
 870 620 870 620 945 559 c 128,-1,10
 1020 498 1020 498 1020 410 c 0,11,12
 1020 332 1020 332 972 260 c 128,-1,13
 924 188 924 188 840 140 c 1,14,-1
 1100 140 l 1,15,-1
 1100 810 l 1,16,-1
 1320 930 l 1,17,-1
 1320 0 l 1,18,-1
 500 0 l 1,19,-1
 500 142 l 1,20,21
 640 196 640 196 725 267 c 128,-1,22
 810 338 810 338 810 400 c 0,23,24
 810 422 810 422 794 436 c 128,-1,25
 778 450 778 450 750 450 c 0,26,27
 690 450 690 450 690 400 c 2,28,-1
 690 370 l 1,29,-1
 470 260 l 1,30,-1
 470 700 l 1,31,-1
 350 700 l 1,32,-1
 350 -100 l 1,33,-1
 130 -180 l 1,34,-1
 130 850 l 1,35,-1
 720 850 l 1,36,-1
 718 872 l 1,37,-1
 718 1072 l 1,38,-1
 718 1144 l 2,39,40
 718 1208 718 1208 760 1252 c 128,-1,41
 802 1296 802 1296 862 1296 c 2,42,-1
 1326 1296 l 2,43,44
 1392 1296 1392 1296 1439 1249 c 128,-1,45
 1486 1202 1486 1202 1486 1136 c 2,46,-1
 1486 960 l 1,47,-1
 1102 960 l 1,48,-1
 1102 1088 l 1,49,-1
 1262 1088 l 1,50,-1
 1262 1120 l 2,51,52
 1262 1152 1262 1152 1230 1152 c 2,53,-1
 998 1152 l 2,54,55
 974 1152 974 1152 958 1138 c 128,-1,56
 942 1124 942 1124 942 1104 c 2,57,-1
 942 848 l 2,58,59
 942 820 942 820 1006 784 c 1,60,-1
 1054 752 l 1,61,-1
 1054 552 l 1,0,-1
EndSplineSet
Ligature2: "'abvs' Above Base Substitutions lookup 6 subtable" tm_nga tm_iikaar
EndChar

StartChar: tm_c_iikaar
Encoding: 65567 -1 144
Width: 1194
GlyphClass: 2
Flags: W
LayerCount: 2
Fore
SplineSet
572 -8 m 0,0,1
 338 -8 338 -8 186 92 c 128,-1,2
 34 192 34 192 34 352 c 0,3,4
 34 400 34 400 66 432 c 128,-1,5
 98 464 98 464 144 464 c 2,6,-1
 570 464 l 1,7,-1
 570 656 l 1,8,-1
 794 656 l 1,9,-1
 794 90 l 2,10,11
 794 48 794 48 731 20 c 128,-1,12
 668 -8 668 -8 572 -8 c 0,0,1
522 176 m 0,13,14
 570 176 570 176 570 200 c 2,15,-1
 570 304 l 1,16,-1
 346 304 l 2,17,18
 330 306 330 306 318 298 c 128,-1,19
 306 290 306 290 306 280 c 0,20,21
 310 246 310 246 382 211 c 128,-1,22
 454 176 454 176 522 176 c 0,13,14
1082 304 m 1,23,-1
 826 304 l 1,24,-1
 826 464 l 1,25,-1
 1178 464 l 1,26,-1
 1082 304 l 1,23,-1
426 480 m 1,27,-1
 202 544 l 1,28,-1
 202 848 l 1,29,-1
 1074 848 l 1,30,-1
 994 688 l 1,31,-1
 426 688 l 1,32,-1
 426 480 l 1,27,-1
562 880 m 1,33,34
 458 984 458 984 458 1040 c 2,35,-1
 458 1144 l 2,36,37
 458 1208 458 1208 500 1252 c 128,-1,38
 542 1296 542 1296 602 1296 c 2,39,-1
 1034 1296 l 2,40,41
 1100 1296 1100 1296 1147 1249 c 128,-1,42
 1194 1202 1194 1202 1194 1136 c 2,43,-1
 1194 960 l 1,44,-1
 810 960 l 1,45,-1
 810 1088 l 1,46,-1
 970 1088 l 1,47,-1
 970 1120 l 2,48,49
 970 1152 970 1152 938 1152 c 2,50,-1
 738 1152 l 2,51,52
 714 1152 714 1152 698 1138 c 128,-1,53
 682 1124 682 1124 682 1104 c 2,54,-1
 682 1016 l 2,55,56
 682 976 682 976 778 880 c 1,57,-1
 562 880 l 1,33,34
EndSplineSet
Ligature2: "'abvs' Above Base Substitutions lookup 6 subtable" tm_ca tm_iikaar
EndChar

StartChar: tm_j_iikaar
Encoding: 65568 -1 145
Width: 1240
GlyphClass: 2
Flags: W
LayerCount: 2
Fore
SplineSet
880 -256 m 0,0,1
 734 -256 734 -256 592 -136 c 1,2,-1
 736 -16 l 1,3,4
 794 -64 794 -64 856 -64 c 0,5,6
 896 -64 896 -64 896 -32 c 2,7,-1
 896 112 l 2,8,9
 898 128 898 128 890 140 c 128,-1,10
 882 152 882 152 872 152 c 0,11,12
 850 148 850 148 816 120 c 1,13,-1
 704 48 l 1,14,15
 650 0 650 0 576 0 c 2,16,-1
 224 0 l 2,17,18
 176 0 176 0 144 32 c 128,-1,19
 112 64 112 64 112 112 c 2,20,-1
 112 304 l 2,21,22
 112 334 112 334 142 360 c 128,-1,23
 172 386 172 386 224 400 c 2,24,-1
 792 560 l 2,25,26
 864 578 864 578 864 616 c 2,27,-1
 864 704 l 1,28,-1
 832 704 l 2,29,30
 778 704 778 704 741 671 c 128,-1,31
 704 638 704 638 704 592 c 1,32,-1
 544 592 l 1,33,34
 534 640 534 640 507 672 c 128,-1,35
 480 704 480 704 448 704 c 2,36,-1
 376 704 l 2,37,38
 328 704 328 704 320 672 c 1,39,40
 320 640 320 640 392 568 c 1,41,-1
 192 496 l 1,42,-1
 128 576 l 1,43,44
 64 668 64 668 64 736 c 0,45,46
 64 784 64 784 96 816 c 128,-1,47
 128 848 128 848 176 848 c 2,48,-1
 528 848 l 2,49,50
 620 848 620 848 640 768 c 1,51,52
 660 848 660 848 752 848 c 2,53,-1
 1216 848 l 1,54,-1
 1136 704 l 1,55,-1
 1088 704 l 1,56,-1
 1088 560 l 2,57,58
 1088 524 1088 524 1054 494 c 128,-1,59
 1020 464 1020 464 960 448 c 2,60,-1
 408 280 l 2,61,62
 336 262 336 262 336 224 c 2,63,-1
 336 192 l 2,64,65
 336 160 336 160 368 160 c 2,66,-1
 528 160 l 2,67,68
 566 160 566 160 648 208 c 1,69,-1
 768 288 l 2,70,71
 824 328 824 328 880 328 c 0,72,73
 940 328 940 328 1030 255 c 128,-1,74
 1120 182 1120 182 1120 136 c 2,75,-1
 1120 -72 l 2,76,77
 1120 -94 1120 -94 1096 -124 c 128,-1,78
 1072 -154 1072 -154 1030 -186 c 0,79,80
 942 -256 942 -256 880 -256 c 0,0,1
856 880 m 1,81,82
 752 984 752 984 752 1040 c 2,83,-1
 752 1144 l 2,84,85
 752 1208 752 1208 794 1252 c 128,-1,86
 836 1296 836 1296 896 1296 c 2,87,-1
 1328 1296 l 2,88,89
 1394 1296 1394 1296 1441 1249 c 128,-1,90
 1488 1202 1488 1202 1488 1136 c 2,91,-1
 1488 960 l 1,92,-1
 1104 960 l 1,93,-1
 1104 1088 l 1,94,-1
 1264 1088 l 1,95,-1
 1264 1120 l 2,96,97
 1264 1152 1264 1152 1232 1152 c 2,98,-1
 1032 1152 l 2,99,100
 1008 1152 1008 1152 992 1138 c 128,-1,101
 976 1124 976 1124 976 1104 c 2,102,-1
 976 1016 l 2,103,104
 976 976 976 976 1072 880 c 1,105,-1
 856 880 l 1,81,82
EndSplineSet
Ligature2: "'abvs' Above Base Substitutions lookup 6 subtable" tm_ja tm_iikaar
EndChar

StartChar: tm_ny_iikaar
Encoding: 65569 -1 146
Width: 1994
GlyphClass: 2
Flags: W
LayerCount: 2
Fore
SplineSet
1422 688 m 1,0,-1
 1422 0 l 1,1,-1
 1198 0 l 1,2,-1
 1198 688 l 1,3,-1
 670 688 l 2,4,5
 606 688 606 688 606 648 c 0,6,7
 606 600 606 600 622 552 c 2,8,-1
 710 200 l 2,9,10
 730 136 730 136 766 136 c 0,11,12
 794 136 794 136 812 154 c 128,-1,13
 830 172 830 172 830 198 c 2,14,-1
 830 384 l 1,15,-1
 702 384 l 1,16,-1
 702 544 l 1,17,-1
 1054 544 l 1,18,-1
 1054 152 l 2,19,20
 1054 88 1054 88 1022 44 c 128,-1,21
 990 0 990 0 942 0 c 2,22,-1
 638 0 l 2,23,24
 602 0 602 0 567 47 c 128,-1,25
 532 94 532 94 510 176 c 2,26,-1
 422 504 l 2,27,28
 382 660 382 660 382 712 c 0,29,30
 382 768 382 768 424 808 c 128,-1,31
 466 848 466 848 526 848 c 2,32,-1
 1638 848 l 1,33,-1
 1566 688 l 1,34,-1
 1422 688 l 1,0,-1
1454 464 m 1,35,-1
 1774 464 l 2,36,37
 1848 464 1848 464 1899 417 c 128,-1,38
 1950 370 1950 370 1950 304 c 0,39,40
 1950 206 1950 206 1886 96 c 2,41,-1
 1798 -48 l 1,42,43
 1690 -208 1690 -208 1566 -208 c 2,44,-1
 406 -208 l 2,45,46
 300 -208 300 -208 213 -129 c 128,-1,47
 126 -50 126 -50 126 48 c 2,48,-1
 126 800 l 1,49,-1
 350 912 l 1,50,-1
 350 112 l 2,51,52
 350 40 350 40 398 -4 c 0,53,54
 452 -48 452 -48 526 -48 c 2,55,-1
 1462 -48 l 2,56,57
 1568 -48 1568 -48 1630 56 c 1,58,-1
 1694 152 l 2,59,60
 1726 206 1726 206 1726 240 c 0,61,62
 1726 268 1726 268 1701 286 c 128,-1,63
 1676 304 1676 304 1638 304 c 2,64,-1
 1454 304 l 1,65,-1
 1454 464 l 1,35,-1
1172 880 m 1,66,67
 1068 984 1068 984 1068 1040 c 2,68,-1
 1068 1144 l 2,69,70
 1068 1208 1068 1208 1110 1252 c 128,-1,71
 1152 1296 1152 1296 1212 1296 c 2,72,-1
 1644 1296 l 2,73,74
 1710 1296 1710 1296 1757 1249 c 128,-1,75
 1804 1202 1804 1202 1804 1136 c 2,76,-1
 1804 960 l 1,77,-1
 1420 960 l 1,78,-1
 1420 1088 l 1,79,-1
 1580 1088 l 1,80,-1
 1580 1120 l 2,81,82
 1580 1152 1580 1152 1548 1152 c 2,83,-1
 1348 1152 l 2,84,85
 1324 1152 1324 1152 1308 1138 c 128,-1,86
 1292 1124 1292 1124 1292 1104 c 2,87,-1
 1292 1016 l 2,88,89
 1292 976 1292 976 1388 880 c 1,90,-1
 1172 880 l 1,66,67
EndSplineSet
Ligature2: "'abvs' Above Base Substitutions lookup 6 subtable" tm_nya tm_iikaar
EndChar

StartChar: tm_tt_iikaar
Encoding: 65570 -1 147
Width: 1344
GlyphClass: 2
Flags: W
LayerCount: 2
Fore
SplineSet
114 0 m 1,0,-1
 114 776 l 1,1,-1
 338 880 l 1,2,-1
 338 160 l 1,3,-1
 610 160 l 1,4,5
 524 220 524 220 479 267 c 128,-1,6
 434 314 434 314 434 344 c 2,7,-1
 434 500 l 2,8,9
 434 572 434 572 476 622 c 128,-1,10
 518 672 518 672 578 672 c 2,11,-1
 946 672 l 1,12,-1
 1050 672 l 2,13,14
 1114 672 1114 672 1158 622 c 128,-1,15
 1202 572 1202 572 1202 500 c 2,16,-1
 1202 336 l 1,17,-1
 818 336 l 1,18,-1
 818 464 l 1,19,-1
 978 464 l 1,20,-1
 978 496 l 2,21,22
 978 528 978 528 946 528 c 2,23,-1
 714 528 l 2,24,25
 690 528 690 528 674 514 c 128,-1,26
 658 500 658 500 658 480 c 2,27,-1
 658 352 l 2,28,29
 658 330 658 330 688 300 c 1,30,31
 780 226 780 226 858 160 c 1,32,-1
 1330 160 l 1,33,-1
 1234 0 l 1,34,-1
 114 0 l 1,0,-1
EndSplineSet
Ligature2: "'abvs' Above Base Substitutions lookup 5 subtable" tm_tta tm_iikaar
EndChar

StartChar: tm_nn_iikaar
Encoding: 65571 -1 148
Width: 2400
GlyphClass: 2
Flags: W
LayerCount: 2
Fore
SplineSet
276 0 m 2,0,1
 232 0 232 0 196 38 c 128,-1,2
 160 76 160 76 150 136 c 1,3,-1
 44 584 l 2,4,5
 30 632 30 632 30 720 c 0,6,7
 30 772 30 772 81 810 c 128,-1,8
 132 848 132 848 204 848 c 2,9,-1
 1060 848 l 2,10,11
 1130 848 1130 848 1179 799 c 128,-1,12
 1228 750 1228 750 1228 680 c 2,13,-1
 1228 224 l 2,14,15
 1228 118 1228 118 1160 55 c 128,-1,16
 1092 -8 1092 -8 980 -8 c 2,17,-1
 892 -8 l 2,18,19
 788 -8 788 -8 724 46 c 128,-1,20
 660 100 660 100 660 192 c 2,21,-1
 660 672 l 1,22,-1
 884 672 l 1,23,-1
 884 208 l 2,24,25
 884 144 884 144 948 144 c 0,26,27
 972 144 972 144 988 160 c 128,-1,28
 1004 176 1004 176 1004 200 c 2,29,-1
 1004 616 l 2,30,31
 1004 654 1004 654 983 679 c 128,-1,32
 962 704 962 704 932 704 c 2,33,-1
 300 704 l 2,34,35
 252 704 252 704 252 664 c 0,36,37
 252 632 252 632 268 568 c 2,38,-1
 348 168 l 2,39,40
 352 144 352 144 380 144 c 0,41,42
 412 144 412 144 412 184 c 2,43,-1
 412 416 l 1,44,-1
 316 416 l 1,45,-1
 316 576 l 1,46,-1
 628 576 l 1,47,-1
 628 104 l 2,48,49
 628 58 628 58 602 29 c 128,-1,50
 576 0 576 0 540 0 c 2,51,-1
 276 0 l 2,0,1
1492 -8 m 2,52,53
 1388 -8 1388 -8 1324 46 c 128,-1,54
 1260 100 1260 100 1260 192 c 2,55,-1
 1260 672 l 1,56,-1
 1484 672 l 1,57,-1
 1484 208 l 2,58,59
 1484 144 1484 144 1548 144 c 0,60,61
 1572 144 1572 144 1588 160 c 128,-1,62
 1604 176 1604 176 1604 200 c 2,63,-1
 1604 616 l 2,64,65
 1604 654 1604 654 1583 679 c 128,-1,66
 1562 704 1562 704 1532 704 c 2,67,-1
 1260 704 l 1,68,-1
 1260 848 l 1,69,-1
 1660 848 l 2,70,71
 1730 848 1730 848 1779 799 c 128,-1,72
 1828 750 1828 750 1828 680 c 2,73,-1
 1828 224 l 2,74,75
 1828 118 1828 118 1760 55 c 128,-1,76
 1692 -8 1692 -8 1580 -8 c 2,77,-1
 1492 -8 l 2,52,53
1972 -72 m 1,78,-1
 1972 704 l 1,79,-1
 1860 704 l 1,80,-1
 1860 848 l 1,81,-1
 2388 848 l 1,82,-1
 2292 704 l 1,83,-1
 2180 704 l 1,84,-1
 2180 32 l 1,85,-1
 1972 -72 l 1,78,-1
1956 880 m 1,86,87
 1852 984 1852 984 1852 1040 c 2,88,-1
 1852 1144 l 2,89,90
 1852 1208 1852 1208 1894 1252 c 128,-1,91
 1936 1296 1936 1296 1996 1296 c 2,92,-1
 2364 1296 l 1,93,-1
 2460 1296 l 2,94,95
 2526 1296 2526 1296 2573 1249 c 128,-1,96
 2620 1202 2620 1202 2620 1136 c 2,97,-1
 2620 960 l 1,98,-1
 2236 960 l 1,99,-1
 2236 1088 l 1,100,-1
 2396 1088 l 1,101,-1
 2396 1120 l 2,102,103
 2396 1152 2396 1152 2364 1152 c 2,104,-1
 2132 1152 l 2,105,106
 2108 1152 2108 1152 2092 1138 c 128,-1,107
 2076 1124 2076 1124 2076 1104 c 2,108,-1
 2076 1016 l 2,109,110
 2076 968 2076 968 2164 880 c 1,111,-1
 1956 880 l 1,86,87
EndSplineSet
Ligature2: "'abvs' Above Base Substitutions lookup 6 subtable" tm_nna tm_iikaar
EndChar

StartChar: tm_t_iikaar
Encoding: 65572 -1 149
Width: 1290
GlyphClass: 2
Flags: W
LayerCount: 2
Fore
SplineSet
592 -8 m 0,0,1
 350 -8 350 -8 192 96 c 128,-1,2
 34 200 34 200 34 352 c 0,3,4
 34 400 34 400 66 432 c 128,-1,5
 98 464 98 464 144 464 c 2,6,-1
 570 464 l 1,7,-1
 570 656 l 1,8,-1
 794 656 l 1,9,-1
 794 116 l 2,10,11
 794 64 794 64 736 28 c 128,-1,12
 678 -8 678 -8 592 -8 c 0,0,1
234 -264 m 1,13,-1
 146 -104 l 1,14,15
 210 -56 210 -56 290 -56 c 2,16,-1
 770 -56 l 2,17,18
 832 -56 832 -56 890 24 c 1,19,-1
 962 144 l 1,20,21
 1010 214 1010 214 1010 256 c 0,22,23
 1010 276 1010 276 990 290 c 128,-1,24
 970 304 970 304 938 304 c 2,25,-1
 826 304 l 1,26,-1
 826 464 l 1,27,-1
 1082 464 l 2,28,29
 1150 464 1150 464 1200 420 c 128,-1,30
 1250 376 1250 376 1250 312 c 0,31,32
 1250 244 1250 244 1178 120 c 2,33,-1
 1050 -96 l 2,34,35
 978 -216 978 -216 866 -216 c 2,36,-1
 354 -216 l 2,37,38
 276 -216 276 -216 234 -264 c 1,13,-1
522 176 m 0,39,40
 570 176 570 176 570 200 c 2,41,-1
 570 304 l 1,42,-1
 346 304 l 2,43,44
 330 306 330 306 318 298 c 128,-1,45
 306 290 306 290 306 280 c 0,46,47
 310 246 310 246 382 211 c 128,-1,48
 454 176 454 176 522 176 c 0,39,40
426 480 m 1,49,-1
 202 544 l 1,50,-1
 202 848 l 1,51,-1
 1074 848 l 1,52,-1
 986 688 l 1,53,-1
 426 688 l 1,54,-1
 426 480 l 1,49,-1
562 880 m 1,55,56
 458 984 458 984 458 1040 c 2,57,-1
 458 1144 l 2,58,59
 458 1208 458 1208 500 1252 c 128,-1,60
 542 1296 542 1296 602 1296 c 2,61,-1
 1034 1296 l 2,62,63
 1100 1296 1100 1296 1147 1249 c 128,-1,64
 1194 1202 1194 1202 1194 1136 c 2,65,-1
 1194 960 l 1,66,-1
 810 960 l 1,67,-1
 810 1088 l 1,68,-1
 970 1088 l 1,69,-1
 970 1120 l 2,70,71
 970 1152 970 1152 938 1152 c 2,72,-1
 738 1152 l 2,73,74
 714 1152 714 1152 698 1138 c 128,-1,75
 682 1124 682 1124 682 1104 c 2,76,-1
 682 1016 l 2,77,78
 682 976 682 976 778 880 c 1,79,-1
 562 880 l 1,55,56
EndSplineSet
Ligature2: "'abvs' Above Base Substitutions lookup 6 subtable" tm_ta tm_iikaar
EndChar

StartChar: tm_n_iikaar
Encoding: 65573 -1 150
Width: 1210
GlyphClass: 2
Flags: W
LayerCount: 2
Fore
SplineSet
490 0 m 1,0,-1
 490 656 l 1,1,-1
 714 656 l 1,2,-1
 714 0 l 1,3,-1
 490 0 l 1,0,-1
122 0 m 1,4,-1
 122 848 l 1,5,-1
 994 848 l 1,6,-1
 906 688 l 1,7,-1
 346 688 l 1,8,-1
 346 0 l 1,9,-1
 122 0 l 1,4,-1
154 -264 m 1,10,-1
 74 -104 l 1,11,12
 140 -56 140 -56 210 -56 c 2,13,-1
 690 -56 l 2,14,15
 752 -56 752 -56 810 24 c 1,16,-1
 882 144 l 1,17,18
 930 214 930 214 930 256 c 0,19,20
 930 276 930 276 910 290 c 128,-1,21
 890 304 890 304 858 304 c 2,22,-1
 746 304 l 1,23,-1
 746 464 l 1,24,-1
 1002 464 l 2,25,26
 1070 464 1070 464 1120 420 c 128,-1,27
 1170 376 1170 376 1170 312 c 0,28,29
 1170 244 1170 244 1098 120 c 2,30,-1
 970 -96 l 2,31,32
 898 -216 898 -216 786 -216 c 2,33,-1
 274 -216 l 2,34,35
 196 -216 196 -216 154 -264 c 1,10,-1
482 880 m 1,36,37
 386 980 386 980 386 1040 c 2,38,-1
 386 1144 l 2,39,40
 386 1208 386 1208 428 1252 c 128,-1,41
 470 1296 470 1296 530 1296 c 2,42,-1
 898 1296 l 1,43,-1
 946 1296 l 2,44,45
 1012 1296 1012 1296 1059 1249 c 128,-1,46
 1106 1202 1106 1202 1106 1136 c 2,47,-1
 1106 960 l 1,48,-1
 722 960 l 1,49,-1
 722 1088 l 1,50,-1
 882 1088 l 1,51,-1
 882 1120 l 2,52,53
 882 1152 882 1152 850 1152 c 2,54,-1
 666 1152 l 2,55,56
 642 1152 642 1152 626 1138 c 128,-1,57
 610 1124 610 1124 610 1104 c 2,58,-1
 610 1008 l 2,59,60
 610 976 610 976 706 880 c 1,61,-1
 482 880 l 1,36,37
EndSplineSet
Ligature2: "'abvs' Above Base Substitutions lookup 6 subtable" tm_na tm_iikaar
EndChar

StartChar: tm_nnn_iikaar
Encoding: 65574 -1 151
Width: 1800
GlyphClass: 2
Flags: W
LayerCount: 2
Fore
SplineSet
274 0 m 2,0,1
 232 0 232 0 198 40 c 128,-1,2
 164 80 164 80 154 140 c 2,3,-1
 54 580 l 2,4,5
 34 660 34 660 34 720 c 0,6,7
 34 774 34 774 84 812 c 128,-1,8
 134 850 134 850 204 850 c 2,9,-1
 1064 850 l 2,10,11
 1128 850 1128 850 1176 800 c 128,-1,12
 1224 750 1224 750 1224 680 c 2,13,-1
 1224 190 l 2,14,15
 1224 100 1224 100 1158 44 c 1,16,17
 1088 -10 1088 -10 984 -10 c 2,18,-1
 894 -10 l 2,19,20
 790 -10 790 -10 727 45 c 128,-1,21
 664 100 664 100 664 190 c 2,22,-1
 664 670 l 1,23,-1
 884 670 l 1,24,-1
 884 200 l 2,25,26
 884 174 884 174 901 157 c 128,-1,27
 918 140 918 140 944 140 c 256,28,29
 970 140 970 140 987 157 c 128,-1,30
 1004 174 1004 174 1004 200 c 2,31,-1
 1004 620 l 2,32,33
 1004 652 1004 652 984 676 c 128,-1,34
 964 700 964 700 934 700 c 2,35,-1
 304 700 l 2,36,37
 254 700 254 700 254 660 c 0,38,39
 254 610 254 610 264 570 c 2,40,-1
 344 190 l 2,41,42
 354 140 354 140 384 140 c 256,43,44
 414 140 414 140 414 180 c 2,45,-1
 414 420 l 1,46,-1
 314 420 l 1,47,-1
 314 580 l 1,48,-1
 624 580 l 1,49,-1
 624 100 l 2,50,51
 624 56 624 56 601 28 c 128,-1,52
 578 0 578 0 544 0 c 2,53,-1
 274 0 l 2,0,1
1374 -70 m 1,54,-1
 1374 700 l 1,55,-1
 1264 700 l 1,56,-1
 1264 850 l 1,57,-1
 1784 850 l 1,58,-1
 1694 700 l 1,59,-1
 1584 700 l 1,60,-1
 1584 30 l 1,61,-1
 1374 -70 l 1,54,-1
1364 880 m 1,62,63
 1264 980 1264 980 1264 1040 c 2,64,-1
 1264 1140 l 2,65,66
 1264 1206 1264 1206 1305 1253 c 128,-1,67
 1346 1300 1346 1300 1404 1300 c 2,68,-1
 1834 1300 l 2,69,70
 1900 1300 1900 1300 1947 1253 c 128,-1,71
 1994 1206 1994 1206 1994 1140 c 2,72,-1
 1994 960 l 1,73,-1
 1614 960 l 1,74,-1
 1614 1090 l 1,75,-1
 1774 1090 l 1,76,-1
 1774 1120 l 1,77,78
 1770 1150 1770 1150 1744 1150 c 2,79,-1
 1544 1150 l 2,80,81
 1484 1150 1484 1150 1484 1100 c 2,82,-1
 1484 1020 l 2,83,84
 1484 980 1484 980 1584 880 c 1,85,-1
 1364 880 l 1,62,63
EndSplineSet
Ligature2: "'abvs' Above Base Substitutions lookup 6 subtable" tm_nnna tm_iikaar
EndChar

StartChar: tm_p_iikaar
Encoding: 65575 -1 152
Width: 1120
GlyphClass: 2
Flags: W
LayerCount: 2
Fore
SplineSet
120 0 m 1,0,-1
 120 848 l 1,1,-1
 344 848 l 1,2,-1
 344 160 l 1,3,-1
 776 160 l 1,4,-1
 776 808 l 1,5,-1
 1000 928 l 1,6,-1
 1000 0 l 1,7,-1
 120 0 l 1,0,-1
744 552 m 1,8,-1
 544 664 l 2,9,10
 408 742 408 742 408 872 c 2,11,-1
 408 1072 l 1,12,-1
 408 1144 l 2,13,14
 408 1208 408 1208 450 1252 c 128,-1,15
 492 1296 492 1296 552 1296 c 2,16,-1
 1016 1296 l 2,17,18
 1082 1296 1082 1296 1129 1249 c 128,-1,19
 1176 1202 1176 1202 1176 1136 c 2,20,-1
 1176 960 l 1,21,-1
 792 960 l 1,22,-1
 792 1088 l 1,23,-1
 952 1088 l 1,24,-1
 952 1120 l 2,25,26
 952 1152 952 1152 920 1152 c 2,27,-1
 688 1152 l 2,28,29
 664 1152 664 1152 648 1138 c 128,-1,30
 632 1124 632 1124 632 1104 c 2,31,-1
 632 848 l 2,32,33
 632 820 632 820 696 784 c 1,34,-1
 744 752 l 1,35,-1
 744 552 l 1,8,-1
EndSplineSet
Ligature2: "'abvs' Above Base Substitutions lookup 6 subtable" tm_pa tm_iikaar
EndChar

StartChar: tm_m_iikaar
Encoding: 65576 -1 153
Width: 1328
GlyphClass: 2
Flags: W
LayerCount: 2
Fore
SplineSet
120 0 m 1,0,-1
 120 872 l 1,1,-1
 344 768 l 1,2,-1
 344 160 l 1,3,-1
 816 160 l 1,4,-1
 1024 568 l 2,5,6
 1056 622 1056 622 1056 656 c 0,7,8
 1056 688 1056 688 1016 688 c 2,9,-1
 776 688 l 1,10,-1
 776 200 l 1,11,-1
 552 256 l 1,12,-1
 552 848 l 1,13,-1
 1136 848 l 2,14,15
 1198 848 1198 848 1243 810 c 128,-1,16
 1288 772 1288 772 1288 720 c 0,17,18
 1288 642 1288 642 1240 560 c 1,19,-1
 944 0 l 1,20,-1
 120 0 l 1,0,-1
640 880 m 1,21,22
 536 984 536 984 536 1040 c 2,23,-1
 536 1144 l 2,24,25
 536 1208 536 1208 578 1252 c 128,-1,26
 620 1296 620 1296 680 1296 c 2,27,-1
 1048 1296 l 1,28,-1
 1144 1296 l 2,29,30
 1210 1296 1210 1296 1257 1249 c 128,-1,31
 1304 1202 1304 1202 1304 1136 c 2,32,-1
 1304 960 l 1,33,-1
 920 960 l 1,34,-1
 920 1088 l 1,35,-1
 1080 1088 l 1,36,-1
 1080 1120 l 2,37,38
 1080 1152 1080 1152 1048 1152 c 2,39,-1
 816 1152 l 2,40,41
 792 1152 792 1152 776 1138 c 128,-1,42
 760 1124 760 1124 760 1104 c 2,43,-1
 760 1016 l 2,44,45
 760 976 760 976 856 880 c 1,46,-1
 640 880 l 1,21,22
EndSplineSet
Ligature2: "'abvs' Above Base Substitutions lookup 6 subtable" tm_ma tm_iikaar
EndChar

StartChar: tm_y_iikaar
Encoding: 65577 -1 154
Width: 1376
GlyphClass: 2
Flags: W
LayerCount: 2
Fore
SplineSet
282 0 m 2,0,1
 212 0 212 0 162 52 c 128,-1,2
 112 104 112 104 112 180 c 2,3,-1
 112 850 l 1,4,-1
 332 850 l 1,5,-1
 332 220 l 2,6,7
 332 186 332 186 361 163 c 128,-1,8
 390 140 390 140 432 140 c 256,9,10
 474 140 474 140 503 163 c 128,-1,11
 532 186 532 186 532 220 c 2,12,-1
 532 850 l 1,13,-1
 752 850 l 1,14,-1
 752 180 l 2,15,16
 752 104 752 104 712 52 c 128,-1,17
 672 0 672 0 612 0 c 2,18,-1
 282 0 l 2,0,1
772 0 m 1,19,-1
 772 160 l 1,20,-1
 1042 160 l 1,21,-1
 1042 880 l 1,22,-1
 1262 770 l 1,23,-1
 1262 0 l 1,24,-1
 772 0 l 1,19,-1
1022 580 m 1,25,-1
 902 660 l 1,26,27
 782 746 782 746 782 860 c 2,28,-1
 782 1140 l 2,29,30
 782 1204 782 1204 820 1252 c 128,-1,31
 858 1300 858 1300 912 1300 c 2,32,-1
 1362 1300 l 2,33,34
 1422 1300 1422 1300 1462 1254 c 128,-1,35
 1502 1208 1502 1208 1502 1140 c 2,36,-1
 1502 960 l 1,37,-1
 1152 960 l 1,38,-1
 1152 1090 l 1,39,-1
 1312 1090 l 1,40,-1
 1312 1120 l 1,41,42
 1308 1150 1308 1150 1282 1150 c 2,43,-1
 1032 1150 l 2,44,45
 972 1150 972 1150 972 1100 c 2,46,-1
 972 850 l 2,47,48
 972 810 972 810 1022 780 c 1,49,-1
 1022 580 l 1,25,-1
EndSplineSet
Ligature2: "'abvs' Above Base Substitutions lookup 6 subtable" tm_ya tm_iikaar
EndChar

StartChar: tm_r_iikaar
Encoding: 65578 -1 155
Width: 904
GlyphClass: 2
Flags: W
LayerCount: 2
Fore
SplineSet
120 0 m 1,0,-1
 120 848 l 1,1,-1
 888 848 l 1,2,-1
 808 688 l 1,3,-1
 344 688 l 1,4,-1
 344 0 l 1,5,-1
 120 0 l 1,0,-1
480 880 m 1,6,7
 384 980 384 980 384 1040 c 2,8,-1
 384 1144 l 2,9,10
 384 1208 384 1208 426 1252 c 128,-1,11
 468 1296 468 1296 528 1296 c 2,12,-1
 960 1296 l 2,13,14
 1026 1296 1026 1296 1073 1249 c 128,-1,15
 1120 1202 1120 1202 1120 1136 c 2,16,-1
 1120 960 l 1,17,-1
 736 960 l 1,18,-1
 736 1088 l 1,19,-1
 896 1088 l 1,20,-1
 896 1120 l 2,21,22
 896 1152 896 1152 864 1152 c 2,23,-1
 664 1152 l 2,24,25
 640 1152 640 1152 624 1138 c 128,-1,26
 608 1124 608 1124 608 1104 c 2,27,-1
 608 1016 l 2,28,29
 608 976 608 976 704 880 c 1,30,-1
 480 880 l 1,6,7
712 -108 m 1,31,-1
 160 -264 l 1,32,-1
 108 -102 l 1,33,-1
 488 0 l 1,34,-1
 488 656 l 1,35,-1
 712 656 l 1,36,-1
 712 -108 l 1,31,-1
EndSplineSet
Ligature2: "'abvs' Above Base Substitutions lookup 5 subtable" tm_ra tm_iikaar
EndChar

StartChar: tm_rr_iikaar
Encoding: 65579 -1 156
Width: 1398
GlyphClass: 2
Flags: W
LayerCount: 2
Fore
SplineSet
162 -240 m 1,0,-1
 90 -96 l 1,1,2
 144 -48 144 -48 202 -48 c 2,3,-1
 866 -48 l 2,4,5
 954 -48 954 -48 1006 -2 c 128,-1,6
 1058 44 1058 44 1058 120 c 0,7,8
 1058 164 1058 164 1026 248 c 0,9,10
 1002 300 1002 300 1002 336 c 0,11,12
 1002 374 1002 374 1034 432 c 0,13,14
 1074 506 1074 506 1074 576 c 0,15,16
 1074 624 1074 624 1042 656 c 128,-1,17
 1010 688 1010 688 962 688 c 2,18,-1
 826 688 l 1,19,-1
 826 848 l 1,20,-1
 1130 848 l 2,21,22
 1200 848 1200 848 1249 785 c 128,-1,23
 1298 722 1298 722 1298 632 c 0,24,25
 1298 554 1298 554 1274 464 c 1,26,27
 1242 400 1242 400 1242 336 c 0,28,29
 1242 314 1242 314 1266 224 c 1,30,31
 1290 160 1290 160 1290 80 c 0,32,33
 1290 -46 1290 -46 1212 -118 c 0,34,35
 1176 -152 1176 -152 1120 -172 c 128,-1,36
 1064 -192 1064 -192 1002 -192 c 2,37,-1
 306 -192 l 2,38,39
 210 -192 210 -192 162 -240 c 1,0,-1
330 0 m 1,40,-1
 106 112 l 1,41,-1
 106 688 l 2,42,43
 106 752 106 752 144 800 c 128,-1,44
 182 848 182 848 234 848 c 2,45,-1
 666 848 l 2,46,47
 718 848 718 848 756 804 c 128,-1,48
 794 760 794 760 794 696 c 2,49,-1
 794 0 l 1,50,-1
 570 0 l 1,51,-1
 570 608 l 2,52,53
 570 642 570 642 549 665 c 128,-1,54
 528 688 528 688 498 688 c 2,55,-1
 394 688 l 2,56,57
 366 688 366 688 348 666 c 128,-1,58
 330 644 330 644 330 608 c 2,59,-1
 330 0 l 1,40,-1
658 880 m 1,60,61
 554 984 554 984 554 1040 c 2,62,-1
 554 1144 l 2,63,64
 554 1208 554 1208 596 1252 c 128,-1,65
 638 1296 638 1296 698 1296 c 2,66,-1
 1130 1296 l 2,67,68
 1196 1296 1196 1296 1243 1249 c 128,-1,69
 1290 1202 1290 1202 1290 1136 c 2,70,-1
 1290 960 l 1,71,-1
 906 960 l 1,72,-1
 906 1088 l 1,73,-1
 1066 1088 l 1,74,-1
 1066 1120 l 2,75,76
 1066 1152 1066 1152 1034 1152 c 2,77,-1
 834 1152 l 2,78,79
 810 1152 810 1152 794 1138 c 128,-1,80
 778 1124 778 1124 778 1104 c 2,81,-1
 778 1016 l 2,82,83
 778 976 778 976 874 880 c 1,84,-1
 658 880 l 1,60,61
EndSplineSet
Ligature2: "'abvs' Above Base Substitutions lookup 6 subtable" tm_rra tm_iikaar
EndChar

StartChar: tm_l_iikaar
Encoding: 65580 -1 157
Width: 1582
GlyphClass: 2
Flags: W
LayerCount: 2
Fore
SplineSet
370 0 m 2,0,1
 306 0 306 0 251 53 c 128,-1,2
 196 106 196 106 174 192 c 2,3,-1
 54 592 l 2,4,5
 40 628 40 628 40 712 c 0,6,7
 40 768 40 768 84 808 c 128,-1,8
 128 848 128 848 194 848 c 2,9,-1
 986 848 l 1,10,-1
 986 160 l 1,11,-1
 1122 160 l 2,12,13
 1208 160 1208 160 1226 256 c 2,14,-1
 1266 496 l 2,15,16
 1274 546 1274 546 1278 574 c 128,-1,17
 1282 602 1282 602 1282 624 c 0,18,19
 1282 688 1282 688 1218 688 c 2,20,-1
 1050 688 l 1,21,-1
 1050 848 l 1,22,-1
 1346 848 l 2,23,24
 1414 848 1414 848 1464 806 c 128,-1,25
 1514 764 1514 764 1514 704 c 0,26,27
 1514 656 1514 656 1490 520 c 2,28,-1
 1426 168 l 2,29,30
 1412 96 1412 96 1372 48 c 128,-1,31
 1332 0 1332 0 1282 0 c 2,32,-1
 830 0 l 1,33,-1
 762 160 l 1,34,-1
 762 672 l 1,35,-1
 338 672 l 2,36,37
 314 672 314 672 298 660 c 128,-1,38
 282 648 282 648 282 632 c 0,39,40
 280 616 280 616 288 586 c 0,41,42
 304 536 304 536 314 496 c 1,43,-1
 314 592 l 1,44,-1
 682 592 l 1,45,-1
 682 136 l 2,46,47
 682 80 682 80 652 40 c 128,-1,48
 622 0 622 0 578 0 c 2,49,-1
 370 0 l 2,0,1
426 176 m 0,50,51
 458 180 458 180 458 224 c 2,52,-1
 458 368 l 2,53,54
 458 432 458 432 418 432 c 2,55,-1
 330 432 l 1,56,-1
 378 224 l 1,57,58
 396 176 396 176 426 176 c 0,50,51
1058 880 m 1,59,60
 954 988 954 988 954 1048 c 2,61,-1
 954 1144 l 2,62,63
 954 1208 954 1208 996 1252 c 128,-1,64
 1038 1296 1038 1296 1098 1296 c 2,65,-1
 1530 1296 l 2,66,67
 1596 1296 1596 1296 1643 1249 c 128,-1,68
 1690 1202 1690 1202 1690 1136 c 2,69,-1
 1690 960 l 1,70,-1
 1306 960 l 1,71,-1
 1306 1088 l 1,72,-1
 1466 1088 l 1,73,-1
 1466 1120 l 2,74,75
 1466 1152 1466 1152 1434 1152 c 2,76,-1
 1234 1152 l 2,77,78
 1210 1152 1210 1152 1194 1138 c 128,-1,79
 1178 1124 1178 1124 1178 1104 c 2,80,-1
 1178 1016 l 2,81,82
 1178 976 1178 976 1274 880 c 1,83,-1
 1058 880 l 1,59,60
EndSplineSet
Ligature2: "'abvs' Above Base Substitutions lookup 5 subtable" tm_la tm_iikaar
EndChar

StartChar: tm_ll_iikaar
Encoding: 65581 -1 158
Width: 1876
GlyphClass: 2
Flags: W
LayerCount: 2
Fore
SplineSet
306 0 m 2,0,1
 270 0 270 0 235 47 c 128,-1,2
 200 94 200 94 178 176 c 2,3,-1
 80 520 l 2,4,5
 48 634 48 634 48 696 c 0,6,7
 48 760 48 760 90 804 c 128,-1,8
 132 848 132 848 194 848 c 2,9,-1
 962 848 l 2,10,11
 1036 848 1036 848 1087 799 c 128,-1,12
 1138 750 1138 750 1138 680 c 2,13,-1
 1138 0 l 1,14,-1
 898 0 l 1,15,-1
 898 608 l 2,16,17
 898 640 898 640 880 664 c 128,-1,18
 862 688 862 688 834 688 c 2,19,-1
 330 688 l 2,20,21
 266 688 266 688 266 656 c 0,22,23
 266 612 266 612 290 560 c 1,24,-1
 378 200 l 1,25,26
 398 136 398 136 434 136 c 0,27,28
 462 136 462 136 480 156 c 128,-1,29
 498 176 498 176 498 208 c 2,30,-1
 498 384 l 1,31,-1
 370 384 l 1,32,-1
 370 544 l 1,33,-1
 722 544 l 1,34,-1
 722 152 l 2,35,36
 722 88 722 88 690 44 c 128,-1,37
 658 0 658 0 610 0 c 2,38,-1
 306 0 l 2,0,1
1426 -96 m 1,39,-1
 1426 688 l 1,40,-1
 1170 688 l 1,41,-1
 1170 848 l 1,42,-1
 1858 848 l 1,43,-1
 1794 688 l 1,44,-1
 1650 688 l 1,45,-1
 1650 16 l 1,46,-1
 1426 -96 l 1,39,-1
1426 880 m 1,47,48
 1322 984 1322 984 1322 1040 c 2,49,-1
 1322 1144 l 2,50,51
 1322 1208 1322 1208 1364 1252 c 128,-1,52
 1406 1296 1406 1296 1466 1296 c 2,53,-1
 1898 1296 l 2,54,55
 1964 1296 1964 1296 2011 1249 c 128,-1,56
 2058 1202 2058 1202 2058 1136 c 2,57,-1
 2058 960 l 1,58,-1
 1674 960 l 1,59,-1
 1674 1088 l 1,60,-1
 1834 1088 l 1,61,-1
 1834 1120 l 2,62,63
 1834 1152 1834 1152 1802 1152 c 2,64,-1
 1602 1152 l 2,65,66
 1578 1152 1578 1152 1562 1138 c 128,-1,67
 1546 1124 1546 1124 1546 1104 c 2,68,-1
 1546 1016 l 2,69,70
 1546 976 1546 976 1642 880 c 1,71,-1
 1426 880 l 1,47,48
EndSplineSet
Ligature2: "'abvs' Above Base Substitutions lookup 6 subtable" tm_lla tm_iikaar
EndChar

StartChar: tm_lll_iikaar
Encoding: 65582 -1 159
Width: 1330
GlyphClass: 2
Flags: W
LayerCount: 2
Fore
SplineSet
120 0 m 1,0,-1
 120 872 l 1,1,-1
 344 768 l 1,2,-1
 344 160 l 1,3,-1
 552 160 l 1,4,-1
 552 848 l 1,5,-1
 1136 848 l 2,6,7
 1198 848 1198 848 1243 810 c 128,-1,8
 1288 772 1288 772 1288 720 c 0,9,10
 1288 642 1288 642 1240 560 c 1,11,-1
 944 0 l 1,12,-1
 120 0 l 1,0,-1
552 -16 m 1,13,-1
 792 -16 l 1,14,-1
 896 -88 l 1,15,16
 1048 0 1048 0 1096 0 c 0,17,18
 1136 0 1136 0 1304 -144 c 1,19,-1
 1128 -288 l 1,20,21
 1032 -208 1032 -208 1008 -208 c 0,22,23
 978 -208 978 -208 936 -232 c 1,24,-1
 752 -304 l 1,25,-1
 328 -304 l 2,26,27
 248 -304 248 -304 120 -176 c 1,28,-1
 320 -64 l 1,29,30
 362 -126 362 -126 405 -159 c 128,-1,31
 448 -192 448 -192 488 -192 c 2,32,-1
 624 -192 l 2,33,34
 702 -192 702 -192 784 -144 c 1,35,-1
 552 -16 l 1,13,-1
824 160 m 1,36,-1
 1024 568 l 1,37,38
 1056 622 1056 622 1056 656 c 0,39,40
 1056 688 1056 688 1016 688 c 2,41,-1
 776 688 l 1,42,-1
 776 160 l 1,43,-1
 824 160 l 1,36,-1
552 880 m 1,44,45
 448 984 448 984 448 1040 c 2,46,-1
 448 1144 l 2,47,48
 448 1208 448 1208 490 1252 c 128,-1,49
 532 1296 532 1296 592 1296 c 2,50,-1
 1024 1296 l 2,51,52
 1090 1296 1090 1296 1137 1249 c 128,-1,53
 1184 1202 1184 1202 1184 1136 c 2,54,-1
 1184 960 l 1,55,-1
 800 960 l 1,56,-1
 800 1088 l 1,57,-1
 960 1088 l 1,58,-1
 960 1120 l 2,59,60
 960 1152 960 1152 928 1152 c 2,61,-1
 728 1152 l 2,62,63
 704 1152 704 1152 688 1138 c 128,-1,64
 672 1124 672 1124 672 1104 c 2,65,-1
 672 1016 l 2,66,67
 672 976 672 976 768 880 c 1,68,-1
 552 880 l 1,44,45
EndSplineSet
Ligature2: "'abvs' Above Base Substitutions lookup 6 subtable" tm_llla tm_iikaar
EndChar

StartChar: tm_v_iikaar
Encoding: 65583 -1 160
Width: 1586
GlyphClass: 2
Flags: W
LayerCount: 2
Fore
SplineSet
370 0 m 2,0,1
 308 0 308 0 258 52 c 128,-1,2
 208 104 208 104 184 192 c 2,3,-1
 64 592 l 2,4,5
 50 628 50 628 50 712 c 0,6,7
 50 768 50 768 92 808 c 128,-1,8
 134 848 134 848 194 848 c 2,9,-1
 986 848 l 1,10,-1
 986 160 l 1,11,-1
 1242 160 l 1,12,-1
 1242 848 l 1,13,-1
 1466 928 l 1,14,-1
 1466 0 l 1,15,-1
 800 0 l 1,16,-1
 718 160 l 1,17,-1
 762 160 l 1,18,-1
 762 672 l 1,19,-1
 338 672 l 2,20,21
 314 672 314 672 298 660 c 128,-1,22
 282 648 282 648 282 632 c 0,23,24
 280 616 280 616 288 586 c 0,25,26
 304 536 304 536 314 496 c 1,27,-1
 314 592 l 1,28,-1
 682 592 l 1,29,-1
 682 136 l 2,30,31
 682 80 682 80 652 40 c 128,-1,32
 622 0 622 0 578 0 c 2,33,-1
 370 0 l 2,0,1
426 176 m 0,34,35
 458 180 458 180 458 224 c 2,36,-1
 458 368 l 2,37,38
 458 432 458 432 418 432 c 2,39,-1
 330 432 l 1,40,-1
 378 224 l 1,41,42
 396 176 396 176 426 176 c 0,34,35
1226 600 m 1,43,-1
 1122 664 l 1,44,45
 1002 746 1002 746 1002 856 c 2,46,-1
 1002 1144 l 2,47,48
 1002 1206 1002 1206 1040 1251 c 128,-1,49
 1078 1296 1078 1296 1130 1296 c 2,50,-1
 1578 1296 l 2,51,52
 1638 1296 1638 1296 1680 1250 c 128,-1,53
 1722 1204 1722 1204 1722 1136 c 2,54,-1
 1722 960 l 1,55,-1
 1370 960 l 1,56,-1
 1370 1088 l 1,57,-1
 1530 1088 l 1,58,-1
 1530 1120 l 2,59,60
 1530 1152 1530 1152 1498 1152 c 2,61,-1
 1234 1152 l 2,62,63
 1210 1152 1210 1152 1194 1138 c 128,-1,64
 1178 1124 1178 1124 1178 1104 c 2,65,-1
 1178 848 l 2,66,67
 1178 836 1178 836 1226 800 c 1,68,-1
 1226 600 l 1,43,-1
EndSplineSet
Ligature2: "'abvs' Above Base Substitutions lookup 6 subtable" tm_va tm_iikaar
EndChar

StartChar: tm_ss_iikaar
Encoding: 65584 -1 161
Width: 1898
GlyphClass: 2
Flags: W
LayerCount: 2
Fore
SplineSet
798 0 m 1,0,-1
 724 160 l 1,1,-1
 1162 160 l 1,2,-1
 1490 536 l 2,3,4
 1562 624 1562 624 1562 648 c 0,5,6
 1564 664 1564 664 1544 676 c 128,-1,7
 1524 688 1524 688 1498 688 c 2,8,-1
 1386 688 l 2,9,10
 1354 688 1354 688 1330 676 c 128,-1,11
 1306 664 1306 664 1306 648 c 0,12,13
 1306 616 1306 616 1410 544 c 1,14,-1
 1298 416 l 1,15,-1
 1210 488 l 2,16,17
 1098 584 1098 584 1098 680 c 0,18,19
 1098 750 1098 750 1147 799 c 128,-1,20
 1196 848 1196 848 1266 848 c 2,21,-1
 1658 848 l 2,22,23
 1722 848 1722 848 1766 806 c 128,-1,24
 1810 764 1810 764 1810 704 c 0,25,26
 1810 626 1810 626 1706 504 c 2,27,-1
 1410 160 l 1,28,-1
 1578 160 l 2,29,30
 1618 160 1618 160 1618 192 c 0,31,32
 1616 216 1616 216 1546 256 c 1,33,-1
 1666 384 l 1,34,35
 1842 262 1842 262 1842 128 c 0,36,37
 1842 76 1842 76 1804 38 c 128,-1,38
 1766 0 1766 0 1714 0 c 2,39,-1
 1266 0 l 1,40,-1
 1010 -304 l 1,41,-1
 866 -192 l 1,42,-1
 1026 0 l 1,43,-1
 798 0 l 1,0,-1
362 0 m 2,44,45
 312 0 312 0 266 45 c 128,-1,46
 220 90 220 90 200 160 c 2,47,-1
 88 496 l 1,48,49
 50 596 50 596 50 702 c 0,50,51
 50 760 50 760 92 804 c 128,-1,52
 134 848 134 848 194 848 c 2,53,-1
 986 848 l 1,54,-1
 986 192 l 1,55,-1
 762 192 l 1,56,-1
 762 688 l 1,57,-1
 346 688 l 2,58,59
 312 688 312 688 289 672 c 128,-1,60
 266 656 266 656 266 632 c 0,61,62
 266 602 266 602 290 512 c 2,63,-1
 362 256 l 2,64,65
 374 212 374 212 389 186 c 128,-1,66
 404 160 404 160 418 160 c 0,67,68
 458 160 458 160 458 200 c 2,69,-1
 458 432 l 1,70,-1
 330 432 l 1,71,-1
 330 592 l 1,72,-1
 682 592 l 1,73,-1
 682 136 l 2,74,75
 682 78 682 78 650 39 c 128,-1,76
 618 0 618 0 570 0 c 2,77,-1
 362 0 l 2,44,45
1346 880 m 1,78,79
 1242 984 1242 984 1242 1040 c 2,80,-1
 1242 1144 l 2,81,82
 1242 1208 1242 1208 1284 1252 c 128,-1,83
 1326 1296 1326 1296 1386 1296 c 2,84,-1
 1818 1296 l 2,85,86
 1884 1296 1884 1296 1931 1249 c 128,-1,87
 1978 1202 1978 1202 1978 1136 c 2,88,-1
 1978 960 l 1,89,-1
 1594 960 l 1,90,-1
 1594 1088 l 1,91,-1
 1754 1088 l 1,92,-1
 1754 1120 l 2,93,94
 1754 1152 1754 1152 1722 1152 c 2,95,-1
 1522 1152 l 2,96,97
 1498 1152 1498 1152 1482 1138 c 128,-1,98
 1466 1124 1466 1124 1466 1104 c 2,99,-1
 1466 1016 l 2,100,101
 1466 976 1466 976 1562 880 c 1,102,-1
 1346 880 l 1,78,79
EndSplineSet
Ligature2: "'abvs' Above Base Substitutions lookup 6 subtable" tm_ssa tm_iikaar
EndChar

StartChar: tm_s_iikaar
Encoding: 65585 -1 162
Width: 2228
GlyphClass: 2
Flags: W
LayerCount: 2
Fore
SplineSet
334 0 m 2,0,1
 286 0 286 0 241 49 c 128,-1,2
 196 98 196 98 174 176 c 2,3,-1
 78 520 l 2,4,5
 46 634 46 634 46 696 c 0,6,7
 46 760 46 760 88 804 c 128,-1,8
 130 848 130 848 192 848 c 2,9,-1
 960 848 l 2,10,11
 1026 848 1026 848 1073 799 c 128,-1,12
 1120 750 1120 750 1120 680 c 2,13,-1
 1120 0 l 1,14,-1
 896 0 l 1,15,-1
 896 608 l 2,16,17
 896 640 896 640 878 664 c 128,-1,18
 860 688 860 688 832 688 c 2,19,-1
 328 688 l 2,20,21
 274 688 274 688 274 656 c 0,22,23
 274 588 274 588 288 560 c 1,24,-1
 376 200 l 1,25,26
 396 136 396 136 432 136 c 0,27,28
 460 136 460 136 478 156 c 128,-1,29
 496 176 496 176 496 208 c 2,30,-1
 496 384 l 1,31,-1
 368 384 l 1,32,-1
 368 544 l 1,33,-1
 720 544 l 1,34,-1
 720 152 l 2,35,36
 720 88 720 88 688 44 c 128,-1,37
 656 0 656 0 608 0 c 2,38,-1
 334 0 l 2,0,1
1152 848 m 1,39,-1
 1632 848 l 1,40,-1
 1632 160 l 1,41,-1
 1768 160 l 2,42,43
 1854 160 1854 160 1872 264 c 2,44,-1
 1912 496 l 2,45,46
 1920 546 1920 546 1924 574 c 128,-1,47
 1928 602 1928 602 1928 624 c 0,48,49
 1928 688 1928 688 1864 688 c 2,50,-1
 1712 688 l 1,51,-1
 1712 848 l 1,52,-1
 1992 848 l 2,53,54
 2060 848 2060 848 2110 806 c 128,-1,55
 2160 764 2160 764 2160 704 c 0,56,57
 2160 656 2160 656 2136 520 c 2,58,-1
 2072 176 l 2,59,60
 2060 98 2060 98 2020 49 c 128,-1,61
 1980 0 1980 0 1928 0 c 2,62,-1
 1416 0 l 1,63,-1
 1344 160 l 1,64,-1
 1408 160 l 1,65,-1
 1408 688 l 1,66,-1
 1152 688 l 1,67,-1
 1152 848 l 1,39,-1
1712 880 m 1,68,69
 1608 984 1608 984 1608 1040 c 2,70,-1
 1608 1144 l 2,71,72
 1608 1208 1608 1208 1650 1252 c 128,-1,73
 1692 1296 1692 1296 1752 1296 c 2,74,-1
 2184 1296 l 2,75,76
 2250 1296 2250 1296 2297 1249 c 128,-1,77
 2344 1202 2344 1202 2344 1136 c 2,78,-1
 2344 960 l 1,79,-1
 1960 960 l 1,80,-1
 1960 1088 l 1,81,-1
 2120 1088 l 1,82,-1
 2120 1120 l 2,83,84
 2120 1152 2120 1152 2088 1152 c 2,85,-1
 1888 1152 l 2,86,87
 1864 1152 1864 1152 1848 1138 c 128,-1,88
 1832 1124 1832 1124 1832 1104 c 2,89,-1
 1832 1016 l 2,90,91
 1832 976 1832 976 1928 880 c 1,92,-1
 1712 880 l 1,68,69
EndSplineSet
Ligature2: "'abvs' Above Base Substitutions lookup 5 subtable" tm_sa tm_iikaar
EndChar

StartChar: tm_h_iikaar
Encoding: 65586 -1 163
Width: 2454
GlyphClass: 2
Flags: W
LayerCount: 2
Fore
SplineSet
1210 -240 m 1,0,-1
 1138 -96 l 1,1,2
 1196 -48 1196 -48 1258 -48 c 2,3,-1
 1922 -48 l 2,4,5
 2010 -48 2010 -48 2062 -2 c 128,-1,6
 2114 44 2114 44 2114 120 c 0,7,8
 2114 164 2114 164 2082 248 c 0,9,10
 2058 300 2058 300 2058 336 c 0,11,12
 2058 374 2058 374 2090 432 c 0,13,14
 2130 506 2130 506 2130 576 c 0,15,16
 2130 624 2130 624 2098 656 c 128,-1,17
 2066 688 2066 688 2018 688 c 2,18,-1
 1882 688 l 1,19,-1
 1882 848 l 1,20,-1
 2186 848 l 2,21,22
 2256 848 2256 848 2305 785 c 128,-1,23
 2354 722 2354 722 2354 632 c 0,24,25
 2354 554 2354 554 2330 464 c 1,26,27
 2298 400 2298 400 2298 336 c 0,28,29
 2298 314 2298 314 2322 224 c 1,30,31
 2346 160 2346 160 2346 80 c 0,32,33
 2346 -46 2346 -46 2268 -118 c 0,34,35
 2232 -152 2232 -152 2176 -172 c 128,-1,36
 2120 -192 2120 -192 2058 -192 c 2,37,-1
 1362 -192 l 2,38,39
 1258 -192 1258 -192 1210 -240 c 1,0,-1
798 0 m 1,40,-1
 736 160 l 1,41,-1
 1162 160 l 1,42,-1
 1162 688 l 2,43,44
 1162 752 1162 752 1200 800 c 128,-1,45
 1238 848 1238 848 1290 848 c 2,46,-1
 1706 848 l 2,47,48
 1758 848 1758 848 1796 804 c 128,-1,49
 1834 760 1834 760 1834 696 c 2,50,-1
 1834 0 l 1,51,-1
 1610 0 l 1,52,-1
 1610 608 l 2,53,54
 1610 642 1610 642 1589 665 c 128,-1,55
 1568 688 1568 688 1538 688 c 2,56,-1
 1450 688 l 2,57,58
 1422 688 1422 688 1404 666 c 128,-1,59
 1386 644 1386 644 1386 608 c 2,60,-1
 1386 0 l 1,61,-1
 798 0 l 1,40,-1
382 0 m 2,62,63
 320 0 320 0 266 44 c 128,-1,64
 212 88 212 88 190 160 c 2,65,-1
 68 526 l 2,66,67
 40 616 40 616 40 712 c 0,68,69
 40 768 40 768 84 808 c 128,-1,70
 128 848 128 848 194 848 c 2,71,-1
 986 848 l 1,72,-1
 986 192 l 1,73,-1
 762 192 l 1,74,-1
 762 688 l 1,75,-1
 346 688 l 2,76,77
 312 688 312 688 289 672 c 128,-1,78
 266 656 266 656 266 632 c 0,79,80
 266 602 266 602 290 512 c 2,81,-1
 362 256 l 2,82,83
 374 212 374 212 389 186 c 128,-1,84
 404 160 404 160 418 160 c 0,85,86
 458 160 458 160 458 200 c 2,87,-1
 458 432 l 1,88,-1
 330 432 l 1,89,-1
 330 592 l 1,90,-1
 682 592 l 1,91,-1
 682 136 l 2,92,93
 682 78 682 78 650 39 c 128,-1,94
 618 0 618 0 570 0 c 2,95,-1
 382 0 l 2,62,63
1706 880 m 1,96,97
 1602 984 1602 984 1602 1040 c 2,98,-1
 1602 1144 l 2,99,100
 1602 1208 1602 1208 1644 1252 c 128,-1,101
 1686 1296 1686 1296 1746 1296 c 2,102,-1
 2178 1296 l 2,103,104
 2244 1296 2244 1296 2291 1249 c 128,-1,105
 2338 1202 2338 1202 2338 1136 c 2,106,-1
 2338 960 l 1,107,-1
 1954 960 l 1,108,-1
 1954 1088 l 1,109,-1
 2114 1088 l 1,110,-1
 2114 1120 l 2,111,112
 2114 1152 2114 1152 2082 1152 c 2,113,-1
 1882 1152 l 2,114,115
 1858 1152 1858 1152 1842 1138 c 128,-1,116
 1826 1124 1826 1124 1826 1104 c 2,117,-1
 1826 1016 l 2,118,119
 1826 976 1826 976 1922 880 c 1,120,-1
 1706 880 l 1,96,97
EndSplineSet
Ligature2: "'abvs' Above Base Substitutions lookup 6 subtable" tm_ha tm_iikaar
EndChar

StartChar: tm_k_ukaar
Encoding: 65587 -1 164
Width: 1738
GlyphClass: 2
Flags: W
LayerCount: 2
Fore
SplineSet
964 -8 m 0,0,1
 722 -8 722 -8 564 96 c 128,-1,2
 406 200 406 200 406 352 c 0,3,4
 406 400 406 400 438 432 c 128,-1,5
 470 464 470 464 516 464 c 2,6,-1
 942 464 l 1,7,-1
 942 656 l 1,8,-1
 1166 656 l 1,9,-1
 1166 110 l 2,10,11
 1166 60 1166 60 1108 26 c 128,-1,12
 1050 -8 1050 -8 964 -8 c 0,0,1
894 176 m 0,13,14
 942 176 942 176 942 200 c 2,15,-1
 942 304 l 1,16,-1
 718 304 l 2,17,18
 702 306 702 306 690 298 c 128,-1,19
 678 290 678 290 678 280 c 0,20,21
 682 246 682 246 754 211 c 128,-1,22
 826 176 826 176 894 176 c 0,13,14
798 480 m 1,23,-1
 574 544 l 1,24,-1
 574 848 l 1,25,-1
 1446 848 l 1,26,-1
 1366 688 l 1,27,-1
 798 688 l 1,28,-1
 798 480 l 1,23,-1
1198 464 m 1,29,-1
 1518 464 l 2,30,31
 1592 464 1592 464 1643 417 c 128,-1,32
 1694 370 1694 370 1694 304 c 0,33,34
 1694 206 1694 206 1630 96 c 2,35,-1
 1542 -48 l 1,36,37
 1434 -208 1434 -208 1310 -208 c 2,38,-1
 406 -208 l 2,39,40
 300 -208 300 -208 213 -129 c 128,-1,41
 126 -50 126 -50 126 48 c 2,42,-1
 126 800 l 1,43,-1
 350 912 l 1,44,-1
 350 112 l 2,45,46
 350 40 350 40 398 -4 c 0,47,48
 452 -48 452 -48 526 -48 c 2,49,-1
 1206 -48 l 2,50,51
 1312 -48 1312 -48 1374 56 c 1,52,-1
 1438 152 l 2,53,54
 1470 206 1470 206 1470 240 c 0,55,56
 1470 268 1470 268 1445 286 c 128,-1,57
 1420 304 1420 304 1382 304 c 2,58,-1
 1198 304 l 1,59,-1
 1198 464 l 1,29,-1
EndSplineSet
Ligature2: "'psts' Post Base Substitutions lookup 7 subtable" tm_ka tm_ukaar
EndChar

StartChar: tm_ng_ukaar
Encoding: 65588 -1 165
Width: 1450
GlyphClass: 2
Flags: W
LayerCount: 2
Fore
SplineSet
130 -180 m 1,0,-1
 130 850 l 1,1,-1
 930 850 l 1,2,-1
 810 700 l 1,3,-1
 690 700 l 1,4,-1
 690 602 l 1,5,6
 724 620 724 620 760 620 c 0,7,8
 870 620 870 620 945 559 c 128,-1,9
 1020 498 1020 498 1020 410 c 0,10,11
 1020 332 1020 332 972 260 c 128,-1,12
 924 188 924 188 840 140 c 1,13,-1
 1100 140 l 1,14,-1
 1100 850 l 1,15,-1
 1320 970 l 1,16,-1
 1320 -200 l 1,17,-1
 1100 -320 l 1,18,-1
 1100 0 l 1,19,-1
 500 0 l 1,20,-1
 500 142 l 1,21,22
 640 196 640 196 725 267 c 128,-1,23
 810 338 810 338 810 400 c 0,24,25
 810 422 810 422 794 436 c 128,-1,26
 778 450 778 450 750 450 c 0,27,28
 690 450 690 450 690 400 c 2,29,-1
 690 370 l 1,30,-1
 470 260 l 1,31,-1
 470 700 l 1,32,-1
 350 700 l 1,33,-1
 350 -100 l 1,34,-1
 130 -180 l 1,0,-1
EndSplineSet
Ligature2: "'psts' Post Base Substitutions lookup 7 subtable" tm_nga tm_ukaar
EndChar

StartChar: tm_c_ukaar
Encoding: 65589 -1 166
Width: 1290
GlyphClass: 2
Flags: W
LayerCount: 2
Fore
SplineSet
602 -8 m 0,0,1
 482 -8 482 -8 378 18 c 128,-1,2
 274 44 274 44 196 93 c 128,-1,3
 118 142 118 142 76 209 c 128,-1,4
 34 276 34 276 34 352 c 0,5,6
 34 400 34 400 66 432 c 128,-1,7
 98 464 98 464 144 464 c 2,8,-1
 570 464 l 1,9,-1
 570 656 l 1,10,-1
 794 656 l 1,11,-1
 794 90 l 2,12,13
 794 50 794 50 739 21 c 128,-1,14
 684 -8 684 -8 602 -8 c 0,0,1
522 176 m 0,15,16
 570 176 570 176 570 200 c 2,17,-1
 570 304 l 1,18,-1
 346 304 l 2,19,20
 330 306 330 306 318 298 c 128,-1,21
 306 290 306 290 306 280 c 0,22,23
 310 246 310 246 382 211 c 128,-1,24
 454 176 454 176 522 176 c 0,15,16
906 304 m 1,25,-1
 826 304 l 1,26,-1
 826 464 l 1,27,-1
 1274 464 l 1,28,-1
 1186 304 l 1,29,-1
 1130 304 l 1,30,-1
 1130 -64 l 1,31,-1
 906 32 l 1,32,-1
 906 304 l 1,25,-1
426 480 m 1,33,-1
 202 552 l 1,34,-1
 202 848 l 1,35,-1
 1074 848 l 1,36,-1
 994 688 l 1,37,-1
 426 688 l 1,38,-1
 426 480 l 1,33,-1
EndSplineSet
Ligature2: "'psts' Post Base Substitutions lookup 7 subtable" tm_ca tm_ukaar
EndChar

